<svg width="50" height="50" viewBox="0 0 50 50" fill="none" xmlns="http://www.w3.org/2000/svg">
<path fill-rule="evenodd" clip-rule="evenodd" d="M41.4861 23.9503C41.4861 32.984 34.3344 40.2824 25.497 40.2824C16.6595 40.2824 9.50781 32.984 9.50781 23.9503C9.50781 14.9166 16.6595 7.61816 25.497 7.61816C34.3344 7.61816 41.4861 14.9166 41.4861 23.9503Z" fill="#D33833"/>
<path d="M10.1731 27.982C10.1731 27.982 8.99819 10.9354 24.7319 10.476L23.6081 8.63867L15.0771 11.4968L12.6762 14.3039L10.5307 18.3869L9.30469 23.1334L9.66227 26.2978" fill="#EF3D3A"/>
<path d="M14.5681 12.8234C11.6392 15.8061 10.0056 19.8223 10.0217 24.0007C10.0056 28.1791 11.6392 32.1953 14.5681 35.178C15.9784 36.6542 17.6753 37.8274 19.5549 38.626C21.4346 39.4246 23.4575 39.8317 25.5 39.8224C27.5425 39.8317 29.5654 39.4246 31.4451 38.626C33.3247 37.8274 35.0216 36.6542 36.4319 35.178C39.3608 32.1953 40.9944 28.1791 40.9783 24.0007C40.9944 19.8223 39.3608 15.8061 36.4319 12.8234C35.0216 11.3472 33.3247 10.174 31.4451 9.37542C29.5654 8.57684 27.5425 8.16973 25.5 8.17896C23.4575 8.16973 21.4346 8.57684 19.5549 9.37542C17.6753 10.174 15.9784 11.3472 14.5681 12.8234ZM13.8529 35.8925C10.7501 32.7092 9.00957 28.4441 9 24.0007C9.00957 19.5573 10.7501 15.2922 13.8529 12.1089C15.3603 10.5423 17.1691 9.29619 19.1706 8.44545C21.172 7.59471 23.3249 7.15686 25.5 7.15821C27.6751 7.15686 29.828 7.59471 31.8294 8.44545C33.8309 9.29619 35.6397 10.5423 37.1471 12.1089C40.2499 15.2922 41.9904 19.5573 42 24.0007C41.9904 28.4441 40.2499 32.7092 37.1471 35.8925C35.6397 37.4591 33.8309 38.7052 31.8294 39.556C29.828 40.4067 27.6751 40.8445 25.5 40.8432C23.3249 40.8445 21.172 40.4067 19.1706 39.556C17.1691 38.7052 15.3603 37.4591 13.8529 35.8925Z" fill="#231F20"/>
<path fill-rule="evenodd" clip-rule="evenodd" d="M32.2422 24.0528L29.7902 24.4101L26.5209 24.7674H22.2809L20.6973 24.257L19.3181 22.7769L18.2453 19.6636L17.9899 19.0001L16.5085 18.4897L15.6911 17.1117L15.0781 15.0702L15.7422 13.3349L17.3258 12.7735L18.6029 13.3859L19.2159 14.7129L19.9311 14.6108L20.1865 14.3046L19.9311 12.9266V11.1403L20.2887 8.69044V7.31241L21.3614 5.52609L23.3537 4.14807L26.7252 2.66797L30.5054 3.22939L33.7747 5.62817L35.3072 8.02695L36.2267 9.81327L36.4822 14.2025L35.767 17.9283L34.4388 21.2968L33.1617 23.0831" fill="#F0D6B7"/>
<path fill-rule="evenodd" clip-rule="evenodd" d="M30.1485 34.567L21.4643 34.9243V36.4044L22.1794 41.5081L21.8218 41.9164L15.7429 39.8239L15.2831 39.1094L14.6701 32.2192L13.2909 28.0852L12.9844 27.1155L17.8373 23.798L19.3698 23.1855L20.698 24.8188L21.8729 25.8395L23.2011 26.2989L23.8141 26.452L24.5804 29.6163L25.0912 30.2798L26.5215 29.8205L25.5509 31.7089L30.8126 34.2097L30.1485 34.567Z" fill="#335061"/>
<path fill-rule="evenodd" clip-rule="evenodd" d="M15.7437 13.334L17.3273 12.7726L18.6044 13.3851L19.2174 14.712L19.9326 14.61L20.1369 13.8954L19.7282 12.4664L20.1369 9.14891L19.8304 7.31155L20.9031 6.0356L23.3041 4.1472L22.5889 3.22852L19.2685 4.86173L17.8381 5.98456L17.0719 7.66881L15.8459 9.30202L15.4883 11.2415L15.7437 13.334Z" fill="#6D6B6D"/>
<path fill-rule="evenodd" clip-rule="evenodd" d="M18.2467 7.61779C18.2467 7.61779 19.1152 5.37212 22.7932 4.24929C26.4712 3.12645 22.9975 3.48372 22.9975 3.48372L19.013 5.01485L17.4805 6.49495L16.8164 7.71986L18.2467 7.61779Z" fill="#DCD9D8"/>
<path fill-rule="evenodd" clip-rule="evenodd" d="M16.4078 12.9257C16.4078 12.9257 15.1307 8.63851 19.9836 8.02605L19.8304 7.31152L16.4589 8.07709L15.4883 11.2414L15.7437 13.334L16.4078 12.9257Z" fill="#DCD9D8"/>
<path fill-rule="evenodd" clip-rule="evenodd" d="M18.3438 18.54L19.1611 17.7744C19.2699 17.7962 19.3686 17.8529 19.4424 17.9357C19.5161 18.0186 19.5608 18.1232 19.5698 18.2338C19.6208 18.6931 19.8252 22.5209 22.4304 24.5624C22.6348 24.7666 20.4893 24.2562 20.4893 24.2562L18.5481 21.245" fill="#F7E4CD"/>
<path d="M34.5908 10.6309C34.3254 10.7005 34.0846 10.8423 33.8952 11.0406C33.7058 11.2388 33.5752 11.4857 33.518 11.7538C33.4158 12.6214 34.5908 11.9069 34.7951 11.8558" fill="#F7E4CD"/>
<path d="M27.2383 10.7314C27.2383 10.7314 25.9102 10.8846 25.9102 11.7522C25.9102 12.6198 27.4427 12.5178 27.8513 12.1605" fill="#F7E4CD"/>
<path fill-rule="evenodd" clip-rule="evenodd" d="M18.9572 14.6611C18.9572 14.6611 16.6584 13.283 16.403 14.61C16.1476 15.937 15.5857 16.9067 16.7606 18.3358L15.9943 18.0806L15.2281 16.1922L14.9727 14.3548L16.403 12.9258L17.9866 13.0279L18.9061 13.7424V14.6611" fill="#F7E4CD"/>
<path fill-rule="evenodd" clip-rule="evenodd" d="M20.0323 10.8343C20.0323 10.8343 21.105 5.47532 26.3155 4.45457C30.6066 3.58692 32.9053 4.60768 33.7227 5.62844C33.7227 5.62844 29.8914 1.03503 26.2645 2.46409C22.6375 3.89315 19.9301 6.39401 19.9812 8.02722C20.0565 8.96095 20.0736 9.89845 20.0323 10.8343Z" fill="#F7E4CD"/>
<path fill-rule="evenodd" clip-rule="evenodd" d="M34.1789 6.18964C34.1789 6.18964 32.3909 6.1386 32.3398 7.72078C32.3445 7.89548 32.379 8.0681 32.442 8.23115C32.442 8.23115 33.8724 6.64898 34.7408 7.46559" fill="#F7E4CD"/>
<path fill-rule="evenodd" clip-rule="evenodd" d="M26.416 8.38444C26.416 8.38444 26.1606 5.93462 24.0661 7.36368C21.9717 8.79274 22.8401 9.55831 23.0955 9.8135C23.351 10.0687 23.2488 10.528 23.4531 10.2218C23.6575 9.91557 23.5553 8.79274 24.2705 8.48651C24.9856 8.18029 26.0073 7.82302 26.416 8.38444Z" fill="#F7E4CD"/>
<path fill-rule="evenodd" clip-rule="evenodd" d="M20.698 24.819L14.9766 27.3709C14.9766 27.3709 17.3776 36.8129 16.1516 39.7221L15.2831 39.4158V35.8432L13.6485 29.0041L12.9844 27.1157L18.9612 23.1348L20.698 24.819Z" fill="#49728B"/>
<path fill-rule="evenodd" clip-rule="evenodd" d="M21.3065 30.0244L22.1238 31.0452V34.6689H21.1533C21.1533 34.6689 21 32.117 21 31.8107C21 31.5045 21.1533 30.4327 21.1533 30.4327" fill="#49728B"/>
<path fill-rule="evenodd" clip-rule="evenodd" d="M30.7109 34.6182H32.9586L33.5205 40.1813L31.1707 40.4875L30.7109 34.6692" fill="#335061"/>
<path fill-rule="evenodd" clip-rule="evenodd" d="M31.3242 34.6178L34.7468 34.4136C34.7468 34.4136 36.1261 30.892 36.1261 30.7389C36.1261 30.5858 37.3521 25.6351 37.3521 25.6351L34.5936 22.777L34.0316 22.2666L32.6013 23.7467V29.3609L31.3242 34.6178Z" fill="#335061"/>
<path fill-rule="evenodd" clip-rule="evenodd" d="M32.9062 23.5425L37.1462 26.7069L37.2994 25.2268L34.0301 22.2666L32.9062 23.5425Z" fill="#49728B"/>
<path fill-rule="evenodd" clip-rule="evenodd" d="M23.461 46.6121L22.1839 41.5083L21.5709 37.7315L21.4688 34.9244L27.139 34.6182H30.7149L30.4084 40.9979L30.9192 45.9486V46.8162L26.3217 47.2245L23.461 46.6121Z" fill="black"/>
<path fill-rule="evenodd" clip-rule="evenodd" d="M29.8941 34.5662C29.8941 34.5662 29.5876 40.8949 30.5071 45.3863C29.1333 46.19 27.5977 46.6781 26.0117 46.8153L31.1201 46.6622L31.7331 46.305L31.0179 36.3015L30.8136 34.209" fill="#DCD9D8"/>
<path fill-rule="evenodd" clip-rule="evenodd" d="M33.6211 39.6698L35.971 39.0063L40.4663 38.7511L41.1304 36.6586L39.9555 33.0859L38.5251 32.9328L36.584 33.5453L34.745 34.4129L33.7233 34.2598L32.957 34.566" fill="black"/>
<path fill-rule="evenodd" clip-rule="evenodd" d="M31.4286 32.9844C31.4286 32.9844 29.7428 29.667 29.7428 29.2076C29.7428 28.7483 30.0493 28.4931 30.458 28.6462L31.7862 29.3097V28.1869L29.7428 27.7275L28.3125 27.9317L30.7134 33.5459H31.1732" fill="#DCD9D8"/>
<path fill-rule="evenodd" clip-rule="evenodd" d="M33.6158 28.0845C32.6658 28.0676 31.7217 27.9304 30.8062 27.6762C30.8573 27.3699 30.7551 27.0127 30.8573 26.8085C31.1303 26.6348 31.4558 26.5625 31.7768 26.6044C31.4597 26.451 31.1033 26.3976 30.7551 26.4513C30.7324 26.2506 30.6624 26.0582 30.5508 25.8898C31.1638 25.6857 32.543 24.3587 33.3093 24.767C34.0756 25.1753 33.8201 26.2471 33.8201 26.8085C33.9 27.2447 33.8279 27.695 33.6158 28.0845Z" fill="#D33833"/>
<path d="M33.6158 28.0845C32.6658 28.0676 31.7217 27.9304 30.8062 27.6762C30.8573 27.3699 30.7551 27.0127 30.8573 26.8085C31.1303 26.6348 31.4558 26.5625 31.7768 26.6044C31.4597 26.451 31.1033 26.3976 30.7551 26.4513C30.7324 26.2506 30.6624 26.0582 30.5508 25.8898C31.1638 25.6857 32.543 24.3587 33.3093 24.767C34.0756 25.1753 33.8201 26.2471 33.8201 26.8085C33.9 27.2447 33.8279 27.695 33.6158 28.0845V28.0845Z" stroke="#D33833" stroke-width="0.71" stroke-miterlimit="5"/>
<path fill-rule="evenodd" clip-rule="evenodd" d="M28.6695 26.4011V26.6053C28.3119 26.8094 27.801 26.8094 27.4434 27.0136C27.9032 27.0181 28.3564 27.1226 28.7716 27.3198C28.7295 27.5211 28.7123 27.7268 28.7205 27.9323C28.1075 28.3406 27.5967 28.953 26.8815 29.3103C26.1664 29.6676 25.4001 29.9738 25.0425 29.8717C24.6849 29.7696 24.8382 29.5655 24.7871 29.3613C24.478 28.7167 24.2712 28.028 24.1741 27.3198C24.123 26.3501 24.0208 24.7679 25.0425 24.9721C25.8854 25.1531 26.6952 25.4629 27.4434 25.8908C27.8034 26.1599 28.2247 26.3354 28.6695 26.4011Z" fill="#D33833"/>
<path d="M28.6695 26.4011V26.6053C28.3119 26.8094 27.801 26.8094 27.4434 27.0136C27.9032 27.0181 28.3564 27.1226 28.7716 27.3198C28.7295 27.5211 28.7123 27.7268 28.7205 27.9323C28.1075 28.3406 27.5967 28.953 26.8815 29.3103C26.1664 29.6676 25.4001 29.9738 25.0425 29.8717C24.6849 29.7696 24.8382 29.5655 24.7871 29.3613C24.478 28.7167 24.2712 28.028 24.1741 27.3198C24.123 26.3501 24.0208 24.7679 25.0425 24.9721C25.8854 25.1531 26.6952 25.4629 27.4434 25.8908C27.8034 26.1599 28.2247 26.3354 28.6695 26.4011V26.4011Z" stroke="#D33833" stroke-width="0.71" stroke-miterlimit="5"/>
<path fill-rule="evenodd" clip-rule="evenodd" d="M31.2236 27.9325C31.2236 27.9325 30.8149 27.3201 31.1214 27.1159C31.4279 26.9118 31.7344 27.1159 31.8877 26.8097C32.0409 26.5035 31.8877 26.3504 31.9898 25.9931C32.092 25.6358 32.3474 25.5338 32.6539 25.4827C32.9604 25.4317 33.7778 25.3296 33.931 25.6358L33.5734 24.513L32.8072 24.2578L30.5084 25.6358L30.4062 26.2993V27.6263" fill="#EF3D3A"/>
<path fill-rule="evenodd" clip-rule="evenodd" d="M24.8389 29.9217C24.7878 29.003 24.6856 28.0333 24.5835 27.0636C24.4813 26.0938 24.941 25.9407 26.1671 25.9407C26.3714 25.9407 27.342 26.1449 27.3931 26.298C27.4441 26.4511 26.8311 26.8084 27.8017 27.3188C28.7723 27.8291 29.9983 27.0636 29.6407 26.0938C29.4875 25.8897 28.7212 26.0428 28.4658 25.8897L27.0355 25.1752C26.4225 24.8179 25.0432 24.4096 24.3791 24.8179C22.7445 25.9407 24.4813 28.6968 25.0432 29.8706" fill="#EF3D3A"/>
<path fill-rule="evenodd" clip-rule="evenodd" d="M26.4186 8.38442C24.7839 7.97612 23.9666 9.09895 23.4557 10.2218C22.996 10.0687 23.2003 9.45622 23.3025 9.14999C23.4047 8.84376 24.7839 7.26159 25.7545 7.4147C26.7251 7.56782 26.7762 7.87404 26.4186 8.38442Z" fill="#231F20"/>
<path fill-rule="evenodd" clip-rule="evenodd" d="M34.5347 10.2725H34.5858C34.9944 11.038 35.3009 11.8546 35.7607 12.5692C36.2204 13.2837 33.3597 13.9472 33.4108 12.6202C33.8706 12.4161 34.6368 12.5692 35.0455 12.314C34.6974 11.6906 34.5211 10.9861 34.5347 10.2725Z" fill="#231F20"/>
<path fill-rule="evenodd" clip-rule="evenodd" d="M27.2826 10.2725C27.6401 10.936 27.7423 11.6505 28.2532 12.1098C28.764 12.5692 28.9172 12.6202 28.7129 13.2327C28.5618 13.4785 28.3254 13.6602 28.0488 13.743C27.2826 13.9982 25.4436 13.7941 26.0566 12.8244C26.7206 12.8754 27.5891 13.2327 28.0999 12.7733C27.6912 12.1609 27.0271 10.987 27.2826 10.2725Z" fill="#231F20"/>
<path fill-rule="evenodd" clip-rule="evenodd" d="M34.2342 16.9069C33.0593 17.6725 31.7311 18.4891 29.7389 18.336C29.5172 18.1086 29.3809 17.8117 29.353 17.4956C29.3251 17.1794 29.4072 16.8633 29.5856 16.6007C29.79 16.9579 29.6878 17.6214 30.2497 17.7235C30.8116 17.8256 32.6506 17.06 33.468 16.7538C34.2853 16.4476 33.4169 15.631 32.9571 15.0695C32.4974 14.5081 30.8116 12.6197 30.8627 10.9865C31.2203 10.7313 31.2714 11.3948 31.3225 11.5479C31.7822 12.6197 33.0082 14.0488 33.8767 15.0185C34.7451 15.9882 34.4386 15.4778 34.4897 15.631C34.5407 15.7841 34.1832 16.6007 34.2342 16.9069Z" fill="#231F20"/>
<path fill-rule="evenodd" clip-rule="evenodd" d="M18.5569 16.0906C18.1482 15.8864 18.0971 14.9677 17.6374 14.9167C17.1776 14.8657 17.1265 16.1416 17.1265 16.9072C16.7179 16.4989 16.6157 15.274 16.9222 14.6615C17.2287 14.0491 16.4114 14.8657 16.207 15.0188C16.4624 13.1304 18.9655 14.1511 18.5569 16.0906Z" fill="#231F20"/>
<path fill-rule="evenodd" clip-rule="evenodd" d="M34.9973 17.6719C34.4354 18.7437 33.6691 19.9175 32.0344 19.9175C31.9833 19.5792 31.9833 19.2351 32.0344 18.8968C33.2604 18.7437 34.0267 18.1312 34.9973 17.6719Z" fill="#231F20"/>
<path fill-rule="evenodd" clip-rule="evenodd" d="M27.1875 18.3877C28.2603 18.8981 30.1504 19.0001 31.5296 18.9491C31.6193 19.2989 31.6537 19.6605 31.6318 20.0209C29.8438 20.0719 27.6983 19.6636 27.1875 18.3877Z" fill="#231F20"/>
<path fill-rule="evenodd" clip-rule="evenodd" d="M26.977 19.4082C27.6922 21.1945 30.1953 20.9904 32.2386 20.9393C32.2018 21.0718 32.1372 21.1949 32.0491 21.3004C31.961 21.406 31.8515 21.4917 31.7278 21.5518C31.0637 21.807 29.2247 22.0111 28.3052 21.5518C27.7857 21.1682 27.351 20.6817 27.0281 20.1227C26.8748 19.9186 26.0575 19.4082 26.977 19.4082Z" fill="#231F20"/>
<path fill-rule="evenodd" clip-rule="evenodd" d="M34.1368 29.3097C33.3603 30.7709 32.4722 32.17 31.4805 33.4948C31.9402 32.2699 32.0935 30.2284 32.1446 28.6462C32.4988 28.4826 32.9021 28.4602 33.2723 28.5835C33.6425 28.7067 33.9517 28.9665 34.1368 29.3097Z" fill="#81B0C4"/>
<path fill-rule="evenodd" clip-rule="evenodd" d="M38.6831 34.4629C37.7125 34.667 37.0484 35.5857 36.1289 35.5347C36.6397 34.8202 37.5592 34.5139 38.6831 34.4629Z" fill="#231F20"/>
<path fill-rule="evenodd" clip-rule="evenodd" d="M39.0848 35.9452C38.274 36.0724 37.4531 36.1237 36.6328 36.0983C36.9904 35.5369 38.4207 35.7411 39.0848 35.9452Z" fill="#231F20"/>
<path fill-rule="evenodd" clip-rule="evenodd" d="M32.5007 40.6914C32.654 41.8142 33.0626 42.886 33.0115 44.0599C32.5781 44.2567 32.1083 44.361 31.6323 44.3661C31.5812 43.3453 31.4279 41.8142 31.479 40.8445C31.7855 40.8955 32.2964 40.6403 32.5007 40.6914Z" fill="#DCD9D8"/>
<path fill-rule="evenodd" clip-rule="evenodd" d="M25.9531 31.4535C26.2085 30.2796 27.2813 29.7182 28.2519 29.0547C29.2225 30.3306 29.8355 31.9128 30.4996 33.495C28.9058 33.0038 27.3788 32.3182 25.9531 31.4535Z" fill="#81B0C4"/>
<path fill-rule="evenodd" clip-rule="evenodd" d="M31.4749 40.8448C31.4238 41.8145 31.5771 43.3456 31.6282 44.3664C32.1042 44.3612 32.574 44.2569 33.0074 44.0601C33.0585 42.8863 32.6498 41.8145 32.4966 40.6916C32.2923 40.6406 31.7814 40.8958 31.4749 40.8448ZM21.5136 35.3837C21.8797 38.9715 22.6158 42.5119 23.7102 45.9485C26.2004 46.7108 28.8541 46.7639 31.3728 46.1017C30.9641 44.1622 31.1173 41.8145 30.913 39.7219C30.7087 37.6294 30.8108 36.6086 30.5554 35.0264C27.8991 34.465 24.17 34.9244 21.5136 35.3837ZM31.2195 35.0775C31.1856 36.7303 31.2538 38.3837 31.4238 40.0281L33.0585 39.7219C32.8542 38.1397 32.9053 36.3534 32.4966 34.9244C32.0651 34.8967 31.6322 34.9486 31.2195 35.0775ZM34.4378 34.8223C34.1359 34.7467 33.8201 34.7467 33.5183 34.8223C33.6204 36.1493 33.978 37.6294 34.0802 39.0584C34.5399 39.1095 34.7954 38.8543 35.1529 38.8032C35.1529 37.5783 35.0508 35.843 34.4378 34.8223ZM39.3418 39.2626C40.3124 39.0584 40.9254 37.8846 40.6189 36.7107C40.3124 35.5368 40.1591 34.3629 39.8015 33.8526C39.444 33.3422 38.882 32.9849 38.3201 33.3422C37.7582 33.6995 35.8681 34.0567 35.2551 34.7712C35.5423 36.0461 35.7132 37.3444 35.7659 38.6501C36.8898 38.7522 38.269 38.3439 39.1885 38.7522C38.5245 38.9564 37.7071 38.9564 37.1452 39.2626C37.8629 39.4682 38.6241 39.4682 39.3418 39.2626ZM30.5043 33.4953C29.8402 31.9131 29.2272 30.331 28.2567 29.055C27.2861 29.7185 26.2133 30.2799 25.9579 31.4538C27.3836 32.3185 28.9106 33.0042 30.5043 33.4953ZM32.139 28.6467C32.0879 30.2289 31.9347 32.2704 31.4749 33.4953C32.4666 32.1705 33.3547 30.7713 34.1313 29.3102C33.9462 28.967 33.637 28.7072 33.2668 28.5839C32.8966 28.4606 32.4932 28.4831 32.139 28.6467ZM30.3 27.9832C29.8913 27.9322 29.5848 28.4426 29.1251 28.2384C28.9934 28.3443 28.8735 28.4641 28.7675 28.5957C29.8402 29.9226 30.3511 31.76 31.1684 33.2911C31.6282 31.811 31.5771 30.1778 31.6793 28.5957C31.0663 28.6467 30.7087 28.0342 30.3 27.9832ZM29.074 26.401C29.1034 26.778 29.1545 27.1529 29.2272 27.5239C30.7087 27.9832 30.4533 25.4824 29.074 26.401ZM27.4393 25.8907C26.6911 25.4628 25.8812 25.153 25.0384 24.972C24.0167 24.7678 24.1189 26.35 24.17 27.3197C24.2671 28.0279 24.4739 28.7166 24.783 29.3612C24.8341 29.5654 24.8851 29.8206 25.0384 29.8716C25.1916 29.9226 26.5709 29.4633 26.8774 29.3102C27.1839 29.1571 28.1034 28.3405 28.7164 27.9322C28.7082 27.7267 28.7253 27.521 28.7675 27.3197C28.3523 27.1225 27.899 27.018 27.4393 27.0135C27.7969 26.8093 28.3077 26.8093 28.6653 26.6052V26.401C28.2206 26.3353 27.7992 26.1598 27.4393 25.8907ZM21.4115 24.7678C20.8495 25.2782 22.8929 26.0438 23.5059 26.0438C24.1189 26.0438 23.7102 25.4313 23.6591 25.1761C23.608 24.9209 21.9223 25.1251 21.4115 24.7678ZM27.8991 25.023C27.8991 25.0741 27.7969 25.0741 27.7969 25.0741C28.0771 25.3275 28.4111 25.5143 28.7738 25.6203C29.1365 25.7264 29.5186 25.749 29.8913 25.6865L31.1173 24.7678C30.1467 24.8189 28.8697 25.4313 27.8991 25.023ZM33.8248 26.8093C33.8248 26.2479 33.6715 25.023 33.3139 24.7678C32.9563 24.5126 31.1684 25.6865 30.5554 25.8907C30.667 26.059 30.7371 26.2514 30.7598 26.4521C31.108 26.3984 31.4643 26.4518 31.7814 26.6052C31.4604 26.5633 31.1349 26.6356 30.8619 26.8093C30.7598 27.0135 30.8619 27.3708 30.8108 27.677C31.7263 27.9312 32.6704 28.0684 33.6204 28.0853C33.8325 27.6958 33.9046 27.2455 33.8248 26.8093ZM20.4919 25.2782C20.3387 25.1761 19.2149 23.696 19.0616 23.7471C17.0323 24.6514 15.1406 25.8369 13.4424 27.2687C15.0771 30.7393 15.7412 34.9754 15.8433 39.0584C17.6824 39.9261 19.317 41.151 21.8201 41.2531C21.5136 39.2115 21.2582 37.3742 21.105 35.4858C20.492 35.1796 19.5724 35.4858 18.9594 35.3837C18.3464 35.2816 19.8789 35.0775 19.93 34.5671C19.9811 34.0567 19.4703 34.2098 19.6235 33.6484C19.7768 33.087 20.3387 34.1588 20.8495 34.3119C21.2582 33.3422 20.7985 31.6069 20.9006 30.7903C21.0028 29.9737 20.9517 29.9226 21.3093 30.0247C21.6669 30.1268 21.3093 31.9131 21.3093 32.6787C21.3093 33.4443 21.2582 34.1078 21.5136 34.5161C23.9656 34.2098 26.4176 34.0057 29.0229 33.9036C28.461 33.6484 27.7969 33.4443 27.0306 33.036C26.2644 32.6277 25.3449 32.3214 25.1916 31.9131C25.0384 31.5048 25.7025 30.9944 25.8046 30.433C24.5786 31.0965 24.3743 29.8206 24.0678 28.9019C23.8625 28.2688 23.7088 27.6203 23.608 26.9625C22.5219 26.4934 21.4792 25.9298 20.4919 25.2782ZM32.752 23.9512C34.4378 23.1346 34.7443 27.0135 34.0802 28.2384C34.1824 28.6467 34.5399 28.7488 34.6932 29.106C33.7737 30.7903 32.7009 32.3725 31.7303 34.0057C32.4455 33.5974 33.4672 33.9546 34.3356 33.5974C35.204 33.2401 34.8464 32.7808 35.1019 32.2194C35.7835 30.6222 36.3137 28.9647 36.6854 27.2687C36.8153 26.8187 36.9008 26.3572 36.9409 25.8907C36.8387 25.3292 36.1235 24.9209 35.7659 24.6147C35.4084 24.3085 34.6421 23.4408 33.9269 22.8794C33.6204 23.3388 33.0074 23.594 32.752 23.9512ZM16.6607 8.99712C15.8433 9.86477 15.9966 11.549 16.0988 12.7229C17.5802 11.8042 19.4703 12.7739 19.4703 14.3561C20.1854 14.3051 19.7257 13.4885 19.6235 12.927C19.2149 11.1407 20.2876 9.20128 19.6746 7.56806C19.1027 7.59597 18.5421 7.7366 18.0248 7.98186C17.5075 8.22712 17.0439 8.57216 16.6607 8.99712ZM22.382 3.8423C20.5941 4.35268 18.2443 5.67966 17.478 7.31287C18.091 7.26184 18.4997 6.95561 19.0616 6.90457C19.2975 6.94693 19.5373 6.96404 19.7768 6.95561C20.2876 6.8025 20.6963 5.7307 21.105 5.3224C21.5136 4.9141 21.8712 4.70994 22.1777 4.35268C22.4842 3.99541 22.6375 4.2506 22.6885 3.99541C22.6099 3.90682 22.5001 3.85197 22.382 3.8423ZM31.8836 4.35268C29.9935 3.28088 26.7752 2.46428 24.783 3.48504C22.7907 4.50579 20.9517 5.62863 20.2365 7.31287C20.9006 8.94609 20.0322 10.4262 19.93 12.1104C19.93 12.9781 20.3898 13.7436 20.3898 14.7134C20.3898 15.6831 19.4192 15.1727 18.9084 15.1217C18.7551 14.3051 18.4486 13.3353 17.5802 13.2333C17.3035 13.2124 17.0254 13.2481 16.763 13.3381C16.5006 13.4281 16.2592 13.5706 16.0537 13.7568C15.8482 13.9431 15.6827 14.1692 15.5675 14.4214C15.4523 14.6736 15.3897 14.9466 15.3836 15.2237C15.3325 16.4487 16.3542 18.5412 17.8356 18.3881C18.3975 18.3371 18.4997 17.7756 19.1638 17.7756C19.8279 17.7756 18.6019 18.6433 18.5508 19.1537C18.5404 19.4296 18.5749 19.7054 18.6529 19.9703C18.9363 21.1742 19.4384 22.316 20.1344 23.3388C20.8495 24.4106 22.331 24.5637 23.8635 24.6657C24.17 24.0533 25.1916 24.1043 25.8557 24.2574C25.0083 23.8413 24.2727 23.2288 23.7102 22.4711C22.995 21.7056 22.2288 20.8379 22.2288 19.8172C23.557 21.7056 24.6808 23.3388 27.1328 24.1554C29.5848 24.972 31.1684 23.9002 32.5988 22.8794C33.1349 22.3983 33.5842 21.8285 33.9269 21.1952C35.5105 18.9495 36.2768 15.6831 36.0724 12.5698C36.0214 11.2938 36.0214 10.0179 35.6127 9.15024C35.204 8.28259 33.6204 7.41495 32.7009 8.23156C32.5477 7.36391 33.4672 6.8025 34.5399 7.10872C33.7737 6.139 32.9563 4.96513 31.8836 4.35268ZM35.4084 33.4443C36.8898 32.7297 39.6483 31.5048 40.5678 33.4443C40.9349 34.3242 41.2421 35.228 41.4873 36.1493C41.7427 37.2211 41.2319 39.4667 40.108 39.824C39.0583 40.1223 37.9485 40.1399 36.8898 39.875C36.7146 39.7401 36.5744 39.5651 36.4811 39.3647C35.7082 39.2816 34.9277 39.4234 34.2334 39.773C34.2845 40.3854 33.8759 40.4365 33.4672 40.5896C33.1607 41.7124 34.0291 43.2435 33.8248 44.2643C33.6204 45.285 32.8031 45.1319 32.0879 45.234C32.0919 45.6104 32.1261 45.9859 32.1901 46.3568C32.0368 46.9183 31.3217 47.2755 30.7087 47.3266C28.5632 47.5817 25.2938 47.6838 23.1994 46.9693C22.6375 45.5402 22.1777 43.856 21.718 42.2228C19.6746 42.4269 18.0399 41.3551 16.5074 40.6406C15.9966 40.3854 15.2303 40.2833 15.0771 39.824C14.9238 39.3647 14.9238 38.6501 14.8728 37.8846C14.8332 35.9764 14.5935 34.0776 14.1576 32.2194C13.9532 31.3517 13.5446 30.5861 13.2892 29.7695C12.9479 28.9599 12.6745 28.1235 12.4718 27.2687C12.3186 26.0948 13.3913 26.0438 14.0554 25.5334C14.7195 25.023 15.9966 24.3595 17.1204 23.645C17.478 23.4408 18.4997 22.9305 18.6529 22.6753C18.8062 22.4201 18.2443 21.5524 18.0399 21.1952C17.7904 20.6674 17.6513 20.0943 17.6313 19.5109C17.1995 19.4366 16.787 19.2763 16.4185 19.0396C16.0499 18.8029 15.7327 18.4945 15.4858 18.1329C14.7195 17.0611 14.2087 15.0196 14.8728 13.5395C14.9238 13.3864 15.1793 13.1822 15.1793 12.9781C15.2008 12.5639 15.1489 12.1493 15.026 11.7532C14.9749 9.81373 15.3836 8.07844 16.7118 7.51703C17.2226 5.37344 19.1638 4.65891 21.0028 3.58711C21.7065 3.20292 22.4413 2.87854 23.1994 2.61739C25.9579 1.59663 30.2489 1.80079 32.5477 3.53607C33.5183 4.30164 35.1019 5.83278 35.6638 6.95561C37.0941 9.96684 36.992 14.9175 35.9703 18.5412C35.8272 19.1559 35.6218 19.7544 35.3573 20.3275C35.1529 20.7358 34.5399 21.5524 34.6421 21.9097C34.7443 22.267 36.0214 23.2877 36.2768 23.594C36.5322 23.9002 37.7582 24.7168 37.8604 25.3292C37.8127 26.084 37.6401 26.8256 37.3495 27.5239C36.7365 29.6164 36.1235 31.5559 35.4084 33.4443Z" fill="#231F20"/>
<path fill-rule="evenodd" clip-rule="evenodd" d="M25.5468 18.8467C25.7177 18.7482 25.9115 18.6963 26.1087 18.6963C26.306 18.6963 26.4998 18.7482 26.6707 18.8467C26.6707 18.8467 25.9555 18.9998 26.0066 20.2247L25.7001 20.1227C25.7001 20.1227 25.3936 19.0509 25.5468 18.8467Z" fill="#F7E4CD"/>
<path fill-rule="evenodd" clip-rule="evenodd" d="M31.2149 30.8394C31.2149 30.9342 31.1772 31.0251 31.1102 31.0921C31.0431 31.1591 30.9521 31.1967 30.8573 31.1967C30.7716 31.1843 30.6932 31.1413 30.6369 31.0756C30.5805 31.0099 30.5499 30.926 30.5508 30.8394C30.5508 30.7582 30.5831 30.6803 30.6406 30.6229C30.6981 30.5655 30.776 30.5332 30.8573 30.5332C31.0616 30.5332 31.2149 30.6353 31.2149 30.8394Z" fill="#1D1919"/>
</svg>
