<svg width="50" height="50" viewBox="0 0 50 50" fill="none" xmlns="http://www.w3.org/2000/svg">
<path d="M43 23.4565V37.6757C43 40.0618 41.1302 42 38.8198 42C37.1378 42 35.7355 40.7673 35.4098 39.1303C35.3638 38.8925 35.337 38.6468 35.337 38.3971V23.4565C35.337 22.9056 35.291 22.3626 35.2029 21.8315C34.8849 19.9091 34.0037 18.1373 32.6435 16.7302C30.9078 14.9348 28.5974 13.9438 26.1415 13.9438C23.6855 13.9438 21.3751 14.9348 19.6394 16.7302C18.2793 18.1373 16.318 19.9091 16 21.8315C16.6168 16.5083 21.3214 12.1444 26.1415 10.5985C27.3599 10.2101 28.6511 10 29.9921 10C37.1493 10 42.9579 15.9812 43 23.3773V23.4169V23.4565Z" fill="url(#paint0_linear_347_7430)"/>
<path d="M43 24.4189C42.9562 16.9979 36.9267 10.9968 29.4971 10.9968C28.1051 10.9968 26.7648 11.2076 25.5 11.5973C20.4966 13.1483 16.7341 17.5269 16.0938 22.8679C16.0023 23.4008 15.9545 23.9456 15.9545 24.4984C15.9545 25.0512 16.0023 25.596 16.0938 26.1289C16.4239 28.0577 17.3386 29.8354 18.7506 31.2472C20.5523 33.0488 22.9506 34.043 25.5 34.043C28.0494 34.043 30.4477 33.0488 32.2494 31.2472C33.6614 29.8354 35.0136 28.0577 35.3438 26.1289C34.7034 31.4699 30.5034 35.8485 25.5 37.3995C24.2352 37.7892 22.8949 38 21.5029 38C14.0455 38 8 31.9551 8 24.4984C8 22.1361 8.46534 19.8454 9.37614 17.686C10.2591 15.6021 11.5199 13.7289 13.1227 12.1263C14.7295 10.5196 16.5989 9.25888 18.683 8.37999C20.8466 7.4653 23.1375 7 25.5 7C27.8625 7 30.1534 7.4653 32.3131 8.37601C34.3971 9.25888 36.2705 10.5196 37.8733 12.1222C39.4801 13.7289 40.7409 15.5981 41.6199 17.682C42.5267 19.8215 42.9881 22.0844 43 24.4189Z" fill="url(#paint1_linear_347_7430)"/>
<path d="M35 39.2027C34.1584 39.7707 32.3926 40.5318 31.4525 40.9375C29.394 41.8223 26.9323 42 24.6804 42C22.4285 42 20.245 41.5479 18.1864 40.6632C16.2 39.8054 14.4144 38.5807 12.8866 37.0236C11.355 35.4627 10.1533 33.6468 9.31548 31.6223C8.44355 29.5204 8 27.295 8 25C8 32.2443 13.7623 37.607 20.8705 37.607C22.1973 37.607 23.4748 37.4023 24.6804 37.0236C29.4495 35.5168 34.1849 31.7729 34.7953 26.5841C34.8824 26.0663 34.928 25.537 34.928 25V38.4879C34.928 38.7313 34.9545 38.9709 35 39.2027Z" fill="url(#paint2_linear_347_7430)"/>
<defs>
<linearGradient id="paint0_linear_347_7430" x1="24.3663" y1="12.4652" x2="42.1883" y2="41.2133" gradientUnits="userSpaceOnUse">
<stop stop-color="#16A34A"/>
<stop offset="0.218" stop-color="#22C55E"/>
<stop offset="0.5304" stop-color="#22C55E"/>
<stop offset="0.8019" stop-color="#4ADE80"/>
<stop offset="1" stop-color="#4ADE80"/>
</linearGradient>
<linearGradient id="paint1_linear_347_7430" x1="21.0222" y1="7.56289" x2="28.6586" y2="36.8466" gradientUnits="userSpaceOnUse">
<stop stop-color="#4ADE80"/>
<stop offset="0.4911" stop-color="#4ADE80"/>
<stop offset="0.8259" stop-color="#86EFAC"/>
<stop offset="1" stop-color="#86EFAC"/>
</linearGradient>
<linearGradient id="paint2_linear_347_7430" x1="10.067" y1="35.573" x2="34.9413" y2="29.3933" gradientUnits="userSpaceOnUse">
<stop stop-color="#4ADE80"/>
<stop offset="0.2803" stop-color="#4ADE80"/>
<stop offset="0.4913" stop-color="#22C55E"/>
<stop offset="0.6796" stop-color="#22C55E"/>
<stop offset="1" stop-color="#16A34A"/>
</linearGradient>
</defs>
</svg>
