<svg width="50" height="50" viewBox="0 0 50 50" fill="none" xmlns="http://www.w3.org/2000/svg">
<path d="M25.3049 42C34.8169 42 42.5278 34.4076 42.5278 25.0419C42.5278 15.6762 34.8169 8.0838 25.3049 8.0838C15.793 8.0838 8.08203 15.6762 8.08203 25.0419C8.08203 34.4076 15.793 42 25.3049 42Z" fill="#F4B960"/>
<path d="M23.552 38.6258C32.1412 38.6258 39.104 31.77 39.104 23.3129C39.104 14.8558 32.1412 8 23.552 8C14.9629 8 8 14.8558 8 23.3129C8 31.77 14.9629 38.6258 23.552 38.6258Z" fill="#E66F32"/>
<path d="M25.6948 34.6598C33.1482 34.6598 39.1903 28.7105 39.1903 21.3717C39.1903 14.0329 33.1482 8.08368 25.6948 8.08368C18.2414 8.08368 12.1992 14.0329 12.1992 21.3717C12.1992 28.7105 18.2414 34.6598 25.6948 34.6598Z" fill="#E43C41"/>
<path d="M26.7659 34.5763C33.6041 34.5763 39.1476 29.1181 39.1476 22.3851C39.1476 15.652 33.6041 10.1938 26.7659 10.1938C19.9277 10.1938 14.3843 15.652 14.3843 22.3851C14.3843 29.1181 19.9277 34.5763 26.7659 34.5763Z" fill="#BDD041"/>
<path d="M25.8651 34.6606C32.2301 34.6606 37.3899 29.5801 37.3899 23.313C37.3899 17.0459 32.2301 11.9654 25.8651 11.9654C19.5002 11.9654 14.3403 17.0459 14.3403 23.313C14.3403 29.5801 19.5002 34.6606 25.8651 34.6606Z" fill="#6DB54C"/>
<path d="M24.0666 30.864C29.3668 30.864 33.6634 26.6334 33.6634 21.4147C33.6634 16.196 29.3668 11.9654 24.0666 11.9654C18.7664 11.9654 14.4697 16.196 14.4697 21.4147C14.4697 26.6334 18.7664 30.864 24.0666 30.864Z" fill="#AEDAE6"/>
<path d="M25.568 27.8257C30.0401 27.8257 33.6654 24.2561 33.6654 19.8528C33.6654 15.4496 30.0401 11.88 25.568 11.88C21.096 11.88 17.4707 15.4496 17.4707 19.8528C17.4707 24.2561 21.096 27.8257 25.568 27.8257Z" fill="#56B8DE"/>
<path d="M26.5955 27.9108C30.4996 27.9108 33.6646 24.7945 33.6646 20.9504C33.6646 17.1063 30.4996 13.99 26.5955 13.99C22.6913 13.99 19.5264 17.1063 19.5264 20.9504C19.5264 24.7945 22.6913 27.9108 26.5955 27.9108Z" fill="#00B1D5"/>
<path d="M25.5672 27.8679C28.9035 27.8679 31.6081 25.2049 31.6081 21.9199C31.6081 18.6349 28.9035 15.9719 25.5672 15.9719C22.231 15.9719 19.5264 18.6349 19.5264 21.9199C19.5264 25.2049 22.231 27.8679 25.5672 27.8679Z" fill="#221F1F"/>
<path d="M29.0993 20.2436C29.5261 19.3086 29.3822 18.3338 28.7779 18.0664C28.1736 17.799 27.3377 18.3402 26.9109 19.2752C26.4842 20.2102 26.6281 21.185 27.2324 21.4524C27.8367 21.7198 28.6725 21.1786 29.0993 20.2436Z" fill="black"/>
</svg>
