<svg width="50" height="50" viewBox="0 0 50 50" fill="none" xmlns="http://www.w3.org/2000/svg">
<g clip-path="url(#clip0_439_2475)">
<path d="M24.9818 33.4808C29.6502 33.4808 33.4354 29.6963 33.4354 25.0272C33.4354 20.3582 29.6509 16.5737 24.9818 16.5737C20.3128 16.5737 16.5283 20.3582 16.5283 25.0272C16.5283 29.6963 20.3128 33.4808 24.9818 33.4808Z" fill="white"/>
<path d="M17.6608 29.2553L10.3415 16.5777C8.85729 19.1476 8.07568 22.0629 8.07568 25.0305C8.07568 27.9982 8.85662 30.9135 10.3408 33.4834C11.825 36.0533 13.9593 38.187 16.5299 39.6705C19.1005 41.154 22.0157 41.9343 24.9834 41.9336L32.3027 29.2553V29.2533C31.5616 30.5389 30.4944 31.6068 29.2095 32.3492C27.9245 33.0916 26.4669 33.4827 24.9827 33.4827C23.4985 33.4827 22.0409 33.0923 20.7553 32.3505C19.4697 31.6088 18.4025 30.5409 17.6608 29.2553Z" fill="url(#paint0_linear_439_2475)"/>
<path d="M32.3021 29.2553L24.9828 41.9329C27.9505 41.9336 30.8657 41.1526 33.4357 39.6684C36.0056 38.1849 38.1399 36.0506 39.6234 33.4807C41.1069 30.9108 41.8878 27.9949 41.8872 25.0272C41.8865 22.0595 41.1049 19.1443 39.6201 16.575H24.9815L24.9795 16.5763C26.4637 16.5757 27.922 16.9655 29.2069 17.7072C30.4925 18.449 31.5597 19.5161 32.3021 20.8011C33.0445 22.0861 33.435 23.5443 33.435 25.0285C33.4357 26.512 33.0445 27.9697 32.3021 29.2553Z" fill="url(#paint1_linear_439_2475)"/>
<path d="M24.982 31.721C28.6781 31.721 31.6744 28.7247 31.6744 25.0285C31.6744 21.3324 28.6781 18.3361 24.982 18.3361C21.2858 18.3361 18.2896 21.3324 18.2896 25.0285C18.2896 28.7247 21.2858 31.721 24.982 31.721Z" fill="#1A73E8"/>
<path d="M24.9819 16.5757H39.6212C38.1376 14.0051 36.0033 11.8708 33.4334 10.3873C30.8635 8.90313 27.9483 8.12219 24.9806 8.12219C22.0129 8.12219 19.0976 8.90379 16.5277 10.388C13.9578 11.8722 11.8242 14.0071 10.3413 16.577L17.6606 29.2553L17.6626 29.2566C16.9202 27.9717 16.5284 26.5141 16.5284 25.0299C16.5284 23.5457 16.9182 22.0874 17.6599 20.8025C18.4017 19.5168 19.4688 18.4497 20.7545 17.7079C22.0394 16.9655 23.4977 16.575 24.9819 16.5757Z" fill="url(#paint2_linear_439_2475)"/>
</g>
<defs>
<linearGradient id="paint0_linear_439_2475" x1="26.8119" y1="40.8777" x2="12.172" y2="15.5207" gradientUnits="userSpaceOnUse">
<stop stop-color="#1E8E3E"/>
<stop offset="1" stop-color="#34A853"/>
</linearGradient>
<linearGradient id="paint1_linear_439_2475" x1="22.5158" y1="41.9778" x2="37.1557" y2="16.6209" gradientUnits="userSpaceOnUse">
<stop stop-color="#FCC934"/>
<stop offset="1" stop-color="#FBBC04"/>
</linearGradient>
<linearGradient id="paint2_linear_439_2475" x1="10.3412" y1="18.6894" x2="39.621" y2="18.6894" gradientUnits="userSpaceOnUse">
<stop stop-color="#D93025"/>
<stop offset="1" stop-color="#EA4335"/>
</linearGradient>
<clipPath id="clip0_439_2475">
<rect width="34" height="34" fill="white" transform="translate(8 8)"/>
</clipPath>
</defs>
</svg>
