<svg width="50" height="50" viewBox="0 0 50 50" fill="none" xmlns="http://www.w3.org/2000/svg">
<g clip-path="url(#clip0_466_2350)">
<path fill-rule="evenodd" clip-rule="evenodd" d="M24.9493 8C15.5768 8 8 15.5625 8 24.9183C8 32.397 12.8547 38.7275 19.5895 40.968C20.4315 41.1365 20.7399 40.604 20.7399 40.1561C20.7399 39.7639 20.7122 38.4195 20.7122 37.0187C15.9973 38.0272 15.0154 35.0019 15.0154 35.0019C14.2577 33.0412 13.135 32.5372 13.135 32.5372C11.5919 31.5008 13.2474 31.5008 13.2474 31.5008C14.9592 31.6129 15.8575 33.2374 15.8575 33.2374C17.3726 35.8142 19.814 35.0861 20.7961 34.6379C20.9363 33.5454 21.3856 32.7892 21.8626 32.3691C18.1022 31.9769 14.1457 30.5204 14.1457 24.0218C14.1457 22.1732 14.8187 20.6607 15.8852 19.4843C15.717 19.0643 15.1275 17.3273 16.0538 15.0025C16.0538 15.0025 17.485 14.5543 20.7118 16.7392C22.0934 16.3688 23.5181 16.1804 24.9493 16.1788C26.3805 16.1788 27.8393 16.3751 29.1865 16.7392C32.4137 14.5543 33.8449 15.0025 33.8449 15.0025C34.7712 17.3273 34.1814 19.0643 34.0131 19.4843C35.1077 20.6607 35.753 22.1732 35.753 24.0218C35.753 30.5204 31.7965 31.9487 28.008 32.3691C28.6255 32.9012 29.1584 33.9095 29.1584 35.5062C29.1584 37.7749 29.1307 39.5958 29.1307 40.1557C29.1307 40.604 29.4394 41.1365 30.2811 40.9684C37.0159 38.7271 41.8706 32.397 41.8706 24.9183C41.8983 15.5625 34.2938 8 24.9493 8Z" fill="white"/>
</g>
<defs>
<clipPath id="clip0_466_2350">
<rect width="34" height="33" fill="white" transform="translate(8 8)"/>
</clipPath>
</defs>
</svg>
