<svg width="50" height="50" viewBox="0 0 50 50" fill="none" xmlns="http://www.w3.org/2000/svg">
<g clip-path="url(#clip0_352_7522)">
<path d="M40.964 11.1154C42.631 11.1154 43.9951 12.4794 43.9951 14.1465V15.0252L39.7839 18.0333L25.4471 27.9093L11.1102 17.9331V37.8846H10.0311C8.36406 37.8846 7 36.5206 7 34.8535V14.1473C7 12.4802 8.36406 11.1162 10.0311 11.1162L25.4471 22.5459L40.9631 11.1162L40.964 11.1154Z" fill="#E75A4D"/>
<path d="M10.0312 11.1154L25.4472 22.5451L40.9641 11.1154H10.0312Z" fill="url(#paint0_linear_352_7522)"/>
<path d="M11.1104 17.9331V37.8846H39.7849V18.0333L25.4472 27.9093L11.1104 17.9331Z" fill="#E7E4D7"/>
<path d="M11.1104 37.8846L25.4472 27.9093L25.3823 27.8633L11.1104 37.6654V37.8846Z" fill="#B8B7AE"/>
<path d="M39.7849 18.0333L39.7931 37.8846L25.4473 27.9093L39.7849 18.0333Z" fill="#B7B6AD"/>
<path d="M43.9951 15.0252L44 34.856C43.9277 37.0601 42.9726 37.8468 39.7929 37.8838L39.7847 18.0325L43.9959 15.0244L43.9951 15.0252Z" fill="#B2392F"/>
<path d="M10.0312 11.1154L25.4472 22.5451L40.9641 11.1154H10.0312Z" fill="url(#paint1_linear_352_7522)"/>
<path d="M10.0312 11.1154L25.4472 22.5451L40.9641 11.1154H10.0312Z" fill="url(#paint2_linear_352_7522)"/>
<path d="M10.0312 11.1154L25.4472 22.5451L40.9641 11.1154H10.0312Z" fill="url(#paint3_linear_352_7522)"/>
<path d="M10.0312 11.1154L25.4472 22.5451L40.9641 11.1154H10.0312Z" fill="url(#paint4_linear_352_7522)"/>
<path d="M10.0312 11.1154L25.4472 22.5451L40.9641 11.1154H10.0312Z" fill="url(#paint5_linear_352_7522)"/>
<path d="M10.0312 11.1154L25.4472 22.5451L40.9641 11.1154H10.0312Z" fill="url(#paint6_linear_352_7522)"/>
<path d="M10.0312 11.1154L25.4472 22.5451L40.9641 11.1154H10.0312Z" fill="url(#paint7_linear_352_7522)"/>
<path d="M10.0312 11.1154L25.4472 22.5451L40.9641 11.1154H10.0312Z" fill="#F7F5ED"/>
</g>
<defs>
<linearGradient id="paint0_linear_352_7522" x1="15.5967" y1="16.8312" x2="35.361" y2="16.8312" gradientUnits="userSpaceOnUse">
<stop stop-color="#F8F6EF"/>
<stop offset="1" stop-color="#E7E4D6"/>
</linearGradient>
<linearGradient id="paint1_linear_352_7522" x1="15.5967" y1="16.8312" x2="35.361" y2="16.8312" gradientUnits="userSpaceOnUse">
<stop stop-color="#F8F6EF"/>
<stop offset="1" stop-color="#E7E4D6"/>
</linearGradient>
<linearGradient id="paint2_linear_352_7522" x1="15.5967" y1="16.8312" x2="35.361" y2="16.8312" gradientUnits="userSpaceOnUse">
<stop stop-color="#F8F6EF"/>
<stop offset="1" stop-color="#E7E4D6"/>
</linearGradient>
<linearGradient id="paint3_linear_352_7522" x1="15.5967" y1="16.8312" x2="35.361" y2="16.8312" gradientUnits="userSpaceOnUse">
<stop stop-color="#F8F6EF"/>
<stop offset="1" stop-color="#E7E4D6"/>
</linearGradient>
<linearGradient id="paint4_linear_352_7522" x1="15.5967" y1="16.8312" x2="35.361" y2="16.8312" gradientUnits="userSpaceOnUse">
<stop stop-color="#F8F6EF"/>
<stop offset="1" stop-color="#E7E4D6"/>
</linearGradient>
<linearGradient id="paint5_linear_352_7522" x1="15.5967" y1="16.8312" x2="35.361" y2="16.8312" gradientUnits="userSpaceOnUse">
<stop stop-color="#F8F6EF"/>
<stop offset="1" stop-color="#E7E4D6"/>
</linearGradient>
<linearGradient id="paint6_linear_352_7522" x1="15.5967" y1="16.8312" x2="35.361" y2="16.8312" gradientUnits="userSpaceOnUse">
<stop stop-color="#F8F6EF"/>
<stop offset="1" stop-color="#E7E4D6"/>
</linearGradient>
<linearGradient id="paint7_linear_352_7522" x1="15.5967" y1="16.8312" x2="35.361" y2="16.8312" gradientUnits="userSpaceOnUse">
<stop stop-color="#F8F6EF"/>
<stop offset="1" stop-color="#E7E4D6"/>
</linearGradient>
<clipPath id="clip0_352_7522">
<rect width="37" height="37" fill="white" transform="translate(7 6)"/>
</clipPath>
</defs>
</svg>
