<svg width="50" height="50" viewBox="0 0 50 50" fill="none" xmlns="http://www.w3.org/2000/svg">
<path fill-rule="evenodd" clip-rule="evenodd" d="M44.9944 18.14H44.9516C44.9075 17.4038 44.7926 16.6753 44.609 15.9671C44.077 14.5218 43.2211 13.2572 42.1251 12.2973C41.183 11.3315 39.7269 10.6072 39.2558 11.235C38.919 11.5449 38.604 11.884 38.3137 12.249H38.2709C37.8854 12.8284 38.0996 13.0216 38.3137 13.2147C38.5278 13.4079 40.3265 14.3736 40.926 16.3051C41.2258 17.126 41.8253 19.0092 40.7547 20.1681C40.5117 20.4204 40.2377 20.6319 39.941 20.7958L39.3843 20.8924C38.228 20.9889 36.4294 19.9266 32.7464 16.1602C32.629 16.0035 32.5 15.8581 32.361 15.7257C28.7637 11.8627 24.3527 11.2832 20.7982 11.6213C18.9479 11.8261 17.1237 12.2634 15.3594 12.925C12.6186 13.939 11.3767 14.9531 12.4473 17.3191C13.1529 19.0012 13.954 20.6303 14.8455 22.1961C15.4023 23.2584 16.1303 23.693 16.9011 23.693C19.0852 23.7413 21.6547 20.6992 21.9545 20.3129C20.0274 23.5482 18.2715 24.707 16.8155 24.707C16.2422 24.685 15.683 24.5011 15.1892 24.172C14.6953 23.843 14.2827 23.3794 13.989 22.8238C13.2684 21.4543 12.6248 20.0351 12.0619 18.5746C3.36842 22.1478 5.0386 36.9719 5.29555 38.8069V39H9.92066C11.0769 32.8675 15.2738 33.109 16.0018 39H19.5135C22.5969 27.0248 29.2776 39 29.2776 39H33.2175C33.2175 32.6261 32.6179 30.2118 35.5301 29.7772C40.4549 29.0046 42.7675 26.3971 44.2664 22.4858L44.3948 22.0995L44.5233 21.7615C44.5319 21.6589 44.5612 21.5598 44.609 21.4718C44.8993 20.3927 45.0295 19.267 44.9944 18.14ZM29.7915 23.4999C27.3933 22.5824 28.2498 19.7818 28.2498 19.7818L29.92 20.4095C29.7418 20.5583 29.6009 20.7566 29.5108 20.9851C29.4207 21.2135 29.3847 21.4644 29.4061 21.7132C29.4271 21.8979 29.4805 22.0759 29.5632 22.237C29.646 22.398 29.7564 22.5389 29.888 22.6513C30.0195 22.7637 30.1697 22.8454 30.3296 22.8916C30.4895 22.9378 30.656 22.9476 30.8193 22.9204C30.9827 22.9024 31.1413 22.8479 31.286 22.7603C31.4306 22.6726 31.5584 22.5535 31.662 22.4098C31.7655 22.2661 31.8428 22.1007 31.8893 21.9231C31.9357 21.7455 31.9505 21.5593 31.9327 21.3752V21.1821L33.2175 21.665C33.089 22.5341 31.633 24.1759 29.7915 23.4999Z" fill="#02303A"/>
</svg>
