<svg width="50" height="50" viewBox="0 0 50 50" fill="none" xmlns="http://www.w3.org/2000/svg">
<g clip-path="url(#clip0_357_7687)">
<path d="M36.9 8H13.1C10.2833 8 8 10.2833 8 13.1V36.9C8 39.7167 10.2833 42 13.1 42H36.9C39.7167 42 42 39.7167 42 36.9V13.1C42 10.2833 39.7167 8 36.9 8Z" fill="#555555"/>
<path d="M35.2265 30.1797C35.2265 30.1797 34.5624 32.1055 33.2343 34.0977C32.9022 34.6953 31.3085 36.9531 29.3827 36.9531C27.9882 36.9531 27.0585 35.957 25.2655 35.957C23.0741 35.957 22.2108 36.9531 20.8163 36.9531C20.0858 37.0195 19.3554 36.6211 18.5585 35.8906C13.4452 31.043 13.1796 23.8711 15.1054 20.9492C16.3007 19.0234 18.2929 17.8281 20.4843 17.7617C22.2108 17.7617 24.0702 18.8906 24.8007 18.8906C25.3319 18.8906 28.121 17.5625 29.7147 17.6953C31.9061 17.8945 33.4335 18.6914 34.5624 20.2188C31.3085 21.8125 30.1796 27.9883 35.2265 30.1797ZM29.8476 11.7188C30.3788 13.8438 28.0546 17.8945 24.6015 17.6953C24.4022 14.8398 26.8593 11.918 29.8476 11.7188Z" fill="#BEBEBE"/>
</g>
<defs>
<clipPath id="clip0_357_7687">
<rect width="34" height="34" fill="white" transform="translate(8 8)"/>
</clipPath>
</defs>
</svg>
