<svg width="50" height="50" viewBox="0 0 50 50" fill="none" xmlns="http://www.w3.org/2000/svg">
<path d="M17.9809 36.4658C17.9809 36.4658 16.3506 37.3974 19.0988 37.7235C21.847 38.0495 24.1295 38.0495 27.8093 37.3508C28.5388 37.7842 29.3021 38.1581 30.0917 38.4688C21.8936 42.0088 11.5063 38.2824 17.9809 36.4658Z" fill="#5382A1"/>
<path d="M16.957 31.8545C16.957 31.8545 15.1404 33.2053 17.9352 33.4848C21.664 33.9413 25.443 33.7681 29.1144 32.9724C29.6224 33.4151 30.2063 33.7623 30.8379 33.9972C20.9163 36.9317 9.83029 34.2301 16.957 31.8545Z" fill="#5382A1"/>
<path d="M25.4337 24.0756C27.4367 26.4046 24.8748 28.5007 24.8748 28.5007C24.8748 28.5007 30.0452 25.8456 27.6696 22.5384C25.294 19.2313 23.8034 17.8804 32.9331 12.5703C32.9331 12.5703 18.5865 16.157 25.4337 24.0756Z" fill="#E76F00"/>
<path d="M36.2874 39.8667C36.2874 39.8667 37.4985 40.8448 34.9831 41.5901C30.232 43.0341 15.2332 43.4999 11.0876 41.6833C9.59704 41.0312 12.3918 40.0996 13.2769 39.9132C13.7501 39.8041 14.2355 39.7571 14.7208 39.7735C13.044 38.5624 3.96086 42.0559 10.1094 43.0807C26.8782 45.7823 40.6659 41.823 36.2874 39.8667Z" fill="#5382A1"/>
<path d="M18.7272 27.1035C18.7272 27.1035 11.0881 28.9201 16.0256 29.5722C18.1217 29.8517 22.2673 29.8051 26.1335 29.479C29.9996 29.153 32.4683 28.6406 32.4683 28.6406C31.8017 28.923 31.1625 29.2661 30.5586 29.6654C22.7797 31.7149 7.82753 30.7833 12.1129 28.6872C14.1626 27.6469 16.4286 27.1043 18.7272 27.1035Z" fill="#5382A1"/>
<path d="M32.421 34.7434C40.293 30.6909 36.6598 26.7316 34.1444 27.2905C33.8244 27.3231 33.5106 27.4015 33.2128 27.5234C33.3832 27.2806 33.6287 27.1005 33.9115 27.0111C38.9422 25.241 42.8083 32.228 32.2812 34.9763C32.3437 34.9093 32.3913 34.8299 32.421 34.7434Z" fill="#5382A1"/>
<path d="M27.6702 4C27.6702 4 32.0487 8.37852 23.5245 15.086C16.7239 20.4427 21.9874 23.517 23.5245 27.0571C19.5652 23.4239 16.6307 20.303 18.5871 17.3219C21.475 13.0365 29.4402 10.9404 27.6702 4Z" fill="#E76F00"/>
<path d="M19.5208 45.8759C27.0668 46.3417 38.7118 45.5964 38.9447 42.0098C38.9447 42.0098 38.4323 43.3606 32.703 44.4319C26.3747 45.5078 19.9198 45.6177 13.5586 44.758C13.5586 44.758 14.5368 45.5498 19.5208 45.8759Z" fill="#5382A1"/>
</svg>
