<svg width="50" height="50" viewBox="0 0 50 50" fill="none" xmlns="http://www.w3.org/2000/svg">
<path d="M43.667 23.9566L26.2797 6.6484L24.576 5L5.48493 23.9566C5.33164 24.1024 5.20964 24.2775 5.1263 24.4713C5.04296 24.6651 5 24.8737 5 25.0845C5 25.2952 5.04296 25.5038 5.1263 25.6976C5.20964 25.8915 5.33164 26.0665 5.48493 26.2123L17.455 38.0982L24.576 45.1689L43.667 26.2123C43.8203 26.0665 43.9423 25.8915 44.0256 25.6976C44.1089 25.5038 44.1519 25.2952 44.1519 25.0845C44.1519 24.8737 44.1089 24.6651 44.0256 24.4713C43.9423 24.2775 43.8203 24.1024 43.667 23.9566ZM24.576 31.0274L18.5909 25.0845L24.576 19.1415L30.561 25.0845L24.576 31.0274Z" fill="#2684FF"/>
<path d="M24.5764 19.1415C22.6898 17.2766 21.6257 14.7446 21.6175 12.1014C21.6093 9.45814 22.6578 6.91968 24.5327 5.04333L11.4268 18.0136L18.5477 25.1278L24.5764 19.1415Z" fill="url(#paint0_linear_349_7490)"/>
<path d="M30.5612 25.084L24.5762 31.027C25.5193 31.9511 26.2681 33.052 26.7792 34.2658C27.2903 35.4796 27.5535 36.7821 27.5535 38.0977C27.5535 39.4134 27.2903 40.7159 26.7792 41.9297C26.2681 43.1435 25.5193 44.2444 24.5762 45.1685L37.6821 32.1548L30.5612 25.084Z" fill="url(#paint1_linear_349_7490)"/>
<defs>
<linearGradient id="paint0_linear_349_7490" x1="22.1331" y1="14.6431" x2="15.3325" y2="21.4843" gradientUnits="userSpaceOnUse">
<stop stop-color="#0052CC"/>
<stop offset="1" stop-color="#2684FF"/>
</linearGradient>
<linearGradient id="paint1_linear_349_7490" x1="27.3475" y1="35.4826" x2="34.1329" y2="28.6491" gradientUnits="userSpaceOnUse">
<stop stop-color="#0052CC"/>
<stop offset="1" stop-color="#2684FF"/>
</linearGradient>
</defs>
</svg>
