<svg width="50" height="50" viewBox="0 0 50 50" fill="none" xmlns="http://www.w3.org/2000/svg">
<path d="M30.0082 9.5798H29.9737C29.9393 9.61414 29.9049 9.61414 29.836 9.68283C29.6293 9.88889 28.9061 10.8505 28.9061 10.8505L27.3219 12.8081L25.4622 15.0404L22.2938 18.9899C22.2938 18.9899 20.8474 20.8101 21.1573 23.0424C21.4673 25.2748 23.1548 26.3737 24.429 26.7859C25.7033 27.2323 27.7008 27.3697 29.3194 25.7899C30.938 24.2101 30.8692 21.8748 30.8692 21.8748L30.7314 16.8263L30.6281 13.9071L30.5592 11.4C30.5592 11.4 30.5592 10.198 30.5248 9.88889C30.5248 9.8202 30.4903 9.78586 30.4903 9.75151V9.71717C30.4559 9.64849 30.387 9.5798 30.2837 9.54545C30.2493 9.54545 30.2148 9.51111 30.1459 9.51111C30.1115 9.54545 30.0426 9.54545 30.0082 9.5798ZM24.8423 8C17.8167 8.06869 11.2733 12.5333 8.89698 19.5394C5.90077 28.4343 10.6534 38.0849 19.5387 41.1071C21.3295 41.7253 23.1548 42 24.9801 42H25.0145C32.109 42 38.6868 37.5354 41.0976 30.4606C43.5428 23.2485 40.8565 15.4869 35.0019 11.2283L35.174 14.8343C38.1014 18.0626 39.2723 22.6303 37.7914 26.9576C35.6218 33.3798 28.4584 36.7455 21.7772 34.5131C15.096 32.2465 11.4455 25.2061 13.6496 18.7838C15.096 14.4566 18.8155 11.5374 23.1203 10.7475L25.4622 8C25.3589 8 25.2556 8 25.1523 8H24.8423Z" fill="#0058CC"/>
</svg>
