<svg width="50" height="50" viewBox="0 0 50 50" fill="none" xmlns="http://www.w3.org/2000/svg">
<g clip-path="url(#clip0_440_3025)">
<path d="M38.455 14.6087C36.3998 11.9474 33.6016 9.95535 30.4142 8.88446C27.2268 7.81358 23.7934 7.71198 20.5482 8.59252C17.3031 9.47306 14.3919 11.2962 12.183 13.8313C9.97402 16.3664 8.56648 19.4997 8.13836 22.8348C7.71025 26.17 8.2808 29.5571 9.77784 32.568C11.2749 35.5788 13.6312 38.0781 16.5487 39.7497C19.4663 41.4213 22.814 42.1902 26.1686 41.9591C29.5231 41.7279 32.7338 40.5072 35.3945 38.4512C42.8213 32.7116 44.1925 22.0383 38.455 14.6087Z" fill="#FF6C37"/>
<path d="M30.7339 18.8311L23.5657 26.0561L21.54 23.9736C28.595 16.9186 29.3027 17.5561 30.7339 18.8311Z" fill="white"/>
<path d="M23.5658 26.2537C23.5023 26.2522 23.4417 26.227 23.3958 26.1831L21.3558 24.1431C21.3099 24.0955 21.2842 24.032 21.2842 23.9659C21.2842 23.8998 21.3099 23.8363 21.3558 23.7887C28.3114 16.8331 29.2608 17.1587 30.9039 18.6462C30.9597 18.6909 30.9911 18.7589 30.9889 18.8306C30.9996 18.8996 30.973 18.9703 30.9183 19.0149L23.7501 26.1836C23.6997 26.2298 23.6343 26.2543 23.5658 26.2537ZM21.8939 23.9731L23.5658 25.6449L30.3658 18.8449C30.131 18.5507 29.796 18.3533 29.4248 18.2906C29.0536 18.2279 28.6724 18.3042 28.3539 18.5049C27.1214 19.0574 25.1383 20.7431 21.8939 23.9731Z" fill="#FF6C37"/>
<path d="M25.62 28.0536L23.665 26.0561L30.8332 18.9724C32.76 20.8568 29.8982 24.0023 25.62 28.0536Z" fill="white"/>
<path d="M25.6201 28.3087C25.5574 28.3037 25.4979 28.2789 25.4501 28.238L23.4526 26.283C23.4227 26.2103 23.4227 26.1288 23.4526 26.0562C23.4314 25.9967 23.4314 25.9313 23.4526 25.8718L30.6208 18.7037C30.7244 18.6064 30.8854 18.6064 30.989 18.7037C31.4591 19.1361 31.7168 19.7513 31.6971 20.3893C31.6971 22.3018 29.5153 24.71 25.804 28.2237C25.7544 28.2727 25.6897 28.3028 25.6201 28.3087ZM24.0333 26.0562L25.634 27.6563C28.4671 24.9788 31.1733 22.2163 31.1871 20.3463C31.2025 19.9498 31.0715 19.5616 30.819 19.2556L24.0333 26.0562Z" fill="#FF6C37"/>
<path d="M21.5964 24.0161L23.0133 25.433C23.0223 25.441 23.0296 25.4508 23.0345 25.4618C23.0395 25.4727 23.042 25.4847 23.042 25.4967C23.042 25.5088 23.0395 25.5207 23.0345 25.5317C23.0296 25.5427 23.0223 25.5525 23.0133 25.5605L20.0239 26.198C19.9001 26.2245 19.7742 26.165 19.7147 26.0535C19.6552 25.9419 19.6775 25.8038 19.7689 25.7161L21.5114 23.988C21.5114 23.988 21.5683 23.988 21.5964 24.0161Z" fill="white"/>
<path d="M19.9531 26.4811C19.8586 26.48 19.766 26.4546 19.6842 26.4074C19.6023 26.3603 19.534 26.2929 19.4856 26.2118C19.374 26.0009 19.4138 25.7411 19.5849 25.5743L21.3131 23.8318C21.3754 23.7761 21.456 23.7453 21.5396 23.7453C21.6232 23.7453 21.7039 23.7761 21.7662 23.8318L23.1831 25.2486C23.267 25.3283 23.2999 25.4489 23.2681 25.5605C23.2362 25.6721 23.1427 25.7608 23.0274 25.7873L20.0381 26.4248L19.9531 26.4811ZM21.5399 24.328L19.9392 25.9286L22.5886 25.3618L21.5399 24.328Z" fill="#FF6C37"/>
<path d="M34.545 14.8499C33.5197 13.8607 31.909 13.8193 30.8337 14.7527C29.7585 15.6861 29.5746 17.2884 30.4119 18.4412C31.2491 19.594 32.8275 19.917 34.0494 19.1849L32.1225 17.2581L34.545 14.8499Z" fill="white"/>
<path d="M32.6324 19.8363C32.0433 19.8287 31.4695 19.648 30.9824 19.3166C30.4953 18.9852 30.1165 18.5178 29.8932 17.9726C29.4364 16.8581 29.6892 15.5788 30.5307 14.7225C31.0979 14.1657 31.861 13.8538 32.6557 13.8538C33.4505 13.8538 34.2136 14.1657 34.7807 14.7225C34.8349 14.7681 34.8657 14.8356 34.8657 14.9068C34.8656 14.9418 34.858 14.9764 34.8433 15.0082C34.8286 15.04 34.8073 15.0683 34.7807 15.0911L32.4857 17.2586L34.2282 18.973C34.2565 18.9999 34.2777 19.0334 34.29 19.0704C34.3023 19.1075 34.3054 19.147 34.2989 19.1855C34.2947 19.2226 34.2824 19.2584 34.2628 19.2902C34.2433 19.3221 34.217 19.3493 34.1857 19.3698C33.7176 19.6624 33.1795 19.8239 32.6276 19.8373L32.6324 19.8363ZM32.6324 14.3394C31.623 14.3447 30.7199 14.952 30.3411 15.88C29.9623 16.8081 30.1684 17.8765 30.8761 18.5894C31.5964 19.3135 32.6823 19.5218 33.6242 19.1138L31.9524 17.4419C31.8966 17.3973 31.8652 17.3293 31.8674 17.2576C31.8695 17.1912 31.9003 17.129 31.9524 17.0876L34.1624 14.8632C33.723 14.5264 33.1859 14.3431 32.6324 14.3394Z" fill="#FF6C37"/>
<path d="M34.5875 14.8925L32.165 17.3006L34.0919 19.2275C34.2858 19.1161 34.4664 18.983 34.63 18.8306C35.6798 17.715 35.6607 15.9789 34.5875 14.8925Z" fill="white"/>
<path d="M34.0486 19.4399C34.0168 19.4417 33.985 19.4362 33.9556 19.424C33.9262 19.4117 33.8999 19.3931 33.8786 19.3693L31.9518 17.4424C31.896 17.3978 31.8647 17.3298 31.8668 17.2581C31.8689 17.1917 31.8997 17.1295 31.9518 17.0881L34.36 14.7224C34.3832 14.6874 34.4148 14.6586 34.4519 14.6387C34.489 14.6188 34.5304 14.6084 34.5725 14.6084C34.6145 14.6084 34.656 14.6188 34.693 14.6387C34.7301 14.6586 34.7617 14.6874 34.785 14.7224C35.0677 14.9994 35.2923 15.3301 35.4456 15.6949C35.5989 16.0598 35.6779 16.4516 35.6779 16.8474C35.6779 17.2432 35.5989 17.635 35.4456 17.9999C35.2923 18.3648 35.0677 18.6954 34.785 18.9724C34.6182 19.1493 34.4274 19.3019 34.2181 19.4256C34.1654 19.4522 34.105 19.4573 34.0486 19.4399ZM32.4905 17.2586L34.0911 18.8593C34.2013 18.7821 34.3055 18.6969 34.403 18.6043C34.8735 18.135 35.1386 17.4982 35.1398 16.8336C35.1409 16.2389 34.9241 15.6644 34.5305 15.2186L32.4905 17.2586Z" fill="#FF6C37"/>
<path d="M31.0311 19.1286C30.6326 18.7546 30.0127 18.7546 29.6142 19.1286L23.1973 25.5313L24.2598 26.6081L31.0454 20.6581C31.2553 20.4578 31.3727 20.18 31.3695 19.8899C31.3663 19.5999 31.2441 19.3247 31.0311 19.1286Z" fill="white"/>
<path d="M24.2032 26.8636C24.1397 26.8621 24.0791 26.8369 24.0332 26.793L22.9564 25.7161C22.9104 25.6686 22.8848 25.6051 22.8848 25.539C22.8848 25.4729 22.9104 25.4093 22.9564 25.3618L29.3739 18.9725C29.8828 18.4646 30.7073 18.4646 31.2157 18.9725C31.4707 19.2275 31.6088 19.5754 31.5982 19.9356C31.5833 20.2937 31.425 20.6305 31.1589 20.8706L24.3732 26.8206C24.3238 26.8557 24.2632 26.8711 24.2032 26.8636ZM23.4526 25.5313L24.1607 26.2538L30.8189 20.4594C30.9836 20.316 31.0818 20.1109 31.0882 19.8926C31.0946 19.6742 31.0085 19.4607 30.8476 19.3119C30.5378 19.0038 30.0379 19.0038 29.7282 19.3119L23.4526 25.5313Z" fill="#FF6C37"/>
<path d="M18.225 32.8274C18.2069 32.8521 18.1971 32.8819 18.1971 32.9124C18.1971 32.943 18.2069 32.9728 18.225 32.9974L18.5082 34.2299C18.5326 34.3771 18.462 34.5237 18.3318 34.6018C18.2687 34.6387 18.1955 34.6547 18.1227 34.6473C18.05 34.64 17.9814 34.6097 17.927 34.5609L15.9863 32.6909L22.0357 26.5938H24.1325L25.5494 28.0106C23.3392 29.943 20.8749 31.5636 18.225 32.8274Z" fill="white"/>
<path d="M18.0977 34.9099C17.9373 34.9068 17.7789 34.8409 17.6727 34.7256L15.817 32.8699C15.7613 32.8253 15.7299 32.7573 15.732 32.6856C15.7342 32.6192 15.765 32.557 15.817 32.5156L21.9083 26.4099C21.9425 26.3737 21.987 26.349 22.0358 26.3393H24.1465C24.2015 26.3198 24.2615 26.3198 24.3165 26.3393L25.7333 27.7561C25.7881 27.8066 25.8146 27.881 25.804 27.9543C25.805 27.9895 25.7978 28.0244 25.7831 28.0564C25.7684 28.0884 25.7464 28.1165 25.719 28.1386L25.6058 28.238C23.3868 30.088 20.9454 31.6536 18.3383 32.8986L18.6077 34.0461C18.6285 34.1347 18.6293 34.2267 18.61 34.3156C18.5907 34.4044 18.5519 34.4879 18.4962 34.5598C18.4406 34.6317 18.3696 34.6903 18.2884 34.7313C18.2072 34.7723 18.1179 34.7947 18.027 34.7968L18.0977 34.9099ZM16.3695 32.6856L18.0408 34.3713C18.0564 34.3851 18.0766 34.3928 18.0974 34.3928C18.1183 34.3928 18.1384 34.3851 18.154 34.3713C18.1644 34.3568 18.17 34.3394 18.17 34.3216C18.17 34.3038 18.1644 34.2864 18.154 34.2719L17.8708 33.0394C17.8252 32.8572 17.9133 32.6675 18.0833 32.5863C20.6203 31.3579 22.9987 29.826 25.1665 28.0244L24.0047 26.8626H22.1065L16.3695 32.6856Z" fill="#FF6C37"/>
<path d="M14.5276 34.1449L15.9445 32.7281L18.1263 34.9099L14.6557 34.6693C14.5335 34.6602 14.4299 34.5736 14.4007 34.4536C14.3715 34.3335 14.423 34.2092 14.5282 34.1455L14.5276 34.1449Z" fill="white"/>
<path d="M18.1679 35.1225L14.7111 34.8818C14.506 34.8627 14.3296 34.7224 14.2574 34.5349C14.1851 34.3474 14.2292 34.1248 14.3711 33.975L15.7879 32.5581C15.8354 32.5122 15.899 32.4865 15.9651 32.4865C16.0312 32.4865 16.0947 32.5122 16.1422 32.5581L18.3097 34.7256C18.3714 34.8106 18.3714 34.9243 18.3097 35.0088C18.2768 35.0619 18.2269 35.1023 18.1679 35.1225ZM14.7111 34.3293L17.5442 34.5136L15.9861 33.0543L14.7111 34.3293Z" fill="#FF6C37"/>
<path d="M24.3306 26.7648L21.4688 27.2041L23.1262 25.561L24.3306 26.7648Z" fill="white"/>
<path d="M21.4686 27.4724C21.3714 27.4751 21.2827 27.4193 21.2417 27.3306C21.2116 27.2895 21.1953 27.2399 21.1953 27.189C21.1953 27.1381 21.2116 27.0885 21.2417 27.0474L22.8849 25.3899C22.9885 25.2927 23.1495 25.2927 23.2531 25.3899L24.4579 26.5937C24.482 26.6319 24.4948 26.6761 24.4948 26.7212C24.4948 26.7664 24.482 26.8106 24.4579 26.8487C24.4461 26.8953 24.4211 26.9374 24.386 26.9701C24.3509 27.0028 24.307 27.0247 24.2598 27.0331L21.4266 27.4724H21.4686ZM23.1261 25.9281L22.2054 26.8487L23.7923 26.6081L23.1261 25.9281Z" fill="#FF6C37"/>
<path d="M24.3304 26.7637L22.3329 27.0187C22.2795 27.0309 22.2235 27.0254 22.1734 27.0033C22.1233 26.9811 22.0816 26.9434 22.0546 26.8957C22.0276 26.848 22.0167 26.7929 22.0234 26.7385C22.0302 26.6841 22.0544 26.6333 22.0923 26.5937L23.1266 25.5594L24.3304 26.7637Z" fill="white"/>
<path d="M22.2761 27.2886C22.0875 27.287 21.9148 27.184 21.8229 27.0193C21.7688 26.9223 21.7479 26.8103 21.7632 26.7004C21.7785 26.5904 21.8294 26.4884 21.9079 26.4099L22.9423 25.3756C23.0459 25.2784 23.2068 25.2784 23.3104 25.3756L24.5148 26.5799C24.5506 26.6139 24.5758 26.6575 24.5873 26.7054C24.5989 26.7534 24.5962 26.8037 24.5797 26.8502C24.5633 26.8967 24.5337 26.9374 24.4945 26.9675C24.4553 26.9975 24.4083 27.0155 24.3591 27.0193L22.376 27.2743L22.2761 27.2886ZM22.2761 26.7643L23.7779 26.5799L23.1123 25.9143L22.2623 26.7643H22.2761ZM34.6011 16.5218C34.5744 16.4771 34.5322 16.4437 34.4826 16.4281C34.4329 16.4124 34.3792 16.4155 34.3317 16.4368C34.3083 16.4487 34.2875 16.4651 34.2705 16.4852C34.2535 16.5053 34.2407 16.5286 34.2329 16.5537C34.217 16.6041 34.2223 16.6588 34.2467 16.7061C34.3461 16.9149 34.3185 17.1619 34.1761 17.3436C34.1389 17.3787 34.123 17.427 34.123 17.478C34.1235 17.5279 34.1424 17.5757 34.1761 17.6124C34.2124 17.6268 34.2529 17.6268 34.2892 17.6124C34.3222 17.6207 34.3569 17.6198 34.3894 17.6098C34.4219 17.5998 34.451 17.581 34.4736 17.5556C34.5902 17.4128 34.6641 17.2399 34.6867 17.0568C34.7092 16.8738 34.6796 16.6887 34.6011 16.5218Z" fill="#FF6C37"/>
</g>
<defs>
<clipPath id="clip0_440_3025">
<rect width="34" height="34" fill="white" transform="translate(8 8)"/>
</clipPath>
</defs>
</svg>
