<svg width="50" height="50" viewBox="0 0 50 50" fill="none" xmlns="http://www.w3.org/2000/svg">
<path d="M22.5101 7C21.7688 7 21.119 7.51554 20.9726 8.24463L20.6309 9.97734C18.2088 10.679 16.0002 11.9511 14.1882 13.6868L12.5287 13.1255C11.824 12.8906 11.0461 13.1926 10.6739 13.8332L8.20907 18.1284C7.83996 18.7721 7.96808 19.5927 8.52633 20.0808L9.84417 21.2522C9.53912 22.4938 9.38049 23.7323 9.38049 24.9617C9.38049 26.188 9.53912 27.4296 9.84417 28.6711L8.52633 29.8426C7.96808 30.3307 7.83996 31.1512 8.20907 31.7949L10.6739 36.0901C11.043 36.7338 11.824 37.0388 12.5287 36.7978L14.1882 36.2365C16.0002 37.9753 18.2118 39.2444 20.6309 39.946L20.9726 41.6787C21.119 42.4048 21.7688 42.9233 22.5101 42.9233H27.4886C28.2299 42.9233 28.8796 42.4078 29.0261 41.6787L29.3677 39.946C31.7899 39.2444 33.9985 37.9753 35.8105 36.2365L37.47 36.7978C38.1747 37.0358 38.9282 36.7307 39.3003 36.0901L41.7896 31.7949C42.1618 31.1512 42.0306 30.3307 41.4723 29.8426L40.1545 28.6711C40.4595 27.4296 40.6182 26.191 40.6182 24.9617C40.6182 23.7323 40.4595 22.4938 40.1545 21.2522L41.4723 20.0808C42.0306 19.5896 42.1618 18.7721 41.7896 18.1284L39.3247 13.8332C38.9526 13.1896 38.1716 12.8876 37.47 13.1255L35.8105 13.6868C33.9985 11.9511 31.7899 10.679 29.3677 9.97734L29.0261 8.24463C28.8796 7.51554 28.2299 7 27.4886 7H22.5101ZM18.3613 19.4951C18.703 19.4951 19.0172 19.7269 19.1179 20.0564L21.8512 28.9396C21.8725 29.0128 21.8756 29.1043 21.8756 29.1836V29.6473C21.8756 30.0805 21.5247 30.4283 21.0946 30.4283C20.6645 30.4283 20.3137 30.0805 20.3137 29.6473V29.2813L19.9476 28.0854H16.775L16.409 29.2813V29.6473C16.409 30.0805 16.0582 30.4283 15.628 30.4283C15.1979 30.4283 14.8471 30.0805 14.8471 29.6473V29.1836C14.8471 29.1043 14.8501 29.0159 14.8715 28.9396L17.6048 20.0564C17.7055 19.7269 18.0197 19.4951 18.3613 19.4951ZM24.2184 19.4951H27.3422C28.6325 19.4951 29.685 20.5475 29.685 21.8379V24.1807C29.685 25.4711 28.6325 26.5236 27.3422 26.5236H24.9993V29.6473C24.9993 30.0805 24.6485 30.4283 24.2184 30.4283C23.7883 30.4283 23.4374 30.0805 23.4374 29.6473V20.276C23.4374 19.8459 23.7883 19.4951 24.2184 19.4951ZM32.0278 19.4951H33.5897C34.0229 19.4951 34.3706 19.8459 34.3706 20.276C34.3706 20.7061 34.0229 21.057 33.5897 21.057V28.8664C34.0229 28.8664 34.3706 29.2141 34.3706 29.6473C34.3706 30.0805 34.0229 30.4283 33.5897 30.4283H32.0278C31.5946 30.4283 31.2469 30.0805 31.2469 29.6473C31.2469 29.2141 31.5946 28.8664 32.0278 28.8664V21.057C31.5946 21.057 31.2469 20.7061 31.2469 20.276C31.2469 19.8459 31.5946 19.4951 32.0278 19.4951ZM24.9993 21.057V24.9617H27.3422C27.7723 24.9617 28.1231 24.6109 28.1231 24.1807V21.8379C28.1231 21.4078 27.7723 21.057 27.3422 21.057H24.9993ZM18.3613 22.9361L17.2631 26.5236H19.4595L18.3613 22.9361Z" fill="#3BA0D9"/>
</svg>
