<svg width="50" height="50" viewBox="0 0 50 50" fill="none" xmlns="http://www.w3.org/2000/svg">
<g filter="url(#filter0_d_439_2532)">
<path d="M25 42C34.3888 42 42 34.3888 42 25C42 15.6112 34.3888 8 25 8C15.6112 8 8 15.6112 8 25C8 34.3888 15.6112 42 25 42Z" fill="url(#paint0_linear_439_2532)"/>
</g>
<path d="M24.9999 40.725C33.6846 40.725 40.7249 33.6846 40.7249 25C40.7249 16.3153 33.6846 9.27496 24.9999 9.27496C16.3152 9.27496 9.2749 16.3153 9.2749 25C9.2749 33.6846 16.3152 40.725 24.9999 40.725Z" fill="url(#paint1_radial_439_2532)"/>
<path d="M25.0269 13.1C24.9206 13.1 24.8276 13.0203 24.8276 12.9141V10.1383C24.8276 10.032 24.9206 9.95233 25.0269 9.95233C25.1331 9.95233 25.2261 10.032 25.2261 10.1383V12.9141C25.2128 13.0203 25.1331 13.1 25.0269 13.1Z" fill="#F3F3F3"/>
<path d="M25.0265 13.1132C24.9069 13.1132 24.814 13.0203 24.814 12.914V10.1382C24.814 10.032 24.9069 9.93903 25.0265 9.93903C25.146 9.93903 25.239 10.032 25.239 10.1382V12.914C25.239 13.0203 25.1327 13.1132 25.0265 13.1132ZM25.0265 9.96559C24.9335 9.96559 24.8405 10.0453 24.8405 10.1382V12.914C24.8405 13.007 24.9202 13.0867 25.0265 13.0867C25.1194 13.0867 25.2124 13.007 25.2124 12.914V10.1382C25.1991 10.0453 25.1194 9.96559 25.0265 9.96559Z" fill="white"/>
<path d="M26.3544 11.6125C26.2481 11.5992 26.1685 11.5195 26.1685 11.4133L26.2614 10.1781C26.2747 10.0719 26.3677 9.9922 26.4739 10.0055C26.5802 10.0188 26.6599 10.0984 26.6599 10.2047L26.5669 11.4399C26.5536 11.5461 26.4606 11.6258 26.3544 11.6125Z" fill="#F3F3F3"/>
<path d="M26.355 11.6257C26.2354 11.6124 26.1558 11.5195 26.1558 11.4132L26.2487 10.1781C26.262 10.0718 26.355 9.97883 26.4745 9.99211C26.594 10.0054 26.6737 10.0984 26.6737 10.2046L26.5808 11.4398C26.5675 11.5593 26.4745 11.639 26.355 11.6257ZM26.4745 10.0187C26.3815 10.0187 26.2886 10.0851 26.2886 10.1781L26.1956 11.4132C26.1956 11.5062 26.262 11.5859 26.3683 11.5991C26.4612 11.5991 26.5542 11.5327 26.5542 11.4398L26.6472 10.2046C26.6472 10.1116 26.5675 10.032 26.4745 10.0187Z" fill="white"/>
<path d="M27.351 13.339C27.2448 13.3125 27.1783 13.2195 27.1916 13.1133L27.7362 10.3906C27.7627 10.2843 27.8557 10.2179 27.9619 10.2445C28.0682 10.2711 28.1346 10.364 28.1213 10.4703L27.5768 13.1929C27.5635 13.2859 27.4573 13.3523 27.351 13.339Z" fill="#F3F3F3"/>
<path d="M27.3506 13.3523C27.2311 13.3258 27.1647 13.2195 27.1779 13.1133L27.7225 10.3906C27.749 10.2843 27.8553 10.2047 27.9748 10.2312C28.0944 10.2578 28.1608 10.364 28.1475 10.4703L27.6029 13.1929C27.5764 13.2992 27.4701 13.3656 27.3506 13.3523ZM27.9748 10.2578C27.8819 10.2445 27.7889 10.2976 27.7623 10.3906L27.2178 13.1133C27.2045 13.2062 27.2576 13.2992 27.3639 13.3258C27.4569 13.339 27.5498 13.2859 27.5764 13.1929L28.1209 10.4703C28.1342 10.364 28.0678 10.2843 27.9748 10.2578Z" fill="white"/>
<path d="M28.9444 12.1437C28.8382 12.1172 28.7718 12.0109 28.7983 11.9047L29.1304 10.7093C29.1569 10.6031 29.2632 10.55 29.3694 10.5765C29.4757 10.6031 29.5421 10.7093 29.5155 10.8156L29.1835 12.0109C29.1569 12.1172 29.0507 12.1703 28.9444 12.1437Z" fill="#F3F3F3"/>
<path d="M28.9446 12.157C28.8384 12.1304 28.7587 12.0109 28.7985 11.9046L29.1306 10.7093C29.1571 10.6031 29.2767 10.5367 29.3829 10.5632C29.4892 10.5898 29.5688 10.7093 29.529 10.8156L29.197 12.0109C29.1704 12.1171 29.0642 12.1835 28.9446 12.157ZM29.3829 10.6031C29.2899 10.5765 29.1837 10.6296 29.1571 10.7226L28.8251 11.9179C28.7985 12.0109 28.8516 12.1039 28.9579 12.1304C29.0509 12.157 29.1571 12.1039 29.1837 12.0109L29.5157 10.8156C29.529 10.7226 29.4759 10.6296 29.3829 10.6031Z" fill="white"/>
<path d="M29.595 14.0164C29.4888 13.9765 29.4489 13.857 29.4888 13.764L30.5513 11.2007C30.5911 11.1078 30.7107 11.0546 30.8036 11.1078C30.9099 11.1476 30.9497 11.2671 30.9099 11.3601L29.8474 13.9234C29.8075 14.0164 29.688 14.0695 29.595 14.0164Z" fill="#F3F3F3"/>
<path d="M29.5957 14.0297C29.4894 13.9898 29.4363 13.8703 29.4761 13.764L30.5386 11.2008C30.5785 11.0945 30.698 11.0547 30.8175 11.0945C30.9238 11.1343 30.9769 11.2539 30.9371 11.3601L29.8746 13.9234C29.8214 14.0297 29.7019 14.0828 29.5957 14.0297ZM30.8042 11.1211C30.7113 11.0812 30.605 11.1211 30.5652 11.214L29.5027 13.7773C29.4628 13.8703 29.516 13.9633 29.6089 14.0031C29.7019 14.0429 29.8081 14.0031 29.848 13.9101L30.9105 11.3468C30.9371 11.2672 30.8972 11.1609 30.8042 11.1211Z" fill="white"/>
<path d="M31.3881 13.1664C31.2952 13.1132 31.2553 13.007 31.2952 12.914L31.853 11.8117C31.9061 11.7187 32.0124 11.6789 32.1186 11.732C32.2116 11.7851 32.2514 11.8914 32.2116 11.9843L31.6538 13.0867C31.6006 13.1796 31.4944 13.2195 31.3881 13.1664Z" fill="#F3F3F3"/>
<path d="M31.3884 13.1797C31.2821 13.1265 31.2423 13.007 31.2954 12.9007L31.8532 11.7984C31.9063 11.6922 32.0259 11.6523 32.1321 11.7054C32.2384 11.7586 32.2782 11.8781 32.2251 11.9843L31.6673 13.0867C31.6142 13.1929 31.4946 13.2328 31.3884 13.1797ZM32.1188 11.732C32.0259 11.6922 31.9196 11.7187 31.8798 11.8117L31.322 12.914C31.2821 12.9937 31.322 13.1 31.4017 13.1531C31.4946 13.1929 31.6009 13.1664 31.6407 13.0734L32.1985 11.9711C32.2384 11.8914 32.1985 11.7851 32.1188 11.732Z" fill="white"/>
<path d="M31.6535 15.132C31.5605 15.0656 31.534 14.9461 31.6004 14.8664L33.141 12.5688C33.1941 12.4758 33.3136 12.4625 33.4066 12.5156C33.4996 12.582 33.5261 12.7016 33.4597 12.7813L31.9191 15.0789C31.866 15.1719 31.7465 15.1984 31.6535 15.132Z" fill="#F3F3F3"/>
<path d="M31.654 15.1453C31.5611 15.0789 31.5345 14.9461 31.5876 14.8531L33.1282 12.5555C33.1947 12.4625 33.3142 12.4359 33.4204 12.5023C33.5134 12.5687 33.54 12.7016 33.4868 12.7945L31.9462 15.0922C31.8798 15.1852 31.747 15.2117 31.654 15.1453ZM33.4072 12.5289C33.3275 12.4758 33.2079 12.4891 33.1548 12.5687L31.6142 14.8664C31.5611 14.9461 31.5876 15.0523 31.6673 15.1055C31.747 15.1586 31.8665 15.1453 31.9197 15.0656L33.4603 12.7812C33.5134 12.7016 33.4868 12.582 33.4072 12.5289Z" fill="white"/>
<path d="M33.5931 14.6405C33.5134 14.5741 33.4869 14.4546 33.5533 14.3749L34.3236 13.4054C34.39 13.3257 34.5095 13.3124 34.5892 13.3788C34.6689 13.4452 34.6954 13.5648 34.629 13.6444L33.8587 14.614C33.7923 14.6937 33.6728 14.7069 33.5931 14.6405Z" fill="#F3F3F3"/>
<path d="M33.5799 14.6538C33.4869 14.5874 33.4736 14.4546 33.54 14.3617L34.3104 13.3921C34.3768 13.2992 34.5096 13.2859 34.6025 13.3656C34.6955 13.432 34.7088 13.5648 34.6424 13.6577L33.8721 14.6273C33.8057 14.7202 33.6729 14.7335 33.5799 14.6538ZM34.576 13.3921C34.4963 13.3257 34.39 13.339 34.3236 13.4187L33.5533 14.3882C33.5002 14.4679 33.5135 14.5742 33.5932 14.6406C33.6729 14.707 33.7791 14.6937 33.8455 14.614L34.6158 13.6445C34.6689 13.5648 34.6557 13.4452 34.576 13.3921Z" fill="white"/>
<path d="M33.4602 16.6328C33.3805 16.5531 33.3805 16.4336 33.4602 16.3672L35.4258 14.4148C35.5055 14.3351 35.625 14.3484 35.6914 14.4148C35.7578 14.4812 35.7711 14.614 35.6914 14.6804L33.7391 16.6328C33.6594 16.7125 33.5398 16.7125 33.4602 16.6328Z" fill="#F3F3F3"/>
<path d="M33.447 16.6461C33.3673 16.5664 33.3673 16.4336 33.447 16.3539L35.4126 14.4016C35.4923 14.3219 35.6251 14.3219 35.7048 14.4016C35.7845 14.4813 35.7845 14.6141 35.7048 14.6938L33.7392 16.6461C33.6595 16.7258 33.5267 16.7258 33.447 16.6461ZM35.6915 14.4148C35.6251 14.3484 35.5056 14.3484 35.4392 14.4148L33.4735 16.3672C33.4071 16.4336 33.4071 16.5531 33.4735 16.6195C33.5399 16.6859 33.6595 16.6859 33.7259 16.6195L35.6915 14.6672C35.7579 14.6008 35.7579 14.4945 35.6915 14.4148Z" fill="white"/>
<path d="M35.4526 16.5265C35.3861 16.4468 35.3861 16.3273 35.4658 16.2609L36.4088 15.464C36.4885 15.3976 36.608 15.4109 36.6744 15.4906C36.7408 15.5703 36.7408 15.6898 36.6611 15.7562L35.7182 16.5531C35.6385 16.6195 35.519 16.6062 35.4526 16.5265Z" fill="#F3F3F3"/>
<path d="M35.4393 16.5398C35.3596 16.4469 35.3729 16.314 35.4526 16.2476L36.3955 15.4508C36.4752 15.3711 36.608 15.3844 36.6877 15.4773C36.7674 15.5703 36.7541 15.7031 36.6744 15.7695L35.7315 16.5664C35.6518 16.6461 35.519 16.6328 35.4393 16.5398ZM36.6612 15.4906C36.5947 15.4109 36.4885 15.4109 36.4088 15.464L35.4658 16.2609C35.3994 16.3273 35.3862 16.4336 35.4526 16.5133C35.519 16.5929 35.6252 16.5929 35.7049 16.5398L36.6479 15.7429C36.7276 15.6765 36.7276 15.5703 36.6612 15.4906Z" fill="white"/>
<path d="M34.9212 18.4391C34.8548 18.3461 34.8813 18.2266 34.9743 18.1734L37.2852 16.6328C37.3782 16.5797 37.4977 16.6062 37.5509 16.6859C37.6173 16.7789 37.5907 16.8984 37.4977 16.9516L35.1868 18.4922C35.1071 18.5453 34.9876 18.5187 34.9212 18.4391Z" fill="#F3F3F3"/>
<path d="M34.908 18.4391C34.8416 18.3461 34.8681 18.2133 34.9611 18.1469L37.272 16.6063C37.365 16.5399 37.4978 16.5664 37.5642 16.6727C37.6306 16.7656 37.6041 16.8985 37.5111 16.9649L35.2002 18.5055C35.1072 18.5719 34.9744 18.5453 34.908 18.4391ZM37.5377 16.6992C37.4845 16.6196 37.3783 16.593 37.2986 16.6461L34.9877 18.1867C34.908 18.2399 34.8814 18.3461 34.9478 18.4391C35.0009 18.5188 35.1072 18.5453 35.1869 18.4922L37.4978 16.9516C37.5775 16.8852 37.5908 16.7789 37.5377 16.6992Z" fill="white"/>
<path d="M36.9001 18.7179C36.847 18.625 36.8736 18.5054 36.9665 18.4523L38.0423 17.8414C38.1353 17.7882 38.2548 17.8281 38.3079 17.921C38.3611 18.014 38.3345 18.1335 38.2415 18.1867L37.1657 18.7976C37.0728 18.8507 36.9532 18.8109 36.9001 18.7179Z" fill="#F3F3F3"/>
<path d="M36.8865 18.7312C36.8333 18.625 36.8599 18.5054 36.9529 18.4523L38.0286 17.8414C38.1216 17.7882 38.2544 17.8281 38.3075 17.921C38.3607 18.0273 38.3341 18.1468 38.2411 18.2L37.1654 18.8109C37.0724 18.864 36.9396 18.8242 36.8865 18.7312ZM38.2943 17.9343C38.2411 17.8414 38.1349 17.8148 38.0552 17.8679L36.9794 18.4789C36.8997 18.532 36.8732 18.6382 36.913 18.7179C36.9661 18.8109 37.0724 18.8375 37.1521 18.7843L38.2279 18.1734C38.3075 18.1335 38.3341 18.0273 38.2943 17.9343Z" fill="white"/>
<path d="M36.0103 20.4844C35.9704 20.3781 36.0103 20.2719 36.1165 20.232L38.6798 19.1695C38.7728 19.1297 38.8923 19.1828 38.9321 19.2758C38.972 19.382 38.9321 19.4883 38.8259 19.5281L36.2626 20.5906C36.1696 20.6304 36.0501 20.5906 36.0103 20.4844Z" fill="#F3F3F3"/>
<path d="M35.9966 20.4976C35.9568 20.3914 35.9966 20.2719 36.1029 20.2187L38.6661 19.1562C38.7724 19.1164 38.8919 19.1695 38.9318 19.2758C38.9716 19.382 38.9318 19.5015 38.8255 19.5547L36.2622 20.6172C36.156 20.657 36.0364 20.6039 35.9966 20.4976ZM38.9052 19.289C38.8654 19.1961 38.7591 19.1562 38.6794 19.1828L36.1161 20.2453C36.0232 20.2851 35.9833 20.3914 36.0232 20.4844C36.063 20.5773 36.1693 20.6172 36.2489 20.5906L38.8122 19.5281C38.9052 19.4883 38.945 19.382 38.9052 19.289Z" fill="white"/>
<path d="M37.8829 21.1484C37.843 21.0421 37.8961 20.9359 38.0024 20.896L39.1711 20.5109C39.2641 20.471 39.3836 20.5374 39.4102 20.6304C39.45 20.7367 39.3969 20.8429 39.2907 20.8828L38.1219 21.2679C38.029 21.3078 37.9227 21.2546 37.8829 21.1484Z" fill="#F3F3F3"/>
<path d="M37.8695 21.1617C37.8297 21.0554 37.8828 20.9359 38.0023 20.8961L39.1711 20.5109C39.2773 20.4711 39.3969 20.5375 39.4367 20.6437C39.4766 20.75 39.4234 20.8695 39.3039 20.9093L38.1352 21.2945C38.0289 21.3211 37.9094 21.2679 37.8695 21.1617ZM39.4102 20.657C39.3836 20.564 39.2773 20.5109 39.1844 20.5375L38.0156 20.9226C37.9227 20.9492 37.8828 21.0554 37.9094 21.1484C37.9359 21.2414 38.0422 21.2945 38.1352 21.2679L39.3039 20.8828C39.3969 20.8429 39.4367 20.75 39.4102 20.657Z" fill="white"/>
<path d="M36.6875 22.7289C36.6609 22.6226 36.7273 22.5164 36.8336 22.5031L39.5562 21.9718C39.6625 21.9453 39.7555 22.0249 39.782 22.1312C39.8086 22.2374 39.7422 22.3437 39.6359 22.357L36.9133 22.8882C36.807 22.9015 36.7008 22.8351 36.6875 22.7289Z" fill="#F3F3F3"/>
<path d="M36.6609 22.7289C36.6343 22.6094 36.714 22.5031 36.8203 22.4766L39.5429 21.9453C39.6492 21.9187 39.7554 21.9984 39.782 22.118C39.8086 22.2375 39.7289 22.3437 39.6226 22.3703L36.9 22.9016C36.7937 22.9281 36.6875 22.8484 36.6609 22.7289ZM39.7554 22.1312C39.7422 22.0383 39.6492 21.9719 39.5562 21.9851L36.8336 22.5164C36.7406 22.5297 36.6742 22.6359 36.7008 22.7289C36.714 22.8219 36.807 22.8883 36.9 22.875L39.6226 22.3437C39.7156 22.3172 39.782 22.2242 39.7554 22.1312Z" fill="white"/>
<path d="M38.3874 23.7516C38.3741 23.6453 38.4406 23.5524 38.5468 23.5391L39.7687 23.393C39.8749 23.3797 39.9679 23.4594 39.9812 23.5656C39.9945 23.6719 39.9281 23.7649 39.8218 23.7781L38.5999 23.9242C38.507 23.9375 38.4007 23.8578 38.3874 23.7516Z" fill="#F3F3F3"/>
<path d="M38.3745 23.7515C38.3612 23.632 38.4409 23.5257 38.5472 23.5125L39.769 23.3664C39.8753 23.3531 39.9815 23.4328 39.9948 23.5523C40.0081 23.6718 39.9284 23.7781 39.8222 23.7914L38.6003 23.9375C38.494 23.9507 38.3878 23.8711 38.3745 23.7515ZM39.9815 23.5656C39.9682 23.4726 39.8753 23.3929 39.7823 23.4062L38.5604 23.5523C38.4675 23.5656 38.4011 23.6586 38.4143 23.7515C38.4276 23.8445 38.5206 23.9242 38.6136 23.9109L39.8354 23.7648C39.9284 23.7515 39.9948 23.6586 39.9815 23.5656Z" fill="white"/>
<path d="M36.8999 25.0398C36.8999 24.9335 36.9796 24.8406 37.0858 24.8406H39.8616C39.9679 24.8406 40.0476 24.9335 40.0476 25.0398C40.0476 25.146 39.9679 25.239 39.8616 25.239H37.0858C36.9796 25.239 36.8999 25.146 36.8999 25.0398Z" fill="#F3F3F3"/>
<path d="M36.8867 25.0398C36.8867 24.9203 36.9797 24.8273 37.0859 24.8273H39.8617C39.968 24.8273 40.0609 24.9203 40.0609 25.0398C40.0609 25.1594 39.968 25.2523 39.8617 25.2523H37.0859C36.9797 25.2523 36.8867 25.1594 36.8867 25.0398ZM40.0344 25.0531C40.0344 24.9601 39.9547 24.8672 39.8617 24.8672H37.0859C36.993 24.8672 36.9133 24.9469 36.9133 25.0531C36.9133 25.1461 36.993 25.2391 37.0859 25.2391H39.8617C39.9547 25.2258 40.0344 25.1461 40.0344 25.0531Z" fill="white"/>
<path d="M38.3745 26.3812C38.3878 26.2749 38.4675 26.1953 38.5737 26.1953L39.8089 26.2882C39.9151 26.3015 39.9948 26.3945 39.9815 26.5007C39.9683 26.607 39.8886 26.6867 39.7823 26.6867L38.5472 26.5937C38.4542 26.5804 38.3745 26.4874 38.3745 26.3812Z" fill="#F3F3F3"/>
<path d="M38.3613 26.3812C38.3746 26.2617 38.4676 26.182 38.5738 26.182L39.809 26.275C39.9152 26.2883 40.0082 26.3812 39.9949 26.5008C39.9816 26.6203 39.8887 26.7 39.7824 26.7L38.5473 26.607C38.441 26.5937 38.3613 26.4875 38.3613 26.3812ZM39.9816 26.5008C39.9949 26.4078 39.9152 26.3148 39.8223 26.3148L38.5871 26.2219C38.4941 26.2219 38.4145 26.2883 38.4012 26.3945C38.3879 26.4875 38.4676 26.5804 38.5605 26.5804L39.7957 26.6734C39.8887 26.6734 39.9684 26.5937 39.9816 26.5008Z" fill="white"/>
<path d="M36.6609 27.3508C36.6874 27.2445 36.7804 27.1781 36.8867 27.1914L39.6093 27.7359C39.7156 27.7625 39.782 27.8554 39.7554 27.9617C39.7288 28.0679 39.6359 28.1344 39.5296 28.1211L36.807 27.5765C36.714 27.5633 36.6476 27.457 36.6609 27.3508Z" fill="#F3F3F3"/>
<path d="M36.6482 27.3508C36.6747 27.2313 36.781 27.1648 36.8872 27.1781L39.6099 27.7227C39.7161 27.7492 39.7958 27.8555 39.7693 27.975C39.7427 28.0945 39.6364 28.1609 39.5302 28.1477L36.8075 27.6031C36.7013 27.5766 36.6349 27.4703 36.6482 27.3508ZM39.7427 27.975C39.756 27.882 39.7029 27.7891 39.6099 27.7625L36.8872 27.218C36.7943 27.2047 36.7013 27.2578 36.6747 27.3641C36.6614 27.457 36.7146 27.55 36.8075 27.5766L39.5302 28.1211C39.6364 28.1344 39.7161 28.068 39.7427 27.975Z" fill="white"/>
<path d="M37.8564 28.9446C37.8829 28.8383 37.9892 28.7719 38.0954 28.7985L39.2908 29.1305C39.397 29.1571 39.4501 29.2633 39.4236 29.3696C39.397 29.4758 39.2908 29.5422 39.1845 29.5156L37.9892 29.1836C37.8829 29.1571 37.8298 29.0508 37.8564 28.9446Z" fill="#F3F3F3"/>
<path d="M37.8428 28.9445C37.8693 28.8382 37.9889 28.7586 38.0951 28.7984L39.2904 29.1304C39.3967 29.157 39.4631 29.2765 39.4365 29.3828C39.41 29.489 39.2904 29.5687 39.1842 29.5289L37.9889 29.1968C37.8826 29.1703 37.8162 29.064 37.8428 28.9445ZM39.3967 29.3828C39.4232 29.2898 39.3701 29.1836 39.2771 29.157L38.0818 28.825C37.9889 28.7984 37.8959 28.8515 37.8693 28.9578C37.8428 29.0507 37.8959 29.157 37.9889 29.1836L39.1842 29.5156C39.2771 29.5289 39.3701 29.4757 39.3967 29.3828Z" fill="white"/>
<path d="M35.9839 29.582C36.0237 29.4757 36.1433 29.4359 36.2362 29.4757L38.7995 30.5382C38.8925 30.5781 38.9456 30.6976 38.9058 30.7906C38.8659 30.8968 38.7464 30.9367 38.6534 30.8968L36.0902 29.8343C35.9839 29.7945 35.9441 29.6749 35.9839 29.582Z" fill="#F3F3F3"/>
<path d="M35.9702 29.5687C36.0101 29.4625 36.1296 29.4094 36.2359 29.4492L38.7991 30.5117C38.9054 30.5515 38.9452 30.6711 38.9054 30.7906C38.8655 30.8969 38.746 30.95 38.6398 30.9101L36.0765 29.8476C35.9702 29.7945 35.9304 29.675 35.9702 29.5687ZM38.8788 30.7773C38.9187 30.6844 38.8788 30.5781 38.7859 30.5383L36.2226 29.4758C36.1296 29.4359 36.0366 29.489 35.9968 29.582C35.957 29.675 35.9968 29.7812 36.0898 29.8211L38.653 30.8836C38.746 30.9101 38.8523 30.8703 38.8788 30.7773Z" fill="white"/>
<path d="M36.847 31.375C36.9002 31.282 37.0064 31.2421 37.0994 31.282L38.2017 31.8398C38.2947 31.8796 38.3345 31.9992 38.2814 32.1054C38.2283 32.1984 38.122 32.2382 38.0291 32.1984L36.9267 31.6406C36.8338 31.5875 36.7939 31.4679 36.847 31.375Z" fill="#F3F3F3"/>
<path d="M36.8335 31.3618C36.8866 31.2555 37.0061 31.2157 37.1124 31.2688L38.2147 31.8266C38.321 31.8797 38.3608 31.9993 38.3077 32.1055C38.2546 32.2118 38.1351 32.2516 38.0288 32.1985L36.9265 31.6407C36.8202 31.6008 36.7804 31.468 36.8335 31.3618ZM38.2679 32.0922C38.3077 31.9993 38.2811 31.893 38.1882 31.8532L37.0858 31.2954C37.0061 31.2555 36.8999 31.2954 36.8468 31.375C36.8069 31.468 36.8335 31.5743 36.9265 31.6141L38.0288 32.1719C38.1218 32.2118 38.228 32.1852 38.2679 32.0922Z" fill="white"/>
<path d="M34.8948 31.6273C34.9612 31.5343 35.0675 31.5078 35.1604 31.5742L37.4714 33.1148C37.5643 33.1679 37.5776 33.2875 37.5245 33.3804C37.4581 33.4734 37.3518 33.5 37.2589 33.4336L34.9479 31.8929C34.855 31.8265 34.8284 31.707 34.8948 31.6273Z" fill="#F3F3F3"/>
<path d="M34.8814 31.6141C34.9478 31.5211 35.0806 31.4945 35.1736 31.5476L37.4845 33.0883C37.5775 33.1547 37.6041 33.2742 37.5377 33.3805C37.4713 33.4734 37.3384 33.5 37.2455 33.4469L34.9345 31.9062C34.8283 31.8398 34.815 31.707 34.8814 31.6141ZM37.4978 33.3672C37.5509 33.2875 37.5377 33.168 37.458 33.1148L35.147 31.5742C35.0673 31.5211 34.9611 31.5476 34.908 31.6273C34.8548 31.707 34.8681 31.8266 34.9478 31.8797L37.2588 33.4203C37.3384 33.4734 37.4447 33.4469 37.4978 33.3672Z" fill="white"/>
<path d="M35.3858 33.5531C35.4522 33.4734 35.5717 33.4468 35.6514 33.5132L36.6209 34.2703C36.7006 34.3367 36.7139 34.4562 36.6475 34.5359C36.5811 34.6156 36.4616 34.6421 36.3819 34.5757L35.4123 33.8187C35.3327 33.7523 35.3194 33.6328 35.3858 33.5531Z" fill="#F3F3F3"/>
<path d="M35.3726 33.5398C35.439 33.4469 35.5718 33.4336 35.6647 33.5L36.6343 34.257C36.7272 34.3234 36.7405 34.4562 36.6741 34.5492C36.6077 34.6422 36.4749 34.6555 36.3819 34.5891L35.4124 33.832C35.3194 33.7656 35.3062 33.6328 35.3726 33.5398ZM36.6476 34.5359C36.714 34.4562 36.7007 34.35 36.621 34.2836L35.6515 33.5266C35.5718 33.4734 35.4655 33.4867 35.3991 33.5664C35.3327 33.6461 35.346 33.7523 35.4257 33.8187L36.3952 34.5758C36.4749 34.6289 36.5812 34.6156 36.6476 34.5359Z" fill="white"/>
<path d="M33.4067 33.4203C33.4864 33.3406 33.606 33.3406 33.6724 33.4203L35.638 35.3726C35.7177 35.4523 35.7044 35.5719 35.638 35.6383C35.5583 35.718 35.4388 35.718 35.3724 35.6383L33.4067 33.6859C33.3403 33.6195 33.3403 33.4867 33.4067 33.4203Z" fill="#F3F3F3"/>
<path d="M33.4071 33.407C33.4868 33.3273 33.6196 33.3273 33.6993 33.407L35.6649 35.3593C35.7446 35.439 35.7446 35.5718 35.6649 35.6515C35.5853 35.7312 35.4524 35.7312 35.3728 35.6515L33.4071 33.6992C33.3142 33.6195 33.3142 33.4867 33.4071 33.407ZM35.6384 35.625C35.7048 35.5586 35.7048 35.439 35.6384 35.3726L33.6728 33.4203C33.6063 33.3539 33.4868 33.3539 33.4204 33.4203C33.354 33.4867 33.354 33.6062 33.4204 33.6726L35.386 35.625C35.4524 35.7047 35.5587 35.7047 35.6384 35.625Z" fill="white"/>
<path d="M33.5266 35.3992C33.6063 35.3328 33.7258 35.3328 33.7922 35.4125L34.6024 36.3422C34.6688 36.4219 34.6555 36.5414 34.5758 36.6078C34.4961 36.6742 34.3766 36.6742 34.3102 36.5945L33.5 35.6648C33.4336 35.5984 33.4469 35.4789 33.5266 35.3992Z" fill="#F3F3F3"/>
<path d="M33.5134 35.3992C33.6064 35.3195 33.7259 35.3328 33.8056 35.4125L34.6157 36.3421C34.6954 36.4218 34.6822 36.5546 34.5892 36.6343C34.4962 36.714 34.3767 36.7007 34.297 36.6211L33.4868 35.6914C33.4204 35.5984 33.4204 35.4656 33.5134 35.3992ZM34.5759 36.6078C34.6556 36.5414 34.6556 36.4351 34.6025 36.3554L33.7923 35.4257C33.7259 35.3593 33.6197 35.3461 33.54 35.4125C33.4603 35.4789 33.4603 35.5851 33.5134 35.6648L34.3236 36.5945C34.39 36.6742 34.4962 36.6742 34.5759 36.6078Z" fill="white"/>
<path d="M31.6145 34.8945C31.7074 34.8281 31.827 34.8546 31.8801 34.9476L33.4207 37.2453C33.4738 37.3382 33.4473 37.4578 33.3676 37.5109C33.2746 37.5773 33.1551 37.5507 33.102 37.4578L31.5613 35.1601C31.5082 35.0671 31.5348 34.9476 31.6145 34.8945Z" fill="#F3F3F3"/>
<path d="M31.6138 34.8812C31.7068 34.8148 31.8396 34.8414 31.906 34.9344L33.4467 37.232C33.5131 37.325 33.4865 37.4578 33.3802 37.5242C33.2873 37.5906 33.1545 37.5641 33.0881 37.4711L31.5474 35.1734C31.481 35.0672 31.5076 34.9477 31.6138 34.8812ZM33.367 37.4977C33.4467 37.4445 33.4732 37.3383 33.4201 37.2586L31.8795 34.9609C31.8263 34.8812 31.7201 34.868 31.6271 34.9211C31.5474 34.9742 31.5209 35.0805 31.574 35.1602L33.1146 37.4578C33.1677 37.5242 33.2873 37.5508 33.367 37.4977Z" fill="white"/>
<path d="M31.3354 36.8601C31.4284 36.807 31.5479 36.8336 31.601 36.9266L32.212 38.0023C32.2651 38.0953 32.2253 38.2148 32.1323 38.268C32.0393 38.3211 31.9198 38.2945 31.8667 38.2016L31.2557 37.1258C31.2159 37.0328 31.2424 36.9133 31.3354 36.8601Z" fill="#F3F3F3"/>
<path d="M31.3353 36.8468C31.4415 36.7937 31.561 36.8203 31.6142 36.9132L32.2251 37.989C32.2782 38.082 32.2517 38.2148 32.1454 38.2679C32.0392 38.3211 31.9196 38.2945 31.8665 38.2015L31.2556 37.1257C31.2024 37.0328 31.229 36.9132 31.3353 36.8468ZM32.1321 38.2547C32.2118 38.2015 32.2517 38.0953 32.1985 38.0156L31.5876 36.9398C31.5345 36.8601 31.4282 36.8336 31.3485 36.8734C31.2688 36.9265 31.229 37.0328 31.2821 37.1125L31.8931 38.1882C31.9329 38.2679 32.0524 38.3078 32.1321 38.2547Z" fill="white"/>
<path d="M29.5689 35.9836C29.6751 35.9437 29.7814 35.9836 29.8212 36.0766L30.897 38.6398C30.9368 38.7328 30.8837 38.8523 30.7907 38.8922C30.6978 38.932 30.5782 38.8922 30.5384 38.7992L29.4626 36.2359C29.4228 36.143 29.4759 36.0234 29.5689 35.9836Z" fill="#F3F3F3"/>
<path d="M29.5688 35.9703C29.675 35.9305 29.7946 35.9703 29.8477 36.0765L30.9235 38.6398C30.9633 38.7461 30.9102 38.8656 30.804 38.9055C30.6977 38.9453 30.5782 38.9055 30.525 38.7992L29.4493 36.2359C29.4094 36.143 29.4625 36.0234 29.5688 35.9703ZM30.7774 38.8789C30.8704 38.839 30.9102 38.7328 30.8704 38.6531L29.7946 36.0898C29.7547 35.9969 29.6485 35.957 29.5555 35.9969C29.4625 36.0367 29.4227 36.143 29.4625 36.2226L30.5383 38.7859C30.5915 38.8789 30.6844 38.9187 30.7774 38.8789Z" fill="white"/>
<path d="M28.9179 37.8695C29.0242 37.8296 29.1304 37.8828 29.1703 37.989L29.5554 39.1578C29.5953 39.2507 29.5289 39.3703 29.4359 39.3968C29.3296 39.4367 29.2234 39.3836 29.1835 39.2773L28.7984 38.1086C28.7585 38.0156 28.8117 37.9093 28.9179 37.8695Z" fill="#F3F3F3"/>
<path d="M28.9047 37.8562C29.011 37.8164 29.1305 37.8695 29.1703 37.9758L29.5555 39.1445C29.5953 39.2508 29.5289 39.3703 29.4227 39.4102C29.3164 39.45 29.1969 39.3969 29.1571 39.2906L28.7719 38.1219C28.7453 38.0156 28.7985 37.8961 28.9047 37.8562ZM29.4227 39.3836C29.5157 39.357 29.5688 39.2508 29.5422 39.1578L29.1571 37.9891C29.1305 37.8961 29.0243 37.8562 28.9313 37.8828C28.8383 37.9094 28.7852 38.0156 28.8118 38.1086L29.1969 39.2773C29.2235 39.3703 29.3297 39.4234 29.4227 39.3836Z" fill="white"/>
<path d="M27.351 36.6609C27.4573 36.6343 27.5635 36.7007 27.5768 36.807L28.1346 39.5296C28.1612 39.6359 28.0815 39.7289 27.9752 39.7554C27.869 39.782 27.7627 39.7156 27.7494 39.6093L27.1916 36.8867C27.1783 36.7937 27.2448 36.6874 27.351 36.6609Z" fill="#F3F3F3"/>
<path d="M27.3512 36.6476C27.4708 36.621 27.577 36.7007 27.6036 36.807L28.1614 39.5296C28.1879 39.6359 28.1083 39.7554 28.002 39.7687C27.8825 39.7953 27.7762 39.7156 27.7497 39.6093L27.1918 36.8867C27.1653 36.7804 27.2317 36.6742 27.3512 36.6476ZM27.9754 39.7421C28.0684 39.7289 28.1348 39.6359 28.1215 39.5296L27.5637 36.807C27.5504 36.714 27.4442 36.6476 27.3512 36.6742C27.2583 36.6874 27.1918 36.7804 27.2051 36.8867L27.7629 39.6093C27.7895 39.7023 27.8825 39.7554 27.9754 39.7421Z" fill="white"/>
<path d="M26.3411 38.3874C26.4473 38.3741 26.5403 38.4406 26.5669 38.5468L26.7263 39.7687C26.7395 39.8749 26.6598 39.9679 26.5536 39.9812C26.4473 39.9945 26.3544 39.9281 26.3278 39.8218L26.1684 38.5999C26.1552 38.4937 26.2348 38.4007 26.3411 38.3874Z" fill="#F3F3F3"/>
<path d="M26.3417 38.3742C26.4612 38.3609 26.5675 38.4406 26.5807 38.5468L26.7401 39.7687C26.7534 39.875 26.6737 39.9812 26.5542 39.9945C26.4346 40.0078 26.3284 39.9281 26.3151 39.8218L26.1557 38.6C26.1425 38.4937 26.2221 38.3875 26.3417 38.3742ZM26.5409 39.9679C26.6339 39.9547 26.7136 39.8617 26.7003 39.7687L26.5409 38.5468C26.5276 38.4539 26.4346 38.3875 26.3417 38.4008C26.2487 38.414 26.169 38.507 26.1823 38.6L26.3417 39.8218C26.355 39.9148 26.4479 39.9812 26.5409 39.9679Z" fill="white"/>
<path d="M24.9731 36.9C25.0794 36.9 25.1724 36.9797 25.1724 37.0859V39.8617C25.1724 39.9679 25.0794 40.0476 24.9731 40.0476C24.8669 40.0476 24.7739 39.9679 24.7739 39.8617V37.0859C24.7872 36.9797 24.8669 36.9 24.9731 36.9Z" fill="#F3F3F3"/>
<path d="M24.9737 36.8867C25.0933 36.8867 25.1862 36.9797 25.1862 37.0859V39.8617C25.1862 39.968 25.0933 40.0609 24.9737 40.0609C24.8542 40.0609 24.7612 39.968 24.7612 39.8617V37.0859C24.7612 36.9797 24.8675 36.8867 24.9737 36.8867ZM24.9737 40.0344C25.0667 40.0344 25.1597 39.9547 25.1597 39.8617V37.0859C25.1597 36.993 25.08 36.9133 24.9737 36.9133C24.8808 36.9133 24.7878 36.993 24.7878 37.0859V39.8617C24.8011 39.9547 24.8808 40.0344 24.9737 40.0344Z" fill="white"/>
<path d="M23.6453 38.3874C23.7516 38.4007 23.8312 38.4804 23.8312 38.5867L23.7383 39.8218C23.725 39.9281 23.632 40.0077 23.5258 39.9945C23.4195 39.9812 23.3398 39.9015 23.3398 39.7952L23.4328 38.5601C23.4461 38.4538 23.5391 38.3742 23.6453 38.3874Z" fill="#F3F3F3"/>
<path d="M23.6454 38.3742C23.7649 38.3875 23.8446 38.4804 23.8446 38.5867L23.7517 39.8218C23.7384 39.9281 23.6454 40.0211 23.5259 40.0078C23.4063 39.9945 23.3267 39.9015 23.3267 39.7953L23.4196 38.5601C23.4329 38.4406 23.5259 38.3609 23.6454 38.3742ZM23.5259 39.9812C23.6188 39.9812 23.7118 39.9148 23.7118 39.8218L23.8048 38.5867C23.8048 38.4937 23.7384 38.414 23.6321 38.4007C23.5392 38.4007 23.4462 38.4672 23.4462 38.5601L23.3532 39.7953C23.3532 39.8882 23.4329 39.9679 23.5259 39.9812Z" fill="white"/>
<path d="M22.6494 36.6609C22.7557 36.6874 22.8221 36.7804 22.8088 36.8867L22.2643 39.6093C22.2377 39.7156 22.1448 39.782 22.0385 39.7554C21.9323 39.7288 21.8658 39.6359 21.8791 39.5296L22.4237 36.807C22.4369 36.714 22.5432 36.6476 22.6494 36.6609Z" fill="#F3F3F3"/>
<path d="M22.6491 36.6476C22.7687 36.6742 22.8351 36.7804 22.8218 36.8867L22.2773 39.6093C22.2507 39.7156 22.1444 39.7953 22.0249 39.7687C21.9054 39.7422 21.839 39.6359 21.8523 39.5296L22.3968 36.807C22.4234 36.7007 22.5296 36.6343 22.6491 36.6476ZM22.0249 39.7421C22.1179 39.7554 22.2109 39.7023 22.2374 39.6093L22.7819 36.8867C22.7952 36.7937 22.7421 36.7007 22.6359 36.6742C22.5429 36.6609 22.4499 36.714 22.4234 36.807L21.8788 39.5296C21.8655 39.6359 21.9319 39.7156 22.0249 39.7421Z" fill="white"/>
<path d="M21.0555 37.8563C21.1617 37.8828 21.2281 37.9891 21.2016 38.0953L20.8695 39.2906C20.843 39.3969 20.7367 39.45 20.6305 39.4234C20.5242 39.3969 20.4578 39.2906 20.4844 39.1844L20.8164 37.9891C20.843 37.8828 20.9492 37.8297 21.0555 37.8563Z" fill="#F3F3F3"/>
<path d="M21.0558 37.843C21.162 37.8695 21.2417 37.989 21.2018 38.0953L20.8698 39.2906C20.8433 39.3969 20.7237 39.4633 20.6175 39.4367C20.5112 39.4101 20.4315 39.2906 20.4714 39.1844L20.8034 37.989C20.83 37.8828 20.9362 37.8164 21.0558 37.843ZM20.6175 39.3969C20.7104 39.4234 20.8167 39.3703 20.8433 39.2773L21.1753 38.082C21.2018 37.989 21.1487 37.8961 21.0425 37.8695C20.9495 37.843 20.8433 37.8961 20.8167 37.989L20.4847 39.1844C20.4714 39.2773 20.5245 39.3703 20.6175 39.3969Z" fill="white"/>
<path d="M20.4044 35.9836C20.5106 36.0235 20.5505 36.143 20.5107 36.236L19.4481 38.7993C19.4083 38.8922 19.2888 38.9453 19.1958 38.8922C19.1028 38.8391 19.0497 38.7328 19.0896 38.6399L20.1521 36.0766C20.1919 35.9836 20.3114 35.9305 20.4044 35.9836Z" fill="#F3F3F3"/>
<path d="M20.4049 35.9703C20.5112 36.0101 20.5643 36.1297 20.5245 36.2359L19.462 38.7992C19.4221 38.9055 19.3026 38.9453 19.1831 38.9055C19.0768 38.8656 19.0237 38.7461 19.0635 38.6398L20.126 36.0766C20.1791 35.9703 20.2987 35.9172 20.4049 35.9703ZM19.1963 38.8789C19.2893 38.9187 19.3956 38.8789 19.4354 38.7859L20.4979 36.2226C20.5377 36.1297 20.4846 36.0367 20.3916 35.9969C20.2987 35.957 20.1924 35.9969 20.1526 36.0898L19.0901 38.6531C19.0635 38.7328 19.1034 38.8391 19.1963 38.8789Z" fill="white"/>
<path d="M18.6118 36.8335C18.7047 36.8867 18.7446 36.9929 18.7047 37.0859L18.1469 38.1882C18.0938 38.2812 17.9876 38.321 17.8813 38.2679C17.7883 38.2148 17.7485 38.1085 17.7883 38.0156L18.3461 36.9132C18.3993 36.8203 18.5055 36.7804 18.6118 36.8335Z" fill="#F3F3F3"/>
<path d="M18.6116 36.8203C18.7179 36.8734 18.7577 36.993 18.7046 37.0992L18.1468 38.2016C18.0936 38.3078 17.9741 38.3476 17.8679 38.2945C17.7616 38.2414 17.7218 38.1219 17.7749 38.0156L18.3327 36.9133C18.3858 36.807 18.5054 36.7672 18.6116 36.8203ZM17.8811 38.268C17.9741 38.3078 18.0804 38.2812 18.1202 38.1883L18.678 37.0859C18.7179 37.0062 18.678 36.9 18.5983 36.8469C18.5054 36.807 18.3991 36.8336 18.3593 36.9266L17.8015 38.0289C17.7616 38.1086 17.8015 38.2148 17.8811 38.268Z" fill="white"/>
<path d="M18.3461 34.8679C18.439 34.9343 18.4656 35.0539 18.3992 35.1336L16.8586 37.4312C16.8054 37.5242 16.6859 37.5375 16.5929 37.4843C16.5 37.4179 16.4734 37.2984 16.5398 37.2187L18.0804 34.9211C18.1336 34.8281 18.2531 34.8015 18.3461 34.8679Z" fill="#F3F3F3"/>
<path d="M18.3462 34.8546C18.4392 34.921 18.4657 35.0539 18.4126 35.1468L16.872 37.4445C16.8056 37.5374 16.6861 37.564 16.5798 37.4976C16.4868 37.4312 16.4603 37.2984 16.5134 37.2054L18.054 34.9078C18.1204 34.8148 18.2532 34.7882 18.3462 34.8546ZM16.5931 37.471C16.6728 37.5242 16.7923 37.5109 16.8454 37.4312L18.3861 35.1335C18.4392 35.0539 18.4126 34.9476 18.3329 34.8945C18.2532 34.8414 18.1337 34.8546 18.0806 34.9343L16.54 37.2187C16.4868 37.2984 16.5134 37.4179 16.5931 37.471Z" fill="white"/>
<path d="M16.4071 35.3594C16.4868 35.4258 16.5133 35.5454 16.4469 35.625L15.6766 36.5946C15.6102 36.6743 15.4907 36.6875 15.411 36.6211C15.3313 36.5547 15.3047 36.4352 15.3711 36.3555L16.1414 35.386C16.2079 35.3063 16.3274 35.293 16.4071 35.3594Z" fill="#F3F3F3"/>
<path d="M16.4204 35.346C16.5134 35.4124 16.5267 35.5452 16.4603 35.6382L15.6899 36.6077C15.6235 36.7007 15.4907 36.714 15.3978 36.6343C15.3048 36.5679 15.2915 36.4351 15.3579 36.3421L16.1282 35.3726C16.1946 35.2796 16.3274 35.2663 16.4204 35.346ZM15.4243 36.6077C15.504 36.6742 15.6103 36.6609 15.6767 36.5812L16.447 35.6117C16.5001 35.532 16.4868 35.4257 16.4071 35.3593C16.3274 35.2929 16.2212 35.3062 16.1548 35.3859L15.3845 36.3554C15.3313 36.4351 15.3446 36.5546 15.4243 36.6077Z" fill="white"/>
<path d="M16.5401 33.3671C16.6197 33.4468 16.6197 33.5664 16.5401 33.6328L14.5744 35.5851C14.4947 35.6648 14.3752 35.6515 14.3088 35.5851C14.2424 35.5187 14.2291 35.3859 14.3088 35.3195L16.2611 33.3671C16.3408 33.2875 16.4604 33.2875 16.5401 33.3671Z" fill="#F3F3F3"/>
<path d="M16.5534 33.3539C16.6331 33.4336 16.6331 33.5664 16.5534 33.6461L14.5878 35.5984C14.5081 35.6781 14.3753 35.6781 14.2956 35.5984C14.2159 35.5187 14.2159 35.3859 14.2956 35.3062L16.2612 33.3539C16.3409 33.2742 16.4737 33.2742 16.5534 33.3539ZM14.3089 35.5851C14.3753 35.6516 14.4948 35.6516 14.5612 35.5851L16.5269 33.6328C16.5933 33.5664 16.5933 33.4469 16.5269 33.3805C16.4604 33.3141 16.3409 33.3141 16.2745 33.3805L14.3089 35.3328C14.2425 35.3992 14.2425 35.5055 14.3089 35.5851Z" fill="white"/>
<path d="M14.5475 33.4734C14.6139 33.5531 14.6139 33.6726 14.5342 33.739L13.5912 34.5359C13.5115 34.6023 13.392 34.589 13.3256 34.5093C13.2592 34.4296 13.2592 34.3101 13.3389 34.2437L14.2819 33.4468C14.3615 33.3804 14.4811 33.3937 14.5475 33.4734Z" fill="#F3F3F3"/>
<path d="M14.5613 33.4601C14.6409 33.5531 14.6277 33.6859 14.548 33.7523L13.605 34.5492C13.5253 34.6289 13.3925 34.6156 13.3128 34.5226C13.2331 34.4296 13.2464 34.2968 13.3261 34.2304L14.2691 33.4335C14.3488 33.3539 14.4816 33.3671 14.5613 33.4601ZM13.3394 34.5093C13.4058 34.589 13.512 34.589 13.5917 34.5359L14.5347 33.739C14.6011 33.6726 14.6144 33.5664 14.548 33.4867C14.4816 33.407 14.3753 33.407 14.2956 33.4601L13.3527 34.257C13.273 34.3234 13.273 34.4296 13.3394 34.5093Z" fill="white"/>
<path d="M15.0792 31.5609C15.1456 31.6539 15.119 31.7734 15.026 31.8266L12.7151 33.3672C12.6221 33.4203 12.5026 33.3937 12.4495 33.3141C12.3831 33.2211 12.4096 33.1016 12.5026 33.0484L14.8135 31.5078C14.8932 31.4547 15.0128 31.4812 15.0792 31.5609Z" fill="#F3F3F3"/>
<path d="M15.0921 31.5609C15.1585 31.6538 15.1319 31.7866 15.0389 31.8531L12.728 33.3937C12.635 33.4601 12.5022 33.4335 12.4358 33.3273C12.3694 33.2343 12.396 33.1015 12.4889 33.0351L14.7999 31.4945C14.8928 31.428 15.0257 31.4546 15.0921 31.5609ZM12.4624 33.3007C12.5155 33.3804 12.6218 33.407 12.7014 33.3538L15.0124 31.8132C15.0921 31.7601 15.1186 31.6538 15.0522 31.5609C14.9991 31.4812 14.8928 31.4546 14.8132 31.5077L12.5022 33.0484C12.4225 33.1148 12.4093 33.221 12.4624 33.3007Z" fill="white"/>
<path d="M13.0999 31.282C13.1531 31.375 13.1265 31.4945 13.0335 31.5476L11.9577 32.1586C11.8648 32.2117 11.7452 32.1719 11.6921 32.0789C11.639 31.9859 11.6656 31.8664 11.7585 31.8133L12.8343 31.2023C12.9273 31.1492 13.0468 31.189 13.0999 31.282Z" fill="#F3F3F3"/>
<path d="M13.1132 31.2688C13.1663 31.375 13.1398 31.4945 13.0468 31.5477L11.971 32.1586C11.8781 32.2117 11.7452 32.1719 11.6921 32.0789C11.639 31.9727 11.6656 31.8531 11.7585 31.8L12.8343 31.1891C12.9273 31.136 13.0601 31.1758 13.1132 31.2688ZM11.7054 32.0656C11.7585 32.1586 11.8648 32.1852 11.9445 32.132L13.0202 31.5211C13.0999 31.468 13.1265 31.3617 13.0866 31.282C13.0335 31.1891 12.9273 31.1625 12.8476 31.2156L11.7718 31.8266C11.6921 31.8664 11.6656 31.9727 11.7054 32.0656Z" fill="white"/>
<path d="M13.9898 29.5156C14.0296 29.6218 13.9898 29.7281 13.8835 29.7679L11.3202 30.8304C11.2273 30.8703 11.1077 30.8171 11.0679 30.7242C11.028 30.6179 11.0679 30.5117 11.1741 30.4718L13.7374 29.4093C13.8304 29.3695 13.9499 29.4093 13.9898 29.5156Z" fill="#F3F3F3"/>
<path d="M14.003 29.5023C14.0429 29.6086 14.003 29.7281 13.8968 29.7812L11.3335 30.8437C11.2273 30.8836 11.1077 30.8305 11.0679 30.7242C11.028 30.618 11.0679 30.4984 11.1741 30.4453L13.7374 29.3828C13.8437 29.343 13.9632 29.3961 14.003 29.5023ZM11.0945 30.7109C11.1343 30.8039 11.2405 30.8437 11.3202 30.8172L13.8835 29.7547C13.9765 29.7148 14.0163 29.6086 13.9765 29.5156C13.9366 29.4226 13.8304 29.3828 13.7507 29.4094L11.1874 30.4719C11.0945 30.5117 11.0546 30.618 11.0945 30.7109Z" fill="white"/>
<path d="M12.1172 28.8516C12.1571 28.9578 12.104 29.0641 11.9977 29.1039L10.829 29.4891C10.736 29.5289 10.6165 29.4625 10.5899 29.3695C10.55 29.2633 10.6032 29.157 10.7094 29.1172L11.8782 28.732C11.9711 28.6922 12.0774 28.7453 12.1172 28.8516Z" fill="#F3F3F3"/>
<path d="M12.1306 28.8383C12.1704 28.9445 12.1173 29.064 11.9977 29.1039L10.829 29.489C10.7227 29.5289 10.6032 29.4625 10.5634 29.3562C10.5235 29.25 10.5767 29.1304 10.6962 29.0906L11.8649 28.7054C11.9712 28.6789 12.0907 28.732 12.1306 28.8383ZM10.5899 29.3429C10.6165 29.4359 10.7227 29.489 10.8157 29.4625L11.9845 29.0773C12.0774 29.0508 12.1173 28.9445 12.0907 28.8515C12.0642 28.7586 11.9579 28.7054 11.8649 28.732L10.6962 29.1172C10.6032 29.157 10.5634 29.25 10.5899 29.3429Z" fill="white"/>
<path d="M13.3123 27.2711C13.3389 27.3774 13.2725 27.4836 13.1662 27.4969L10.4436 28.0281C10.3373 28.0547 10.2443 27.975 10.2178 27.8688C10.1912 27.7625 10.2576 27.6563 10.3639 27.643L13.0865 27.1117C13.1928 27.0984 13.299 27.1649 13.3123 27.2711Z" fill="#F3F3F3"/>
<path d="M13.3391 27.2711C13.3657 27.3906 13.286 27.4969 13.1798 27.5234L10.4571 28.0547C10.3509 28.0813 10.2446 28.0016 10.218 27.882C10.1915 27.7625 10.2712 27.6563 10.3774 27.6297L13.1001 27.0984C13.2063 27.0719 13.3126 27.1516 13.3391 27.2711ZM10.2446 27.8688C10.2579 27.9617 10.3509 28.0281 10.4438 28.0148L13.1665 27.4836C13.2594 27.4703 13.3259 27.3641 13.2993 27.2711C13.286 27.1781 13.193 27.1117 13.1001 27.125L10.3774 27.6563C10.2844 27.6828 10.218 27.7758 10.2446 27.8688Z" fill="white"/>
<path d="M11.613 26.2484C11.6263 26.3547 11.5599 26.4477 11.4536 26.4609L10.2318 26.607C10.1255 26.6203 10.0325 26.5406 10.0193 26.4344C10.006 26.3281 10.0724 26.2352 10.1786 26.2219L11.4005 26.0758C11.4935 26.0625 11.5997 26.1422 11.613 26.2484Z" fill="#F3F3F3"/>
<path d="M11.6262 26.2484C11.6394 26.3679 11.5597 26.4742 11.4535 26.4875L10.2316 26.6336C10.1254 26.6469 10.0191 26.5672 10.0058 26.4476C9.99256 26.3281 10.0722 26.2219 10.1785 26.2086L11.4004 26.0625C11.5066 26.0492 11.6129 26.1289 11.6262 26.2484ZM10.0191 26.4344C10.0324 26.5273 10.1254 26.607 10.2183 26.5937L11.4402 26.4476C11.5332 26.4344 11.5996 26.3414 11.5863 26.2484C11.573 26.1554 11.4801 26.0758 11.3871 26.089L10.1652 26.2351C10.0722 26.2484 10.0058 26.3414 10.0191 26.4344Z" fill="white"/>
<path d="M13.1003 24.9601C13.1003 25.0664 13.0206 25.1594 12.9144 25.1594H10.1386C10.0323 25.1594 9.95264 25.0664 9.95264 24.9601C9.95264 24.8539 10.0323 24.7609 10.1386 24.7609H12.9144C13.0206 24.7609 13.1003 24.8539 13.1003 24.9601Z" fill="#F3F3F3"/>
<path d="M13.1132 24.9601C13.1132 25.0797 13.0202 25.1726 12.914 25.1726H10.1382C10.0319 25.1726 9.93896 25.0797 9.93896 24.9601C9.93896 24.8406 10.0319 24.7476 10.1382 24.7476H12.914C13.0202 24.7476 13.1132 24.8406 13.1132 24.9601ZM9.96553 24.9468C9.96553 25.0398 10.0452 25.1328 10.1382 25.1328H12.914C13.0069 25.1328 13.0866 25.0531 13.0866 24.9468C13.0866 24.8539 13.0069 24.7609 12.914 24.7609H10.1382C10.0452 24.7742 9.96553 24.8539 9.96553 24.9468Z" fill="white"/>
<path d="M11.6261 23.6187C11.6128 23.725 11.5331 23.8046 11.4268 23.8046L10.1917 23.7117C10.0854 23.6984 10.0057 23.6054 10.019 23.4992C10.0323 23.3929 10.112 23.3132 10.2182 23.3132L11.4534 23.4062C11.5464 23.4195 11.6261 23.5125 11.6261 23.6187Z" fill="#E2E2E2"/>
<path d="M11.6393 23.6187C11.626 23.7383 11.533 23.818 11.4268 23.818L10.1916 23.725C10.0854 23.7117 9.99238 23.6187 10.0057 23.4992C10.0189 23.3797 10.1119 23.3 10.2182 23.3L11.4533 23.393C11.5596 23.4062 11.6393 23.5125 11.6393 23.6187ZM10.0189 23.4992C10.0057 23.5922 10.0854 23.6851 10.1783 23.6851L11.4135 23.7781C11.5064 23.7781 11.5861 23.7117 11.5994 23.6055C11.6127 23.5125 11.533 23.4195 11.44 23.4195L10.2049 23.3266C10.1119 23.3266 10.0322 23.4062 10.0189 23.4992Z" fill="white"/>
<path d="M13.3392 22.6492C13.3126 22.7555 13.2196 22.8219 13.1134 22.8086L10.3907 22.2508C10.2845 22.2242 10.2181 22.1313 10.2446 22.025C10.2712 21.9188 10.3642 21.8524 10.4704 21.8656L13.1931 22.4102C13.286 22.4367 13.3524 22.543 13.3392 22.6492Z" fill="#F3F3F3"/>
<path d="M13.3523 22.6492C13.3258 22.7687 13.2195 22.8351 13.1133 22.8219L10.3906 22.2773C10.2843 22.2508 10.2047 22.1445 10.2312 22.025C10.2578 21.9054 10.364 21.839 10.4703 21.8523L13.1929 22.3969C13.2992 22.4234 13.3656 22.5297 13.3523 22.6492ZM10.2578 22.025C10.2445 22.1179 10.2976 22.2109 10.3906 22.2375L13.1133 22.782C13.2062 22.7953 13.2992 22.7422 13.3258 22.6359C13.339 22.5429 13.2859 22.45 13.1929 22.4234L10.4703 21.8789C10.364 21.8656 10.2843 21.932 10.2578 22.025Z" fill="white"/>
<path d="M12.1438 21.0554C12.1172 21.1617 12.011 21.2281 11.9047 21.2015L10.7094 20.8695C10.6032 20.8429 10.55 20.7367 10.5766 20.6304C10.6032 20.5242 10.7094 20.4577 10.8157 20.4843L12.011 20.8163C12.1172 20.8429 12.1703 20.9492 12.1438 21.0554Z" fill="#F3F3F3"/>
<path d="M12.1572 21.0555C12.1307 21.1618 12.0111 21.2414 11.9049 21.2016L10.7096 20.8696C10.6033 20.843 10.5369 20.7235 10.5635 20.6172C10.59 20.511 10.7096 20.4313 10.8158 20.4711L12.0111 20.8032C12.1174 20.8297 12.1838 20.936 12.1572 21.0555ZM10.6033 20.6172C10.5768 20.7102 10.6299 20.8164 10.7228 20.843L11.9182 21.175C12.0111 21.2016 12.1041 21.1485 12.1307 21.0422C12.1572 20.9493 12.1041 20.843 12.0111 20.8164L10.8158 20.4844C10.7228 20.4711 10.6299 20.5243 10.6033 20.6172Z" fill="white"/>
<path d="M14.0168 20.418C13.977 20.5242 13.8574 20.564 13.7645 20.5242L11.2012 19.4617C11.1082 19.4219 11.0551 19.3023 11.0949 19.2094C11.1348 19.1031 11.2543 19.0633 11.3473 19.1031L13.9106 20.1656C14.0168 20.2055 14.0566 20.325 14.0168 20.418Z" fill="#F3F3F3"/>
<path d="M14.0294 20.4312C13.9896 20.5375 13.87 20.5906 13.7638 20.5508L11.2005 19.4883C11.0943 19.4484 11.0544 19.3289 11.0943 19.2094C11.1341 19.1031 11.2536 19.05 11.3599 19.0898L13.9232 20.1523C14.0294 20.2055 14.0693 20.325 14.0294 20.4312ZM11.1208 19.2226C11.081 19.3156 11.1208 19.4219 11.2138 19.4617L13.7771 20.5242C13.87 20.564 13.963 20.5109 14.0029 20.418C14.0427 20.325 14.0029 20.2187 13.9099 20.1789L11.3466 19.1164C11.2536 19.0898 11.1474 19.1297 11.1208 19.2226Z" fill="white"/>
<path d="M13.1535 18.625C13.1004 18.718 12.9941 18.7578 12.9011 18.718L11.7988 18.1602C11.7058 18.1203 11.666 18.0008 11.7191 17.8945C11.7722 17.8016 11.8785 17.7617 11.9715 17.8016L13.0738 18.3594C13.1668 18.4125 13.2066 18.532 13.1535 18.625Z" fill="#F3F3F3"/>
<path d="M13.1666 18.6382C13.1135 18.7445 12.9939 18.7843 12.8877 18.7312L11.7853 18.1734C11.6791 18.1203 11.6392 18.0007 11.6924 17.8945C11.7455 17.7882 11.865 17.7484 11.9713 17.8015L13.0736 18.3593C13.1799 18.3992 13.2197 18.532 13.1666 18.6382ZM11.7322 17.9078C11.6924 18.0007 11.7189 18.107 11.8119 18.1468L12.9142 18.7046C12.9939 18.7445 13.1002 18.7046 13.1533 18.6249C13.1932 18.532 13.1666 18.4257 13.0736 18.3859L11.958 17.8281C11.8783 17.7882 11.7721 17.8148 11.7322 17.9078Z" fill="white"/>
<path d="M15.106 18.3727C15.0396 18.4657 14.9333 18.4922 14.8403 18.4258L12.5427 16.8985C12.4497 16.8454 12.4364 16.7258 12.4896 16.6329C12.5427 16.5399 12.6622 16.5133 12.7552 16.5797L15.0661 18.1204C15.1458 18.1735 15.1724 18.293 15.106 18.3727Z" fill="#F3F3F3"/>
<path d="M15.1183 18.386C15.0519 18.4789 14.9191 18.5055 14.8261 18.4524L12.5285 16.9117C12.4355 16.8453 12.409 16.7258 12.4754 16.6195C12.5418 16.5266 12.6746 16.5 12.7676 16.5531L15.0652 18.0938C15.1715 18.1602 15.1847 18.293 15.1183 18.386ZM12.5019 16.6328C12.4488 16.7125 12.4621 16.832 12.5418 16.8852L14.8527 18.4258C14.9324 18.4789 15.0386 18.4524 15.0918 18.3727C15.1449 18.293 15.1316 18.1735 15.0519 18.1203L12.741 16.5797C12.6613 16.5266 12.5551 16.5531 12.5019 16.6328Z" fill="white"/>
<path d="M14.6143 16.4468C14.5479 16.5265 14.4284 16.5531 14.3487 16.4867L13.3791 15.7296C13.2995 15.6632 13.2862 15.5437 13.3526 15.464C13.419 15.3843 13.5385 15.3578 13.6182 15.4242L14.5877 16.1812C14.6674 16.2476 14.6807 16.3671 14.6143 16.4468Z" fill="#F3F3F3"/>
<path d="M14.6272 16.4601C14.5608 16.5531 14.428 16.5664 14.3351 16.5L13.3655 15.7429C13.2726 15.6765 13.2593 15.5437 13.3257 15.4507C13.3921 15.3578 13.5249 15.3445 13.6179 15.4109L14.5874 16.1679C14.6804 16.2343 14.6937 16.3671 14.6272 16.4601ZM13.3522 15.464C13.2858 15.5437 13.2991 15.65 13.3788 15.7164L14.3483 16.4734C14.428 16.5265 14.5343 16.5132 14.6007 16.4335C14.6671 16.3539 14.6538 16.2476 14.5741 16.1812L13.6046 15.4242C13.5249 15.371 13.4187 15.3843 13.3522 15.464Z" fill="white"/>
<path d="M16.5929 16.5797C16.5132 16.6594 16.3937 16.6594 16.3273 16.5797L14.3484 14.6273C14.2687 14.5476 14.2819 14.4281 14.3484 14.3617C14.428 14.282 14.5476 14.282 14.614 14.3617L16.5796 16.3141C16.6593 16.3805 16.6593 16.5133 16.5929 16.5797Z" fill="#F3F3F3"/>
<path d="M16.593 16.5929C16.5133 16.6726 16.3805 16.6726 16.3008 16.5929L14.3352 14.6406C14.2555 14.5609 14.2555 14.4281 14.3352 14.3484C14.4148 14.2687 14.5477 14.2687 14.6273 14.3484L16.593 16.3007C16.6859 16.3804 16.6859 16.5132 16.593 16.5929ZM14.3617 14.375C14.2953 14.4414 14.2953 14.5609 14.3617 14.6273L16.3273 16.5797C16.3938 16.6461 16.5133 16.6461 16.5797 16.5797C16.6461 16.5132 16.6461 16.3937 16.5797 16.3273L14.6141 14.3617C14.5477 14.2953 14.4414 14.2953 14.3617 14.375Z" fill="white"/>
<path d="M16.4733 14.6008C16.3936 14.6672 16.2741 14.6672 16.2077 14.5875L15.3975 13.6578C15.3311 13.5781 15.3444 13.4586 15.4241 13.3922C15.5037 13.3258 15.6233 13.3258 15.6897 13.4055L16.4998 14.3352C16.5662 14.4016 16.553 14.5211 16.4733 14.6008Z" fill="#F3F3F3"/>
<path d="M16.4867 14.6008C16.3937 14.6805 16.2742 14.6672 16.1945 14.5875L15.3844 13.6578C15.3047 13.5781 15.3179 13.4453 15.4109 13.3656C15.5039 13.2859 15.6234 13.2992 15.7031 13.3789L16.5133 14.3086C16.5797 14.4015 16.5797 14.5344 16.4867 14.6008ZM15.4242 13.3922C15.3445 13.4586 15.3445 13.5648 15.3976 13.6445L16.2078 14.5742C16.2742 14.6406 16.3804 14.6539 16.4601 14.5875C16.5398 14.5211 16.5398 14.4148 16.4867 14.3351L15.6765 13.4055C15.6101 13.3258 15.5039 13.3258 15.4242 13.3922Z" fill="white"/>
<path d="M18.3857 15.1054C18.2928 15.1718 18.1732 15.1453 18.1201 15.0523L16.5662 12.7547C16.5131 12.6617 16.5397 12.5422 16.6193 12.489C16.7123 12.4226 16.8318 12.4492 16.885 12.5422L18.4256 14.8398C18.492 14.9328 18.4654 15.0523 18.3857 15.1054Z" fill="#F3F3F3"/>
<path d="M18.3861 15.1188C18.2931 15.1852 18.1603 15.1586 18.0939 15.0656L16.5533 12.768C16.4869 12.675 16.5135 12.5422 16.6197 12.4758C16.7127 12.4094 16.8455 12.4359 16.9119 12.5289L18.4525 14.8266C18.5189 14.9328 18.4924 15.0524 18.3861 15.1188ZM16.633 12.5024C16.5533 12.5555 16.5267 12.6617 16.5799 12.7414L18.1205 15.0391C18.1736 15.1188 18.2799 15.132 18.3728 15.0789C18.4525 15.0258 18.4791 14.9195 18.426 14.8399L16.8853 12.5555C16.8322 12.4758 16.7127 12.4492 16.633 12.5024Z" fill="white"/>
<path d="M18.6645 13.1398C18.5715 13.1929 18.452 13.1663 18.3989 13.0734L17.788 11.9976C17.7348 11.9046 17.7747 11.7851 17.8676 11.732C17.9606 11.6788 18.0801 11.7054 18.1333 11.7984L18.7442 12.8742C18.784 12.9671 18.7575 13.0867 18.6645 13.1398Z" fill="#F3F3F3"/>
<path d="M18.6649 13.1531C18.5587 13.2062 18.4392 13.1796 18.386 13.0867L17.7751 12.0109C17.722 11.9179 17.7485 11.7851 17.8548 11.732C17.961 11.6788 18.0806 11.7054 18.1337 11.7984L18.7446 12.8742C18.7978 12.9671 18.7712 13.0867 18.6649 13.1531ZM17.8681 11.7453C17.7884 11.7984 17.7485 11.9046 17.8017 11.9843L18.4126 13.0601C18.4657 13.1398 18.572 13.1663 18.6517 13.1265C18.7313 13.0734 18.7712 12.9671 18.7181 12.8874L18.1071 11.8117C18.0673 11.732 17.9478 11.6921 17.8681 11.7453Z" fill="white"/>
<path d="M20.4314 14.0164C20.3251 14.0562 20.2189 14.0164 20.179 13.9234L19.1032 11.3601C19.0634 11.2672 19.1165 11.1476 19.2095 11.1078C19.3157 11.0679 19.422 11.1078 19.4618 11.2008L20.5376 13.764C20.5774 13.857 20.5243 13.9765 20.4314 14.0164Z" fill="#F3F3F3"/>
<path d="M20.4309 14.0297C20.3247 14.0695 20.2051 14.0297 20.152 13.9234L19.0762 11.3601C19.0364 11.2539 19.0895 11.1343 19.1957 11.0945C19.302 11.0547 19.4215 11.0945 19.4747 11.2008L20.5504 13.764C20.5903 13.857 20.5372 13.9765 20.4309 14.0297ZM19.2223 11.1211C19.1293 11.1609 19.0895 11.2672 19.1293 11.3468L20.2051 13.9101C20.245 14.0031 20.3512 14.0429 20.4442 14.0031C20.5372 13.9633 20.577 13.857 20.5372 13.7773L19.4614 11.214C19.4082 11.1211 19.3153 11.0812 19.2223 11.1211Z" fill="white"/>
<path d="M21.0824 12.1305C20.9762 12.1703 20.8699 12.1172 20.8301 12.0109L20.4449 10.8422C20.4051 10.7492 20.4715 10.6297 20.5644 10.6031C20.6574 10.5766 20.7769 10.6164 20.8168 10.7227L21.2019 11.8914C21.2418 11.9844 21.1887 12.0906 21.0824 12.1305Z" fill="#F3F3F3"/>
<path d="M21.0956 12.1437C20.9893 12.1836 20.8698 12.1305 20.8299 12.0242L20.4448 10.8555C20.4049 10.7492 20.4714 10.6297 20.5776 10.5898C20.6839 10.55 20.8034 10.6031 20.8432 10.7094L21.2284 11.8781C21.2549 11.9844 21.2018 12.1039 21.0956 12.1437ZM20.5776 10.6164C20.4846 10.643 20.4315 10.7492 20.4581 10.8422L20.8432 12.0109C20.8698 12.1039 20.976 12.1437 21.069 12.1172C21.162 12.0906 21.2151 11.9844 21.1885 11.8914L20.8034 10.7226C20.7768 10.6297 20.6706 10.5765 20.5776 10.6164Z" fill="white"/>
<path d="M22.6496 13.339C22.5433 13.3656 22.4371 13.2992 22.4238 13.1929L21.866 10.4703C21.8394 10.364 21.9191 10.2711 22.0254 10.2445C22.1316 10.2179 22.2379 10.2843 22.2511 10.3906L22.809 13.1133C22.8222 13.2062 22.7558 13.3125 22.6496 13.339Z" fill="#F3F3F3"/>
<path d="M22.6488 13.3523C22.5293 13.3789 22.423 13.2992 22.3965 13.1929L21.8386 10.4703C21.8121 10.364 21.8918 10.2445 21.998 10.2312C22.1176 10.2047 22.2238 10.2843 22.2504 10.3906L22.8082 13.1133C22.8347 13.2195 22.7683 13.3258 22.6488 13.3523ZM22.0246 10.2578C21.9316 10.2711 21.8652 10.364 21.8785 10.4703L22.4363 13.1929C22.4496 13.2859 22.5558 13.3523 22.6488 13.3258C22.7418 13.3125 22.8082 13.2195 22.7949 13.1133L22.2371 10.3906C22.2105 10.2976 22.1176 10.2445 22.0246 10.2578Z" fill="white"/>
<path d="M23.6586 11.6125C23.5523 11.6258 23.4594 11.5594 23.4328 11.4531L23.2734 10.2313C23.2601 10.125 23.3398 10.0321 23.4461 10.0188C23.5523 10.0055 23.6453 10.0719 23.6719 10.1781L23.8312 11.4C23.8445 11.5063 23.7648 11.5992 23.6586 11.6125Z" fill="#F3F3F3"/>
<path d="M23.6587 11.6258C23.5391 11.6391 23.4329 11.5594 23.4196 11.4531L23.2602 10.2313C23.247 10.125 23.3266 10.0188 23.4462 10.0055C23.5657 9.9922 23.672 10.0719 23.6852 10.1781L23.8446 11.4C23.8579 11.5063 23.7782 11.6125 23.6587 11.6258ZM23.4595 10.032C23.3665 10.0453 23.2868 10.1383 23.3001 10.2313L23.4595 11.4531C23.4727 11.5461 23.5657 11.6125 23.6587 11.5992C23.7516 11.5859 23.8313 11.493 23.818 11.4L23.6587 10.1781C23.6454 10.0852 23.5524 10.0188 23.4595 10.032Z" fill="white"/>
<path d="M25.0927 40.7117C33.7774 40.7117 40.8177 33.6714 40.8177 24.9867C40.8177 16.302 33.7774 9.26172 25.0927 9.26172C16.408 9.26172 9.36768 16.302 9.36768 24.9867C9.36768 33.6714 16.408 40.7117 25.0927 40.7117Z" fill="url(#paint2_linear_439_2532)" fill-opacity="0.2"/>
<g filter="url(#filter1_d_439_2532)">
<path d="M35.9837 15.0125L23.3001 23.1406H23.2868V23.1539L23.2735 23.1671L15.3579 36.2226L26.9923 26.8593L27.0056 26.846V26.8328L35.9837 15.0125Z" fill="black" fill-opacity="0.05"/>
</g>
<path d="M35.7445 14.2554L23.207 23.1672L26.9258 26.8593L35.7445 14.2554Z" fill="#CD151E"/>
<path d="M23.2202 23.1406L25.0929 24.9867L35.7444 14.2554L23.2202 23.1406Z" fill="#FA5153"/>
<path d="M23.2206 23.1406L26.9394 26.8328L14.4019 35.7445L23.2206 23.1406Z" fill="#ACACAC"/>
<path d="M14.4019 35.7445L25.0933 24.9867L23.2206 23.1406L14.4019 35.7445Z" fill="#EEEEEE"/>
<defs>
<filter id="filter0_d_439_2532" x="4" y="6" width="42" height="42" filterUnits="userSpaceOnUse" color-interpolation-filters="sRGB">
<feFlood flood-opacity="0" result="BackgroundImageFix"/>
<feColorMatrix in="SourceAlpha" type="matrix" values="0 0 0 0 0 0 0 0 0 0 0 0 0 0 0 0 0 0 127 0" result="hardAlpha"/>
<feOffset dy="2"/>
<feGaussianBlur stdDeviation="2"/>
<feColorMatrix type="matrix" values="0 0 0 0 0 0 0 0 0 0 0 0 0 0 0 0 0 0 0.266007 0"/>
<feBlend mode="normal" in2="BackgroundImageFix" result="effect1_dropShadow_439_2532"/>
<feBlend mode="normal" in="SourceGraphic" in2="effect1_dropShadow_439_2532" result="shape"/>
</filter>
<filter id="filter1_d_439_2532" x="11.3579" y="12.0125" width="28.626" height="29.2101" filterUnits="userSpaceOnUse" color-interpolation-filters="sRGB">
<feFlood flood-opacity="0" result="BackgroundImageFix"/>
<feColorMatrix in="SourceAlpha" type="matrix" values="0 0 0 0 0 0 0 0 0 0 0 0 0 0 0 0 0 0 127 0" result="hardAlpha"/>
<feOffset dy="1"/>
<feGaussianBlur stdDeviation="2"/>
<feColorMatrix type="matrix" values="0 0 0 0 0 0 0 0 0 0 0 0 0 0 0 0 0 0 0.0509804 0"/>
<feBlend mode="normal" in2="BackgroundImageFix" result="effect1_dropShadow_439_2532"/>
<feBlend mode="normal" in="SourceGraphic" in2="effect1_dropShadow_439_2532" result="shape"/>
</filter>
<linearGradient id="paint0_linear_439_2532" x1="1708" y1="3408" x2="1708" y2="8" gradientUnits="userSpaceOnUse">
<stop offset="0.25" stop-color="#DBDBDA"/>
<stop offset="1" stop-color="white"/>
</linearGradient>
<radialGradient id="paint1_radial_439_2532" cx="0" cy="0" r="1" gradientUnits="userSpaceOnUse" gradientTransform="translate(1802.72 1236.35) scale(1919.44)">
<stop stop-color="#2ABCE1"/>
<stop offset="0.113629" stop-color="#2ABBE1"/>
<stop offset="1" stop-color="#3375F8"/>
</radialGradient>
<linearGradient id="paint2_linear_439_2532" x1="1552" y1="1132.14" x2="818.038" y2="2448.9" gradientUnits="userSpaceOnUse">
<stop stop-opacity="0"/>
<stop offset="1"/>
</linearGradient>
</defs>
</svg>
