<svg width="50" height="50" viewBox="0 0 50 50" fill="none" xmlns="http://www.w3.org/2000/svg">
<path d="M38.3545 9.00042C38.4338 8.99533 38.5091 9.03651 38.5485 9.10657C38.5879 9.17664 38.5847 9.26338 38.5401 9.33018L30.5118 20.4004C30.453 20.4679 30.3685 20.5064 30.2798 20.5064C30.1911 20.5064 30.1066 20.4679 30.0478 20.4004L27.217 17.1971C27.1479 17.1243 27.0499 17.0872 26.9507 17.0964C26.8514 17.1055 26.7616 17.1599 26.7066 17.2442L24.9895 19.4583C24.9352 19.583 24.9531 19.7279 25.0359 19.8351L30.1406 25.2054C30.1994 25.2728 30.2839 25.3114 30.3726 25.3114C30.4613 25.3114 30.5458 25.2728 30.6047 25.2054L40.6283 13.7583C40.6875 13.6937 40.7792 13.6718 40.8606 13.7028C40.9419 13.7337 40.9968 13.8115 40.9996 13.8996V41.7401C41.0034 41.8037 40.9802 41.8659 40.9358 41.911C40.8915 41.956 40.8302 41.9796 40.7676 41.9757H10.2324C10.1698 41.9796 10.1085 41.956 10.0642 41.911C10.0198 41.8659 9.99657 41.8037 10.0004 41.7401V9.23596C9.99657 9.17238 10.0198 9.11017 10.0642 9.06513C10.1085 9.02009 10.1698 8.99652 10.2324 9.00042H38.3545ZM30.4654 27.7963C29.0839 27.7717 27.7524 28.3212 26.7797 29.3174C25.8071 30.3137 25.2777 31.6702 25.3144 33.0724C25.3144 36.3228 27.6347 38.3955 30.6511 38.3955C32.0474 38.4308 33.4166 38.0006 34.5492 37.1707C34.6541 37.0739 34.6739 36.9139 34.5956 36.7939L33.7603 35.5219C33.6663 35.4126 33.5065 35.3924 33.389 35.4748C32.663 35.9782 31.8085 36.2564 30.9295 36.2757C29.3053 36.2757 28.2844 35.2393 28.0987 34.0145C28.1021 33.964 28.1417 33.9237 28.1915 33.9203H35.1988C35.3482 33.91 35.4672 33.7893 35.4773 33.6376V33.355C35.4773 30.0575 33.4354 27.7963 30.4654 27.7963ZM23.551 26.0062C22.1414 24.8367 20.358 24.2332 18.5391 24.3104C15.3835 24.3104 13.4345 26.1947 13.4345 28.4558C13.4345 33.5905 21.1378 31.9418 21.1378 34.3443C21.1378 35.098 20.3953 35.8517 18.8175 35.8517C17.319 35.8643 15.8733 35.2907 14.7802 34.25C14.715 34.1881 14.6266 34.1578 14.5377 34.1668C14.4488 34.1758 14.368 34.2233 14.3162 34.2972L13.1096 35.993C13.0313 36.1131 13.051 36.2731 13.156 36.3699C14.409 37.5476 16.1724 38.3484 18.6319 38.3484C22.2516 38.3484 24.015 36.4641 24.1078 34.0145C24.1078 28.9269 16.4044 30.3872 16.4044 28.2203C16.4044 27.4195 17.1005 26.8542 18.3071 26.8542C19.6371 26.8357 20.9325 27.2851 21.9731 28.1261C22.0343 28.177 22.1131 28.2006 22.1917 28.1918C22.2704 28.1829 22.3421 28.1422 22.3908 28.079L23.5974 26.4302C23.6475 26.3681 23.6708 26.2881 23.6621 26.2083C23.6533 26.1285 23.6133 26.0557 23.551 26.0062ZM30.5118 29.869C31.774 29.7974 32.8637 30.7574 32.9714 32.036C32.968 32.0865 32.9283 32.1268 32.8785 32.1302H28.1451C28.0953 32.1268 28.0557 32.0865 28.0523 32.036C28.2075 30.7825 29.2675 29.8486 30.5118 29.869Z" fill="#2CB134"/>
</svg>
