<svg width="50" height="50" viewBox="0 0 50 50" fill="none" xmlns="http://www.w3.org/2000/svg">
<g clip-path="url(#clip0_352_7604)">
<path d="M25.9456 38.2053C18.9102 38.2053 10.9162 29.8529 11.5555 22.9189C12.1948 16.3002 21.1489 10.1543 27.784 11.0998C33.6203 11.8873 38.8172 19.1368 38.4964 24.8889C38.1778 30.955 32.1011 38.2053 25.9456 38.2053Z" fill="white"/>
<path d="M30.9829 41.7496C30.5025 41.5923 29.783 41.4349 29.3836 41.2768C28.9039 41.0412 28.344 41.0412 26.5857 41.1195C24.9069 41.1978 24.027 41.1195 22.8286 40.9614C16.4325 39.8593 11.3158 35.289 9.47735 28.9858C9.15732 27.8039 9.07788 27.1738 9.07788 24.3372C9.07788 21.2636 8.99768 21.0279 8.59821 19.767C6.28007 13.542 10.9965 7.00244 17.7119 7.00244C19.0707 7.00244 20.7495 7.3969 21.7089 7.86892C22.3489 8.18434 22.7484 8.26264 25.2262 8.26264C27.4649 8.26264 28.344 8.34168 29.463 8.6571C34.5003 9.91804 38.5767 13.1483 40.7352 17.6396C42.094 20.3971 42.5744 23.2344 42.2536 26.4639C42.094 28.1984 42.094 28.3557 42.4935 29.3795C43.7728 33.0833 42.5737 37.3374 39.4558 39.8593C38.4957 40.6475 36.5778 41.514 35.3787 41.8294C34.1787 42.0658 32.2608 42.0658 31.0609 41.7503L30.9829 41.7496ZM28.8237 35.6828C31.4626 35.1317 33.78 33.5553 34.6599 31.665C35.7789 29.3795 35.4588 26.7003 33.9404 25.0456C32.661 23.6274 30.7424 22.8399 26.1855 21.7371C23.1471 21.0279 22.4276 20.7125 21.7883 20.0034C21.2285 19.3725 21.1483 18.9005 21.6287 18.1914C22.1083 17.4032 23.3075 16.9304 24.9062 16.8521C27.2251 16.6948 28.2638 17.2458 29.6226 19.3733C30.6622 20.9496 31.7009 21.3433 33.0613 20.7125C34.8195 19.846 34.6599 17.0095 32.7405 15.3548C30.902 13.8582 28.9039 13.2274 25.5455 13.2274C22.0282 13.2274 19.6291 13.9365 18.0304 15.5121C16.7511 16.7731 16.512 17.4822 16.512 19.4516C16.512 21.4999 16.7518 22.13 18.1106 23.3127C19.5496 24.6519 20.7488 25.1254 25.0651 26.1492C28.1034 26.8584 28.9031 27.2521 29.6219 28.0403C29.9427 28.4347 30.1023 28.7494 30.1023 29.4586C30.1023 30.2467 30.0221 30.4041 29.3828 31.0349C28.4235 31.9797 26.9845 32.3734 25.146 32.2959C22.9875 32.1378 22.0282 31.5077 20.9092 29.3012C20.1095 27.8046 19.4702 27.2528 18.4306 27.2528C16.1118 27.2528 15.3128 29.1439 16.512 31.586C17.5515 33.7141 19.6298 35.1324 22.268 35.6835C23.8666 35.9989 27.3847 35.9989 28.9039 35.6835L28.8237 35.6828Z" fill="#00AFF0"/>
</g>
<defs>
<clipPath id="clip0_352_7604">
<rect width="35" height="35" fill="white" transform="translate(8 7)"/>
</clipPath>
</defs>
</svg>
