<svg width="50" height="50" viewBox="0 0 50 50" fill="none" xmlns="http://www.w3.org/2000/svg">
<g clip-path="url(#clip0_357_7702)">
<path d="M13.1 8H36.9C39.7163 8 42 10.2837 42 13.1V36.9C42 39.7161 39.7163 42 36.9 42H13.1C10.2839 42 8 39.7161 8 36.9V13.1C8 10.2837 10.2839 8 13.1 8Z" fill="#A4C639"/>
<path d="M13.1797 22.0781C13.1797 21.0146 14.0418 20.1522 15.1054 20.1522C16.1691 20.1522 17.0312 21.0146 17.0312 22.0781V29.1172C17.0312 30.1807 16.1691 31.0429 15.1054 31.0429C14.0418 31.0429 13.1797 30.1807 13.1797 29.1172V22.0781ZM25.0665 13.0469C23.7936 13.0469 22.6774 13.3006 21.7192 13.7275L21.715 13.7192L20.5862 11.5942C20.5173 11.4648 20.3565 11.4155 20.227 11.4841C20.0976 11.553 20.0483 11.7139 20.1172 11.8433L21.2421 13.961C18.7162 15.3132 17.4297 17.9136 17.4297 20.0196L32.6368 20.0194C32.6368 17.819 31.2501 15.2883 28.7564 13.9638L29.9461 11.8484C30.0178 11.7207 29.9723 11.5589 29.8446 11.4873C29.7169 11.4157 29.5551 11.4612 29.4835 11.5891L28.2882 13.7141C28.285 13.7196 28.2821 13.7256 28.2793 13.7313C27.3424 13.3148 26.2674 13.0634 25.0665 13.0469ZM17.4297 20.6837V31.5743C17.4297 32.6368 18.2931 33.5 19.2891 33.5H20.2853V37.2188C20.2853 38.2823 21.1474 39.1446 22.2109 39.1446C23.2745 39.1446 24.1366 38.2823 24.1366 37.2188V33.5H25.9297V37.2188C25.9297 38.2823 26.7918 39.1446 27.8556 39.1446C28.9191 39.1446 29.7812 38.2823 29.7812 37.2188V33.5H30.7109C31.7734 33.5 32.6368 32.6368 32.6368 31.5743V20.6837H17.4297ZM33.0353 22.0781C33.0353 21.0146 33.8974 20.1522 34.9609 20.1522C36.0245 20.1522 36.8868 21.0146 36.8868 22.0781V29.1172C36.8868 30.1807 36.0245 31.0429 34.9609 31.0429C33.8974 31.0429 33.0353 30.1807 33.0353 29.1172V22.0781Z" fill="#FEFEFE"/>
<path d="M22.1443 16.6328C22.1443 16.3028 21.8768 16.0353 21.5468 16.0353C21.2168 16.0353 20.9492 16.3028 20.9492 16.6328C20.9492 16.9628 21.2168 17.2304 21.5468 17.2304C21.8768 17.2304 22.1443 16.9628 22.1443 16.6328Z" fill="#A4C639"/>
<path d="M29.1172 16.6328C29.1172 16.3028 28.8496 16.0353 28.5194 16.0353C28.1894 16.0353 27.9219 16.3028 27.9219 16.6328C27.9219 16.9628 28.1894 17.2304 28.5194 17.2304C28.8496 17.2304 29.1172 16.9628 29.1172 16.6328Z" fill="#A4C639"/>
</g>
<defs>
<clipPath id="clip0_357_7702">
<rect width="34" height="34" fill="white" transform="translate(8 8)"/>
</clipPath>
</defs>
</svg>
