<svg width="50" height="50" viewBox="0 0 50 50" fill="none" xmlns="http://www.w3.org/2000/svg">
<path d="M34.7466 12.1637C30.5992 8.86581 21.5003 7.19699 14.6867 11.9651C8.29624 16.0179 8 23.3687 8 23.3687C9.10034 27.3818 13.417 31.236 21.7119 29.3685C20.7385 23.9647 22.6853 10.2565 34.7466 12.1637Z" fill="#00ACD2"/>
<path d="M30.6711 25.0469C26.177 28.7022 12.4404 34.3097 8.20068 23.0532C7.18315 28.2868 9.98135 37.0096 17.8248 40.291C24.7779 43.614 31.9854 39.751 31.9854 39.751C35.1651 36.7188 36.6066 31.1113 30.6711 25.0469Z" fill="#C8E9EB"/>
<path d="M22.0532 20.239C27.6336 22.2515 39.524 30.972 31.6257 40.2796C36.8197 38.5187 42.9151 31.7686 41.8849 23.3835C41.3698 15.7529 34.6734 11.6023 34.6734 11.6023C30.3379 10.4284 24.5429 12.1054 22.0532 20.239Z" fill="#662D91"/>
</svg>
