<svg width="50" height="50" viewBox="0 0 50 50" fill="none" xmlns="http://www.w3.org/2000/svg">
<path d="M37.6404 13.345C35.299 12.2495 32.7954 11.4533 30.178 11C29.8566 11.5812 29.481 12.3628 29.2221 12.9847C26.4397 12.5662 23.683 12.5662 20.9518 12.9847C20.6929 12.3628 20.3088 11.5812 19.9845 11C17.3643 11.4533 14.8578 12.2524 12.5164 13.3508C7.79372 20.4874 6.51348 27.4467 7.1536 34.3072C10.2859 36.6463 13.3215 38.0673 16.3059 38.9971C17.0428 37.983 17.6999 36.905 18.2661 35.7688C17.1878 35.3591 16.1551 34.8535 15.1793 34.2665C15.4382 34.0747 15.6914 33.8742 15.9361 33.6679C21.8877 36.4517 28.3544 36.4517 34.235 33.6679C34.4825 33.8742 34.7357 34.0747 34.9917 34.2665C34.013 34.8564 32.9775 35.362 31.8993 35.7717C32.4654 36.905 33.1198 37.9859 33.8594 39C36.8467 38.0702 39.8851 36.6493 43.0174 34.3072C43.7685 26.3541 41.7344 19.4587 37.6404 13.345ZM19.0769 30.088C17.2903 30.088 15.8251 28.4201 15.8251 26.389C15.8251 24.3578 17.259 22.687 19.0769 22.687C20.8949 22.687 22.36 24.3549 22.3287 26.389C22.3316 28.4201 20.8949 30.088 19.0769 30.088ZM31.0941 30.088C29.3075 30.088 27.8423 28.4201 27.8423 26.389C27.8423 24.3578 29.2762 22.687 31.0941 22.687C32.912 22.687 34.3772 24.3549 34.3459 26.389C34.3459 28.4201 32.912 30.088 31.0941 30.088Z" fill="#5865F2"/>
</svg>
