<svg width="50" height="50" viewBox="0 0 50 50" fill="none" xmlns="http://www.w3.org/2000/svg">
<path fill-rule="evenodd" clip-rule="evenodd" d="M19.3762 31.0017C19.6161 31.0516 19.8331 31.1894 19.9909 31.3922C20.1487 31.5949 20.2379 31.8504 20.2436 32.1159C20.2493 32.3815 20.1711 32.6412 20.0221 32.8517C19.8731 33.0622 19.6623 33.2108 19.4248 33.2728H19.3762C19.238 33.273 19.1013 33.2426 18.9743 33.1836C18.8473 33.1246 18.7326 33.0382 18.6372 32.9295C18.5418 32.8209 18.4677 32.6923 18.4194 32.5515C18.3711 32.4108 18.3496 32.2609 18.3562 32.1108C18.368 31.8208 18.4793 31.5461 18.6681 31.3409C18.8569 31.1356 19.1095 31.0146 19.3762 31.0017Z" fill="#D3ECEC"/>
<path fill-rule="evenodd" clip-rule="evenodd" d="M43.135 21.2141C43.4264 18.7846 41.7264 16.8303 40.6578 15.8796C39.4435 17.4113 39.2492 21.4254 41.1435 23.1155C40.1235 24.1191 37.8406 25.0698 35.5577 25.0698H7.67742C7.42961 27.4791 7.81706 29.9155 8.79458 32.0944L9.13458 32.7282C9.32887 33.0979 9.57173 33.4677 9.81459 33.8374C10.9317 33.8902 12.0003 33.943 12.9718 33.8902C14.5362 33.912 16.0939 33.6624 17.5861 33.1507C17.6307 33.1347 17.6779 33.1289 17.7247 33.1337C17.7715 33.1385 17.8168 33.1538 17.8579 33.1786C17.899 33.2034 17.9349 33.2372 17.9633 33.2779C17.9918 33.3185 18.0122 33.3652 18.0232 33.4148C18.0368 33.506 18.0257 33.5996 17.9912 33.684C17.9567 33.7684 17.9003 33.8401 17.829 33.8902L17.3432 34.0486C16.2964 34.3556 15.221 34.5328 14.1375 34.5768H10.3975C12.7289 37.4289 16.3718 39.1191 20.9376 39.1191C30.5548 39.1191 38.7635 34.4712 42.3578 24.0134C44.9321 24.3303 47.4093 23.5909 48.5264 21.2141C46.7293 20.105 44.4464 20.4747 43.135 21.1613" fill="#22A0C8"/>
<path fill-rule="evenodd" clip-rule="evenodd" d="M29.0736 19.4542H33.445V24.3134H35.6308C36.6687 24.297 37.6992 24.1191 38.6908 23.7852C39.1903 23.5723 39.677 23.3253 40.148 23.0458C39.5486 22.1499 39.195 21.0878 39.128 19.9824C38.9822 18.5035 39.2737 16.6021 40.1965 15.4401L40.6337 14.8592L41.168 15.3345C42.5766 16.5493 43.6937 18.1866 43.9366 20.088C45.6195 19.5431 47.4315 19.7325 48.9881 20.6162L49.5709 20.9859L49.2795 21.6725C48.0166 24.2606 45.4423 25.1056 42.9166 24.9472C39.1765 35.1408 30.9679 40 21.0106 40C15.862 40 11.1505 37.8873 8.43048 32.9225L7.99333 32.0246C7.13792 29.8444 6.80374 27.4642 7.0219 25.1056V24.3134H10.7619V19.4542H15.0848V14.7535H23.8278V10H29.0736V19.4542Z" fill="#364548"/>
<path fill-rule="evenodd" clip-rule="evenodd" d="M43.2098 21.2504C43.5012 18.8208 41.8012 16.8666 40.7326 15.9159C39.5183 17.4476 39.324 21.4617 41.2183 23.1518C40.1983 24.1553 37.9154 25.106 35.6326 25.106H9.40369C9.25798 29.0673 10.618 32.1307 13.0466 33.9265C14.6111 33.9483 16.1687 33.6986 17.6609 33.187C17.7055 33.171 17.7527 33.1652 17.7995 33.17C17.8463 33.1748 17.8917 33.1901 17.9327 33.2149C17.9738 33.2397 18.0097 33.2735 18.0382 33.3142C18.0666 33.3548 18.087 33.4014 18.0981 33.4511C18.1117 33.5423 18.1005 33.6358 18.066 33.7202C18.0315 33.8047 17.9751 33.8763 17.9038 33.9265L17.4181 34.0849C16.3352 34.3849 15.2298 34.5794 14.1152 34.6659H14.0666C17.3695 36.5145 22.1295 36.5145 27.5696 34.2434C33.7975 31.4846 39.2436 26.9838 43.3555 21.1976H43.2098" fill="#37B1D9"/>
<path fill-rule="evenodd" clip-rule="evenodd" d="M7.7998 28.275C7.94789 29.6178 8.30947 30.9224 8.86839 32.1306L9.20839 32.7644C9.40268 33.1341 9.64554 33.5038 9.8884 33.8736C11.0056 33.9264 12.0741 33.9792 13.0456 33.9264C14.6101 33.9482 16.1677 33.6986 17.6599 33.1869C17.7045 33.1709 17.7517 33.1651 17.7985 33.1699C17.8453 33.1747 17.8906 33.19 17.9317 33.2148C17.9728 33.2396 18.0087 33.2734 18.0371 33.3141C18.0656 33.3547 18.086 33.4014 18.0971 33.451C18.1107 33.5422 18.0995 33.6357 18.065 33.7202C18.0305 33.8046 17.9741 33.8762 17.9028 33.9264L17.4171 34.0848C16.335 34.3894 15.2293 34.5839 14.1142 34.6658H10.4713C12.8027 37.5179 16.4456 39.2081 21.0114 39.2081C29.2686 39.2081 36.4573 35.775 40.5859 28.275H7.7998Z" fill="#1B81A5"/>
<path fill-rule="evenodd" clip-rule="evenodd" d="M9.64404 28.275C9.84161 29.4136 10.2436 30.4988 10.827 31.4685C11.4104 32.4382 12.1637 33.2734 13.0441 33.9264C14.6086 33.9482 16.1662 33.6986 17.6584 33.1869C17.703 33.1709 17.7502 33.1651 17.797 33.1699C17.8438 33.1747 17.8891 33.19 17.9302 33.2148C17.9713 33.2396 18.0072 33.2734 18.0357 33.3141C18.0641 33.3547 18.0845 33.4014 18.0956 33.451C18.1092 33.5422 18.098 33.6357 18.0635 33.7202C18.029 33.8046 17.9726 33.8762 17.9013 33.9264L17.4156 34.0848C16.3327 34.3849 15.2273 34.5793 14.1127 34.6658C17.367 36.4616 22.127 36.4616 27.5671 34.1905C30.9403 32.7593 34.0869 30.7634 36.8929 28.275H9.64404Z" fill="#1D91B4"/>
<path fill-rule="evenodd" clip-rule="evenodd" d="M11.5386 20.2469H15.2786V24.3666H11.5386V20.2469ZM11.83 20.6166H12.1214V24.0497H11.83V20.6166ZM12.4129 20.6166H12.7043V24.0497H12.4129V20.6166ZM12.9472 20.6166H13.2872V24.0497H12.9472V20.6166ZM13.53 20.6166H13.87V24.0497H13.53V20.6166ZM14.1129 20.6166H14.4043V24.0497H14.1129V20.6166ZM14.6958 20.6166H14.9872V24.0497H14.6958V20.6166ZM15.8615 15.5462H19.6501V19.6131H15.8615V15.5462ZM16.2015 15.8631H16.4929V19.2962H16.2015V15.8631ZM16.7358 15.8631H17.0758V19.2962H16.7358V15.8631ZM17.3186 15.8631H17.6101V19.2962H17.3186V15.8631ZM17.9015 15.8631H18.1929V19.2962H17.9015V15.8631ZM18.4844 15.8631H18.7758V19.2962H18.4844V15.8631ZM19.0187 15.8631H19.3587V19.2962H19.0187V15.8631Z" fill="#23A3C2"/>
<path fill-rule="evenodd" clip-rule="evenodd" d="M15.8633 20.2469H19.6519V24.3667H15.8633V20.2469ZM16.2033 20.6167H16.4947V24.0498H16.2033V20.6167ZM16.7376 20.6167H17.0776V24.0498H16.7376V20.6167ZM17.3204 20.6167H17.6119V24.0498H17.3204V20.6167ZM17.9033 20.6167H18.1947V24.0498H17.9033V20.6167ZM18.4862 20.6167H18.7776V24.0498H18.4862V20.6167ZM19.0205 20.6167H19.3605V24.0498H19.0205V20.6167Z" fill="#34BBDE"/>
<path fill-rule="evenodd" clip-rule="evenodd" d="M20.2354 20.2469H24.024V24.3667H20.2354V20.2469ZM20.5268 20.6167H20.8668V24.0498H20.5268V20.6167ZM21.1096 20.6167H21.4011V24.0498H21.1096V20.6167ZM21.6925 20.6167H21.9839V24.0498H21.6925V20.6167ZM22.2754 20.6167H22.5668V24.0498H22.2754V20.6167ZM22.8097 20.6167H23.1497V24.0498H22.8097V20.6167ZM23.3925 20.6167H23.684V24.0498H23.3925V20.6167Z" fill="#23A3C2"/>
<path fill-rule="evenodd" clip-rule="evenodd" d="M20.2354 15.5462H24.024V19.6131H20.2354V15.5462ZM20.5268 15.8631H20.8668V19.2962H20.5268V15.8631ZM21.1096 15.8631H21.4011V19.2962H21.1096V15.8631ZM21.6925 15.8631H21.9839V19.2962H21.6925V15.8631ZM22.2754 15.8631H22.5668V19.2962H22.2754V15.8631ZM22.8097 15.8631H23.1497V19.2962H22.8097V15.8631ZM23.3925 15.8631H23.684V19.2962H23.3925V15.8631ZM24.6068 20.2469H28.3469V24.3666H24.6068V20.2469ZM24.8983 20.6166H25.1897V24.0497H24.8983V20.6166ZM25.4811 20.6166H25.7726V24.0497H25.4811V20.6166ZM26.0154 20.6166H26.3554V24.0497H26.0154V20.6166ZM26.5983 20.6166H26.9383V24.0497H26.5983V20.6166ZM27.1811 20.6166H27.4726V24.0497H27.1811V20.6166ZM27.764 20.6166H28.0554V24.0497H27.764V20.6166Z" fill="#34BBDE"/>
<path fill-rule="evenodd" clip-rule="evenodd" d="M24.605 15.5462H28.345V19.6131H24.605V15.5462ZM24.8964 15.8631H25.1878V19.2962H24.8964V15.8631ZM25.4793 15.8631H25.7707V19.2962H25.4793V15.8631ZM26.0136 15.8631H26.3536V19.2962H26.0136V15.8631ZM26.5964 15.8631H26.9364V19.2962H26.5964V15.8631ZM27.1793 15.8631H27.4707V19.2962H27.1793V15.8631ZM27.7622 15.8631H28.0536V19.2962H27.7622V15.8631Z" fill="#23A3C2"/>
<path fill-rule="evenodd" clip-rule="evenodd" d="M24.605 10.7917H28.345V14.9114H24.605V10.7917ZM24.8964 11.1614H25.1878V14.5417H24.8964V11.1614ZM25.4793 11.1614H25.7707V14.5417H25.4793V11.1614ZM26.0136 11.1614H26.3536V14.5417H26.0136V11.1614ZM26.5964 11.1614H26.9364V14.5417H26.5964V11.1614ZM27.1793 11.1614H27.4707V14.5417H27.1793V11.1614ZM27.7622 11.1614H28.0536V14.5417H27.7622V11.1614Z" fill="#34BBDE"/>
<path fill-rule="evenodd" clip-rule="evenodd" d="M28.9297 20.2469H32.7183V24.3667H28.9297V20.2469ZM29.2697 20.6167H29.5611V24.0498H29.2697V20.6167ZM29.804 20.6167H30.144V24.0498H29.804V20.6167ZM30.3868 20.6167H30.6783V24.0498H30.3868V20.6167ZM30.9697 20.6167H31.2611V24.0498H30.9697V20.6167ZM31.5526 20.6167H31.844V24.0498H31.5526V20.6167ZM32.0869 20.6167H32.3783V24.0498H32.0869V20.6167Z" fill="#23A3C2"/>
<path fill-rule="evenodd" clip-rule="evenodd" d="M19.4088 31.3372H19.7002C19.6325 31.3892 19.5818 31.4634 19.5556 31.5489C19.5293 31.6344 19.529 31.7268 19.5545 31.8126C19.6292 31.9043 19.7336 31.961 19.8459 31.971C19.8966 31.9756 19.9472 31.9627 19.9908 31.9343C20.0344 31.9059 20.0686 31.8633 20.0888 31.8126C20.1286 31.9095 20.1501 32.0141 20.1521 32.1201C20.154 32.2262 20.1364 32.3317 20.1001 32.4302C20.0639 32.5287 20.0098 32.6183 19.9411 32.6937C19.8724 32.7691 19.7905 32.8287 19.7002 32.8689C19.5131 32.9392 19.3083 32.9291 19.1278 32.8407C18.9473 32.7524 18.8046 32.5925 18.7288 32.3936C18.661 32.1965 18.6632 31.979 18.7351 31.7837C18.807 31.5883 18.9433 31.4291 19.1173 31.3372H19.4088ZM1 28.6964H25.2131H49.4262C48.3577 28.3795 46.0748 28.0098 46.4634 26.4781C44.569 28.9077 39.9547 28.1682 38.7404 27.0063C37.4775 29.0661 29.9003 28.2739 29.366 26.6894C27.7632 28.7492 22.7117 28.7492 21.0602 26.6894C20.5259 28.2739 12.9487 29.0661 11.6858 27.0063C10.5201 28.1682 5.8572 28.9077 3.96289 26.4781C4.35147 28.0098 2.06858 28.3795 1 28.6964Z" fill="#364548"/>
<path fill-rule="evenodd" clip-rule="evenodd" d="M22.1763 39.1545C19.602 37.8341 18.1934 36.0383 17.4162 34.0841C16.2866 34.3896 15.1309 34.5666 13.9676 34.6123H10.3247C12.7047 37.2003 15.6191 39.1545 21.0105 39.2073H22.1763" fill="#BDD9D7"/>
<path fill-rule="evenodd" clip-rule="evenodd" d="M18.3402 35.8799C17.9757 35.3181 17.6663 34.7162 17.4174 34.0841C16.2877 34.3896 15.132 34.5666 13.9688 34.6123C14.8916 35.1933 16.2031 35.6686 18.3402 35.8799Z" fill="#D3ECEC"/>
</svg>
