<svg width="50" height="50" viewBox="0 0 50 50" fill="none" xmlns="http://www.w3.org/2000/svg">
<path d="M41.5187 18.1098C40.7674 16.2807 39.2435 14.3058 38.0501 13.6815C38.9013 15.3495 39.4919 17.1408 39.8011 18.9918L39.8042 19.0211C37.8493 14.0891 34.5341 12.1012 31.8266 7.77132C31.6867 7.55059 31.551 7.32726 31.4193 7.10144C31.3514 6.98349 31.2878 6.86303 31.2288 6.74032C31.1165 6.52029 31.0299 6.28775 30.9709 6.04742C30.971 6.03633 30.967 6.0256 30.9598 6.01727C30.9526 6.00895 30.9425 6.00361 30.9317 6.00228C30.921 5.99932 30.9097 5.99932 30.8991 6.00228C30.8969 6.00228 30.8933 6.00634 30.8906 6.00679L30.8781 6.01402L30.8848 6.00228C26.5418 8.57527 25.0682 13.3385 24.9326 15.7209C23.1982 15.8414 21.54 16.488 20.1742 17.5762C20.0317 17.4542 19.8828 17.3402 19.7281 17.2345C19.3341 15.8392 19.3173 14.3625 19.6794 12.9584C18.0845 13.7402 16.6673 14.8484 15.5175 16.213H15.5095C14.8242 15.3341 14.8724 12.4361 14.9117 11.8308C14.7089 11.9132 14.5154 12.0172 14.3344 12.1409C13.7295 12.5777 13.1639 13.0679 12.6445 13.6057C12.0525 14.213 11.5118 14.8693 11.0281 15.5679C9.91649 17.1625 9.12803 18.9637 8.70827 20.8683L8.68507 20.9838C8.6213 21.3468 8.56463 21.711 8.5151 22.0762C8.5151 22.0893 8.51242 22.1015 8.51108 22.1146C8.35973 22.9106 8.26594 23.7167 8.23047 24.5264V24.6167C8.23426 28.9972 9.86197 33.217 12.7919 36.4419C15.7218 39.6669 19.7408 41.6624 24.0545 42.0341C28.3683 42.4059 32.6629 41.1268 36.0896 38.4496C39.5164 35.7724 41.8259 31.892 42.5617 27.5752C42.5907 27.3495 42.6144 27.126 42.6403 26.8981C42.9965 23.9197 42.6109 20.8989 41.5187 18.1098ZM21.5902 31.8044C21.6709 31.8436 21.7468 31.8856 21.8298 31.9235L21.8418 31.9312C21.7579 31.8906 21.6741 31.8483 21.5902 31.8044ZM39.8056 19.0252V19.0085L39.8087 19.0266L39.8056 19.0252Z" fill="url(#paint0_linear_439_2490)"/>
<path d="M41.5187 18.1098C40.7674 16.2807 39.2435 14.3058 38.0501 13.6815C38.9013 15.3495 39.4919 17.1408 39.8011 18.9918V19.0085L39.8042 19.0266C41.1371 22.8855 40.9443 27.1163 39.2662 30.8348C37.2845 35.1366 32.4877 39.5468 24.9794 39.3324C16.8666 39.0999 9.72187 33.0083 8.38617 25.0306C8.14303 23.7726 8.38617 23.1348 8.50841 22.1123C8.34166 22.9065 8.24861 23.7147 8.23047 24.5264V24.6167C8.23426 28.9972 9.86197 33.217 12.7919 36.4419C15.7218 39.6669 19.7408 41.6624 24.0545 42.0341C28.3683 42.4059 32.6629 41.1268 36.0896 38.4496C39.5164 35.7724 41.8259 31.892 42.5617 27.5752C42.5907 27.3495 42.6144 27.1261 42.6403 26.8981C42.9965 23.9197 42.6109 20.8989 41.5187 18.1098Z" fill="url(#paint1_radial_439_2490)"/>
<path d="M41.5187 18.1098C40.7674 16.2807 39.2435 14.3058 38.0501 13.6815C38.9013 15.3495 39.4919 17.1408 39.8011 18.9918V19.0085L39.8042 19.0266C41.1371 22.8855 40.9443 27.1163 39.2662 30.8348C37.2845 35.1366 32.4877 39.5468 24.9794 39.3324C16.8666 39.0999 9.72187 33.0083 8.38617 25.0306C8.14303 23.7726 8.38617 23.1348 8.50841 22.1123C8.34166 22.9065 8.24861 23.7147 8.23047 24.5264V24.6167C8.23426 28.9972 9.86197 33.217 12.7919 36.4419C15.7218 39.6669 19.7408 41.6624 24.0545 42.0341C28.3683 42.4059 32.6629 41.1268 36.0896 38.4496C39.5164 35.7724 41.8259 31.892 42.5617 27.5752C42.5907 27.3495 42.6144 27.1261 42.6403 26.8981C42.9965 23.9197 42.6109 20.8989 41.5187 18.1098Z" fill="url(#paint2_radial_439_2490)"/>
<path d="M33.1164 20.1663C33.1539 20.193 33.1886 20.2196 33.2239 20.2462C32.7896 19.467 32.2489 18.7535 31.6178 18.1269C26.2438 12.6884 30.2094 6.33494 30.8782 6.01219L30.8848 6.00226C26.5418 8.57524 25.0682 13.3384 24.9326 15.7209C25.1343 15.7069 25.3341 15.6893 25.5402 15.6893C27.0813 15.6922 28.5941 16.108 29.9248 16.8944C31.2555 17.6807 32.3567 18.8097 33.1164 20.1663Z" fill="url(#paint3_radial_439_2490)"/>
<path d="M25.5516 21.2524C25.5231 21.6875 24.0036 23.1884 23.4722 23.1884C18.5554 23.1884 17.7573 26.1979 17.7573 26.1979C17.975 28.7321 19.7203 30.8194 21.83 31.9235C21.9264 31.9741 22.0241 32.0196 22.1218 32.0643C22.291 32.1402 22.4602 32.2103 22.6295 32.2747C23.3535 32.534 24.1119 32.682 24.8793 32.7139C33.4971 33.1229 35.1665 22.2865 28.9475 19.1421C30.4146 18.9489 31.9004 19.3139 33.1166 20.1663C32.3569 18.8097 31.2557 17.6809 29.925 16.8946C28.5942 16.1083 27.0815 15.6926 25.5405 15.6898C25.3352 15.6898 25.1345 15.7069 24.9328 15.7209C23.1985 15.8414 21.5403 16.4879 20.1744 17.5762C20.4381 17.8019 20.7357 18.1039 21.3625 18.729C22.5358 19.8982 25.5449 21.1102 25.5516 21.2524Z" fill="url(#paint4_radial_439_2490)"/>
<path d="M25.5516 21.2524C25.5231 21.6875 24.0036 23.1884 23.4722 23.1884C18.5554 23.1884 17.7573 26.1979 17.7573 26.1979C17.975 28.7321 19.7203 30.8194 21.83 31.9235C21.9264 31.9741 22.0241 32.0196 22.1218 32.0643C22.291 32.1402 22.4602 32.2103 22.6295 32.2747C23.3535 32.534 24.1119 32.682 24.8793 32.7139C33.4971 33.1229 35.1665 22.2865 28.9475 19.1421C30.4146 18.9489 31.9004 19.3139 33.1166 20.1663C32.3569 18.8097 31.2557 17.6809 29.925 16.8946C28.5942 16.1083 27.0815 15.6926 25.5405 15.6898C25.3352 15.6898 25.1345 15.7069 24.9328 15.7209C23.1985 15.8414 21.5403 16.4879 20.1744 17.5762C20.4381 17.8019 20.7357 18.1039 21.3625 18.729C22.5358 19.8982 25.5449 21.1102 25.5516 21.2524Z" fill="url(#paint5_radial_439_2490)"/>
<path d="M19.3683 16.9948C19.5084 17.0851 19.6239 17.1636 19.7252 17.234C19.3313 15.8389 19.3145 14.3623 19.6766 12.9584C18.0816 13.7402 16.6644 14.8484 15.5146 16.213C15.599 16.2107 18.1071 16.1651 19.3683 16.9948Z" fill="url(#paint6_radial_439_2490)"/>
<path d="M8.38857 25.0306C9.72293 33.0087 16.869 39.0999 24.9818 39.3324C32.4901 39.5472 37.2869 35.137 39.2686 30.8347C40.9466 27.1164 41.1393 22.8858 39.8066 19.027V19.0103C39.8066 18.9967 39.804 18.9895 39.8066 18.9936L39.8098 19.0229C40.4232 23.0752 38.3862 27.001 35.2017 29.6557L35.1919 29.6783C28.9872 34.7913 23.0492 32.7631 21.8473 31.9353C21.7635 31.8946 21.6796 31.8524 21.5957 31.8084C17.9781 30.0588 16.4835 26.7238 16.8039 23.8638C15.9451 23.8766 15.1011 23.6371 14.3741 23.1744C13.6472 22.7118 13.0684 22.0457 12.708 21.2569C13.6576 20.6683 14.7404 20.3355 15.8532 20.2903C16.966 20.2451 18.0716 20.489 19.0648 20.9987C21.1125 21.9393 23.4426 22.0319 25.5569 21.2569C25.5502 21.1147 22.5411 19.9027 21.3677 18.7336C20.7409 18.1084 20.4434 17.8073 20.1797 17.5812C20.0372 17.459 19.8883 17.3448 19.7336 17.239C19.631 17.1681 19.5154 17.0914 19.3767 16.9993C18.1155 16.1696 15.6074 16.2152 15.5244 16.2175H15.5163C14.8311 15.3386 14.8793 12.4406 14.9185 11.8353C14.7158 11.9177 14.5223 12.0217 14.3412 12.1454C13.7363 12.5822 13.1708 13.0724 12.6513 13.6102C12.0572 14.2157 11.5143 14.8706 11.0283 15.5679C9.91666 17.1625 9.1282 18.9637 8.70844 20.8683C8.69996 20.9039 8.08565 23.6218 8.38857 25.0306Z" fill="url(#paint7_radial_439_2490)"/>
<path d="M31.619 18.1269C32.2503 18.7542 32.7909 19.4684 33.2251 20.2485C33.3201 20.3207 33.4089 20.3929 33.4843 20.4634C37.4044 24.1197 35.3504 29.2883 35.1974 29.6562C38.3819 27.0015 40.4171 23.0756 39.8055 19.0234C37.8496 14.0891 34.5345 12.1012 31.8269 7.77132C31.6871 7.55059 31.5513 7.32726 31.4196 7.10144C31.3517 6.98349 31.2882 6.86303 31.2291 6.74032C31.1168 6.52029 31.0303 6.28775 30.9712 6.04742C30.9713 6.03633 30.9674 6.0256 30.9601 6.01727C30.9529 6.00895 30.9429 6.00361 30.932 6.00228C30.9213 5.99932 30.9101 5.99932 30.8994 6.00228C30.8972 6.00228 30.8936 6.00634 30.8909 6.00679L30.8784 6.01402C30.2097 6.33451 26.2441 12.6884 31.619 18.1269Z" fill="url(#paint8_radial_439_2490)"/>
<path d="M33.4814 20.4611C33.3984 20.3854 33.3119 20.3137 33.2222 20.2462C33.187 20.2191 33.1522 20.1929 33.1147 20.1663C31.8985 19.3138 30.4128 18.9486 28.9456 19.1416C35.1647 22.2879 33.4961 33.1229 24.8774 32.7139C24.11 32.682 23.3516 32.534 22.6276 32.2747C22.4584 32.2106 22.2891 32.1405 22.1199 32.0643C22.0222 32.0192 21.9245 31.9741 21.8281 31.9235L21.8402 31.9312C23.042 32.7613 28.9782 34.7894 35.1847 29.6742L35.1945 29.6516C35.3494 29.286 37.4033 24.1161 33.4814 20.4611Z" fill="url(#paint9_radial_439_2490)"/>
<path d="M17.7573 26.198C17.7573 26.198 18.5554 23.1885 23.4721 23.1885C24.0035 23.1885 25.5243 21.6876 25.5515 21.2519C23.4373 22.0271 21.1072 21.9346 19.0595 20.9942C18.0663 20.4845 16.9606 20.2406 15.8478 20.2858C14.7351 20.331 13.6523 20.6637 12.7026 21.2524C13.0631 22.0412 13.6418 22.7073 14.3688 23.1699C15.0958 23.6326 15.9398 23.8721 16.7985 23.8592C16.4782 26.7198 17.9727 30.0547 21.5904 31.8039C21.6711 31.8432 21.747 31.8852 21.83 31.9231C19.7184 30.8194 17.975 28.7317 17.7573 26.198Z" fill="url(#paint10_radial_439_2490)"/>
<path d="M41.5187 18.1098C40.7674 16.2807 39.2435 14.3058 38.0501 13.6815C38.9013 15.3495 39.4919 17.1408 39.8011 18.9918L39.8042 19.0211C37.8493 14.0891 34.5341 12.1012 31.8266 7.77132C31.6867 7.55059 31.551 7.32726 31.4193 7.10144C31.3514 6.98349 31.2878 6.86303 31.2288 6.74032C31.1165 6.52029 31.0299 6.28775 30.9709 6.04742C30.971 6.03633 30.967 6.0256 30.9598 6.01727C30.9526 6.00895 30.9425 6.00361 30.9317 6.00228C30.921 5.99932 30.9097 5.99932 30.8991 6.00228C30.8969 6.00228 30.8933 6.00634 30.8906 6.00679L30.8781 6.01402L30.8848 6.00228C26.5418 8.57527 25.0682 13.3385 24.9326 15.7209C25.1342 15.707 25.3341 15.6893 25.5402 15.6893C27.0813 15.6923 28.5941 16.108 29.9248 16.8944C31.2555 17.6808 32.3567 18.8097 33.1163 20.1663C31.9002 19.3138 30.4144 18.9486 28.9473 19.1417C35.1663 22.2879 33.4978 33.1229 24.879 32.7139C24.1116 32.6821 23.3533 32.534 22.6292 32.2747C22.46 32.2106 22.2908 32.1405 22.1215 32.0644C22.0238 32.0192 21.9261 31.9741 21.8298 31.9235L21.8418 31.9312C21.7579 31.8906 21.6741 31.8483 21.5902 31.8044C21.6709 31.8436 21.7468 31.8856 21.8298 31.9235C19.7182 30.8194 17.9748 28.7321 17.7571 26.198C17.7571 26.198 18.5552 23.1885 23.472 23.1885C24.0033 23.1885 25.5241 21.6876 25.5514 21.252C25.5447 21.1102 22.5355 19.8978 21.3622 18.7286C20.7354 18.1039 20.4378 17.8028 20.1742 17.5767C20.0317 17.4545 19.8828 17.3403 19.7281 17.2345C19.3341 15.8392 19.3173 14.3625 19.6794 12.9584C18.0845 13.7402 16.6673 14.8484 15.5175 16.213H15.5095C14.8242 15.3341 14.8724 12.4361 14.9117 11.8308C14.7089 11.9132 14.5154 12.0172 14.3344 12.1409C13.7295 12.5777 13.1639 13.0679 12.6445 13.6057C12.0525 14.213 11.5118 14.8693 11.0281 15.5679C9.91649 17.1625 9.12803 18.9637 8.70827 20.8683L8.68507 20.9838C8.65251 21.1373 8.50662 21.9196 8.48565 22.0875C8.48565 22.074 8.48565 22.1001 8.48565 22.0875C8.35222 22.8946 8.26701 23.709 8.23047 24.5264V24.6167C8.23426 28.9972 9.86197 33.217 12.7919 36.4419C15.7218 39.6669 19.7408 41.6624 24.0545 42.0341C28.3683 42.4059 32.6629 41.1268 36.0896 38.4496C39.5164 35.7724 41.8259 31.892 42.5617 27.5752C42.5907 27.3495 42.6144 27.126 42.6403 26.8981C42.9965 23.9197 42.6109 20.8989 41.5187 18.1098Z" fill="url(#paint11_linear_439_2490)"/>
<defs>
<linearGradient id="paint0_linear_439_2490" x1="39.2301" y1="11.5924" x2="10.2016" y2="39.2722" gradientUnits="userSpaceOnUse">
<stop offset="0.048" stop-color="#FFF44F"/>
<stop offset="0.111" stop-color="#FFE847"/>
<stop offset="0.225" stop-color="#FFC830"/>
<stop offset="0.368" stop-color="#FF980E"/>
<stop offset="0.401" stop-color="#FF8B16"/>
<stop offset="0.462" stop-color="#FF672A"/>
<stop offset="0.534" stop-color="#FF3647"/>
<stop offset="0.705" stop-color="#E31587"/>
</linearGradient>
<radialGradient id="paint1_radial_439_2490" cx="0" cy="0" r="1" gradientUnits="userSpaceOnUse" gradientTransform="translate(37.9037 10.0062) scale(36.0457 36.4719)">
<stop offset="0.129" stop-color="#FFBD4F"/>
<stop offset="0.186" stop-color="#FFAC31"/>
<stop offset="0.247" stop-color="#FF9D17"/>
<stop offset="0.283" stop-color="#FF980E"/>
<stop offset="0.403" stop-color="#FF563B"/>
<stop offset="0.467" stop-color="#FF3750"/>
<stop offset="0.71" stop-color="#F5156C"/>
<stop offset="0.782" stop-color="#EB0878"/>
<stop offset="0.86" stop-color="#E50080"/>
</radialGradient>
<radialGradient id="paint2_radial_439_2490" cx="0" cy="0" r="1" gradientUnits="userSpaceOnUse" gradientTransform="translate(24.7323 24.9169) scale(36.0457 36.4719)">
<stop offset="0.3" stop-color="#960E18"/>
<stop offset="0.351" stop-color="#B11927" stop-opacity="0.74"/>
<stop offset="0.435" stop-color="#DB293D" stop-opacity="0.343"/>
<stop offset="0.497" stop-color="#F5334B" stop-opacity="0.094"/>
<stop offset="0.53" stop-color="#FF3750" stop-opacity="0"/>
</radialGradient>
<radialGradient id="paint3_radial_439_2490" cx="0" cy="0" r="1" gradientUnits="userSpaceOnUse" gradientTransform="translate(29.078 1.72929) scale(26.1136 26.4223)">
<stop offset="0.132" stop-color="#FFF44F"/>
<stop offset="0.252" stop-color="#FFDC3E"/>
<stop offset="0.506" stop-color="#FF9D12"/>
<stop offset="0.526" stop-color="#FF980E"/>
</radialGradient>
<radialGradient id="paint4_radial_439_2490" cx="0" cy="0" r="1" gradientUnits="userSpaceOnUse" gradientTransform="translate(20.7455 34.4437) scale(17.163 17.3659)">
<stop offset="0.353" stop-color="#3A8EE6"/>
<stop offset="0.472" stop-color="#5C79F0"/>
<stop offset="0.669" stop-color="#9059FF"/>
<stop offset="1" stop-color="#C139E6"/>
</radialGradient>
<radialGradient id="paint5_radial_439_2490" cx="0" cy="0" r="1" gradientUnits="userSpaceOnUse" gradientTransform="translate(26.7023 21.9278) rotate(-13.7462) scale(9.10567 10.7723)">
<stop offset="0.206" stop-color="#9059FF" stop-opacity="0"/>
<stop offset="0.278" stop-color="#8C4FF3" stop-opacity="0.064"/>
<stop offset="0.747" stop-color="#7716A8" stop-opacity="0.45"/>
<stop offset="0.975" stop-color="#6E008B" stop-opacity="0.6"/>
</radialGradient>
<radialGradient id="paint6_radial_439_2490" cx="0" cy="0" r="1" gradientUnits="userSpaceOnUse" gradientTransform="translate(24.2775 8.51388) scale(12.347 12.493)">
<stop stop-color="#FFE226"/>
<stop offset="0.121" stop-color="#FFDB27"/>
<stop offset="0.295" stop-color="#FFC82A"/>
<stop offset="0.502" stop-color="#FFA930"/>
<stop offset="0.732" stop-color="#FF7E37"/>
<stop offset="0.792" stop-color="#FF7139"/>
</radialGradient>
<radialGradient id="paint7_radial_439_2490" cx="0" cy="0" r="1" gradientUnits="userSpaceOnUse" gradientTransform="translate(33.9824 0.589958) scale(52.6792 53.3019)">
<stop offset="0.113" stop-color="#FFF44F"/>
<stop offset="0.456" stop-color="#FF980E"/>
<stop offset="0.622" stop-color="#FF5634"/>
<stop offset="0.716" stop-color="#FF3647"/>
<stop offset="0.904" stop-color="#E31587"/>
</radialGradient>
<radialGradient id="paint8_radial_439_2490" cx="0" cy="0" r="1" gradientUnits="userSpaceOnUse" gradientTransform="translate(29.5426 3.55368) rotate(84.0459) scale(39.0612 25.3425)">
<stop stop-color="#FFF44F"/>
<stop offset="0.06" stop-color="#FFE847"/>
<stop offset="0.168" stop-color="#FFC830"/>
<stop offset="0.304" stop-color="#FF980E"/>
<stop offset="0.356" stop-color="#FF8B16"/>
<stop offset="0.455" stop-color="#FF672A"/>
<stop offset="0.57" stop-color="#FF3647"/>
<stop offset="0.737" stop-color="#E31587"/>
</radialGradient>
<radialGradient id="paint9_radial_439_2490" cx="0" cy="0" r="1" gradientUnits="userSpaceOnUse" gradientTransform="translate(23.9865 13.1411) scale(32.8885 33.2773)">
<stop offset="0.137" stop-color="#FFF44F"/>
<stop offset="0.48" stop-color="#FF980E"/>
<stop offset="0.592" stop-color="#FF5634"/>
<stop offset="0.655" stop-color="#FF3647"/>
<stop offset="0.904" stop-color="#E31587"/>
</radialGradient>
<radialGradient id="paint10_radial_439_2490" cx="0" cy="0" r="1" gradientUnits="userSpaceOnUse" gradientTransform="translate(32.6682 15.089) scale(35.9962 36.4218)">
<stop offset="0.094" stop-color="#FFF44F"/>
<stop offset="0.231" stop-color="#FFE141"/>
<stop offset="0.509" stop-color="#FFAF1E"/>
<stop offset="0.626" stop-color="#FF980E"/>
</radialGradient>
<linearGradient id="paint11_linear_439_2490" x1="38.8852" y1="11.4426" x2="14.1745" y2="35.8641" gradientUnits="userSpaceOnUse">
<stop offset="0.167" stop-color="#FFF44F" stop-opacity="0.8"/>
<stop offset="0.266" stop-color="#FFF44F" stop-opacity="0.634"/>
<stop offset="0.489" stop-color="#FFF44F" stop-opacity="0.217"/>
<stop offset="0.6" stop-color="#FFF44F" stop-opacity="0"/>
</linearGradient>
</defs>
</svg>
