<svg width="34" height="34" viewBox="0 0 34 34" fill="none" xmlns="http://www.w3.org/2000/svg">
<path fill-rule="evenodd" clip-rule="evenodd" d="M9.66767 32.3479V27.3611V24.0366C10.5141 24.5159 11.4829 24.883 12.5741 25.138C13.6755 25.4031 14.6851 25.5255 15.6233 25.5255C17.2753 25.5255 18.5399 25.1584 19.4067 24.4241C20.2735 23.6899 20.7019 22.5987 20.7019 21.171C20.7019 18.4481 18.9682 17.0816 15.4805 17.0816C14.991 17.0816 14.3893 17.1326 13.6755 17.2346C12.9514 17.3263 12.3191 17.4385 11.7786 17.5711L10.1368 16.6023L11.0138 5.44571H22.8842V1.05039C21.0588 0.367127 19.0702 0 17 0C7.60768 0 0 7.60768 0 17C0 23.7714 3.94661 29.6047 9.66767 32.3479Z" fill="#DC514A"/>
<path fill-rule="evenodd" clip-rule="evenodd" d="M22.4659 15.8475C23.8121 17.0611 24.4851 18.7234 24.4851 20.8343C24.4851 23.2716 23.7203 25.1685 22.1906 26.5452C20.6711 27.9117 18.4989 28.6052 15.6843 28.6052C13.1348 28.6052 11.1258 28.1871 9.66748 27.361V32.3478C11.8906 33.4084 14.3789 33.9999 16.9998 33.9999C26.3921 33.9999 33.9998 26.3922 33.9998 16.9999C33.9998 9.67777 29.3801 3.44681 22.884 1.05029V5.44561V8.70896H14.2464L13.7365 14.3586C14.0934 14.2974 14.5421 14.2261 15.0724 14.1343C15.5925 14.0527 16.2452 14.0119 16.9998 14.0119C19.3046 14.0119 21.1198 14.6238 22.4659 15.8475Z" fill="#25A162"/>
<path fill-rule="evenodd" clip-rule="evenodd" d="M13.7365 14.3588L14.2464 8.70915H22.884V7.07747V5.4458H11.0136L10.1366 16.6024L11.7785 17.5712C12.319 17.4386 12.9512 17.3264 13.6753 17.2346C14.3891 17.1327 14.9908 17.0817 15.4803 17.0817C18.968 17.0817 20.7017 18.4482 20.7017 21.1711C20.7017 22.5988 20.2734 23.69 19.4065 24.4242C18.5397 25.1585 17.2752 25.5256 15.6231 25.5256C14.6849 25.5256 13.6753 25.4032 12.5739 25.1381C11.4827 24.8831 10.5139 24.516 9.66748 24.0367V25.699V27.3612C11.1258 28.1873 13.1348 28.6054 15.6843 28.6054C18.4989 28.6054 20.6711 27.9119 22.1906 26.5454C23.7203 25.1687 24.4851 23.2718 24.4851 20.8345C24.4851 18.7235 23.8121 17.0613 22.4659 15.8477C21.1198 14.624 19.3046 14.0121 16.9998 14.0121C16.2452 14.0121 15.5925 14.0529 15.0724 14.1345C14.5421 14.2262 14.0934 14.2976 13.7365 14.3588Z" fill="white"/>
</svg>
