<svg width="34" height="34" viewBox="0 0 34 34" fill="none" xmlns="http://www.w3.org/2000/svg">
<g clip-path="url(#clip0_347_7372)">
<path fill-rule="evenodd" clip-rule="evenodd" d="M9.66767 32.3479V27.3611V24.0366C10.5141 24.5159 11.4829 24.883 12.5741 25.138C13.6755 25.4031 14.6851 25.5255 15.6233 25.5255C17.2753 25.5255 18.5399 25.1584 19.4067 24.4241C20.2735 23.6899 20.7019 22.5987 20.7019 21.171C20.7019 18.4481 18.9682 17.0816 15.4805 17.0816C14.991 17.0816 14.3893 17.1326 13.6755 17.2346C12.9514 17.3263 12.3191 17.4385 11.7786 17.5711L10.1368 16.6023L11.0138 5.44571H22.8842V1.05039C21.0588 0.367127 19.0702 0 17 0C7.60768 0 0 7.60768 0 17C0 23.7714 3.94661 29.6047 9.66767 32.3479Z" fill="#DC514A"/>
<path fill-rule="evenodd" clip-rule="evenodd" d="M22.4659 15.8477C23.8121 17.0612 24.4851 18.7235 24.4851 20.8345C24.4851 23.2718 23.7203 25.1686 22.1906 26.5453C20.6711 27.9118 18.4989 28.6053 15.6843 28.6053C13.1348 28.6053 11.1258 28.1872 9.66748 27.3612V32.348C11.8906 33.4085 14.3789 34 16.9998 34C26.3921 34 33.9998 26.3923 33.9998 17C33.9998 9.67789 29.3801 3.44694 22.884 1.05042V5.44574V8.70908H14.2464L13.7365 14.3588C14.0934 14.2976 14.5421 14.2262 15.0724 14.1344C15.5925 14.0528 16.2452 14.012 16.9998 14.012C19.3046 14.012 21.1198 14.6239 22.4659 15.8477Z" fill="#25A162"/>
<path fill-rule="evenodd" clip-rule="evenodd" d="M13.7365 14.3588L14.2464 8.70909H22.884V7.07741V5.44574H11.0136L10.1366 16.6023L11.7785 17.5711C12.319 17.4385 12.9512 17.3264 13.6753 17.2346C14.3891 17.1326 14.9908 17.0816 15.4803 17.0816C18.968 17.0816 20.7017 18.4481 20.7017 21.171C20.7017 22.5987 20.2734 23.6899 19.4065 24.4241C18.5397 25.1584 17.2752 25.5255 15.6231 25.5255C14.6849 25.5255 13.6753 25.4031 12.5739 25.138C11.4827 24.8831 10.5139 24.5159 9.66748 24.0366V25.6989V27.3612C11.1258 28.1872 13.1348 28.6053 15.6843 28.6053C18.4989 28.6053 20.6711 27.9118 22.1906 26.5453C23.7203 25.1686 24.4851 23.2718 24.4851 20.8345C24.4851 18.7235 23.8121 17.0612 22.4659 15.8477C21.1198 14.6239 19.3046 14.012 16.9998 14.012C16.2452 14.012 15.5925 14.0528 15.0724 14.1344C14.5421 14.2262 14.0934 14.2976 13.7365 14.3588Z" fill="white"/>
</g>
<defs>
<clipPath id="clip0_347_7372">
<rect width="34" height="34" fill="white"/>
</clipPath>
</defs>
</svg>
