<svg width="50" height="50" viewBox="0 0 50 50" fill="none" xmlns="http://www.w3.org/2000/svg">
<g clip-path="url(#clip0_344_7366)">
<path fill-rule="evenodd" clip-rule="evenodd" d="M17.6677 40.3479V35.3611V32.0366C18.5141 32.5159 19.4829 32.883 20.5741 33.138C21.6755 33.4031 22.6851 33.5255 23.6233 33.5255C25.2753 33.5255 26.5399 33.1584 27.4067 32.4241C28.2735 31.6899 28.7019 30.5987 28.7019 29.171C28.7019 26.4481 26.9682 25.0816 23.4805 25.0816C22.991 25.0816 22.3893 25.1326 21.6755 25.2346C20.9514 25.3263 20.3191 25.4385 19.7786 25.5711L18.1368 24.6023L19.0138 13.4457H30.8842V9.05039C29.0588 8.36713 27.0702 8 25 8C15.6077 8 8 15.6077 8 25C8 31.7714 11.9466 37.6047 17.6677 40.3479Z" fill="#DC514A"/>
<path fill-rule="evenodd" clip-rule="evenodd" d="M30.4659 23.8477C31.8121 25.0612 32.4851 26.7235 32.4851 28.8345C32.4851 31.2718 31.7203 33.1686 30.1906 34.5453C28.6711 35.9118 26.4989 36.6053 23.6843 36.6053C21.1348 36.6053 19.1258 36.1872 17.6675 35.3612V40.348C19.8906 41.4085 22.3789 42 24.9998 42C34.3921 42 41.9998 34.3923 41.9998 25C41.9998 17.6779 37.3801 11.4469 30.884 9.05042V13.4457V16.7091H22.2464L21.7365 22.3588C22.0934 22.2976 22.5421 22.2262 23.0724 22.1344C23.5925 22.0528 24.2452 22.012 24.9998 22.012C27.3046 22.012 29.1198 22.6239 30.4659 23.8477Z" fill="#25A162"/>
<path fill-rule="evenodd" clip-rule="evenodd" d="M21.7365 22.3588L22.2464 16.7091H30.884V15.0774V13.4457H19.0136L18.1366 24.6023L19.7785 25.5711C20.319 25.4385 20.9512 25.3264 21.6753 25.2346C22.3891 25.1326 22.9908 25.0816 23.4803 25.0816C26.968 25.0816 28.7017 26.4481 28.7017 29.171C28.7017 30.5987 28.2734 31.6899 27.4065 32.4241C26.5397 33.1584 25.2752 33.5255 23.6231 33.5255C22.6849 33.5255 21.6753 33.4031 20.5739 33.138C19.4827 32.8831 18.5139 32.5159 17.6675 32.0366V33.6989V35.3612C19.1258 36.1872 21.1348 36.6053 23.6843 36.6053C26.4989 36.6053 28.6711 35.9118 30.1906 34.5453C31.7203 33.1686 32.4851 31.2718 32.4851 28.8345C32.4851 26.7235 31.8121 25.0612 30.4659 23.8477C29.1198 22.6239 27.3046 22.012 24.9998 22.012C24.2452 22.012 23.5925 22.0528 23.0724 22.1344C22.5421 22.2262 22.0934 22.2976 21.7365 22.3588Z" fill="white"/>
</g>
<defs>
<clipPath id="clip0_344_7366">
<rect width="34" height="34" fill="white" transform="translate(8 8)"/>
</clipPath>
</defs>
</svg>
