<svg width="39" height="39" viewBox="0 0 39 39" fill="none" xmlns="http://www.w3.org/2000/svg">
<g clip-path="url(#clip0_352_7627)">
<path d="M19.3348 0.0110474C9.458 0.0110481 10.0748 4.31102 10.0748 4.31102L10.0858 8.76574H19.511V10.1033H6.34213C6.34213 10.1033 0.0219727 9.38369 0.0219727 19.3885C0.021972 29.3934 5.53835 29.0386 5.53835 29.0386H8.83055V24.396C8.83055 24.396 8.6531 18.858 14.2588 18.858H23.607C23.607 18.858 28.8591 18.9432 28.8591 13.7621V5.19533C28.8591 5.19533 29.6565 0.0110474 19.3348 0.0110474ZM14.1377 3.00666C15.0755 3.00666 15.8334 3.76754 15.8334 4.70896C15.8334 5.65037 15.0755 6.41126 14.1377 6.41126C13.2 6.41126 12.4421 5.65037 12.4421 4.70896C12.4421 3.76754 13.2 3.00666 14.1377 3.00666Z" fill="url(#paint0_linear_352_7627)"/>
<path d="M19.6152 38.8663C29.492 38.8663 28.8752 34.5664 28.8752 34.5664L28.8642 30.1116H19.4391V28.7741H32.6079C32.6079 28.7741 38.928 29.4937 38.928 19.4888C38.928 9.48398 33.4117 9.83878 33.4117 9.83878H30.1195V14.4814C30.1195 14.4814 30.2969 20.0194 24.6912 20.0194H15.3431C15.3431 20.0194 10.0909 19.9342 10.0909 25.1153V33.6821C10.0909 33.6821 9.29353 38.8663 19.6152 38.8663ZM24.8123 35.8707C23.8745 35.8707 23.1166 35.1098 23.1166 34.1684C23.1166 33.227 23.8745 32.4661 24.8123 32.4661C25.75 32.4661 26.5079 33.227 26.5079 34.1684C26.5079 35.1098 25.75 35.8707 24.8123 35.8707Z" fill="url(#paint1_linear_352_7627)"/>
</g>
<defs>
<linearGradient id="paint0_linear_352_7627" x1="373.917" y1="349.504" x2="2309.43" y2="2258.23" gradientUnits="userSpaceOnUse">
<stop stop-color="#387EB8"/>
<stop offset="1" stop-color="#366994"/>
</linearGradient>
<linearGradient id="paint1_linear_352_7627" x1="561.932" y1="607.233" x2="2640.1" y2="2564.11" gradientUnits="userSpaceOnUse">
<stop stop-color="#FFE052"/>
<stop offset="1" stop-color="#FFC331"/>
</linearGradient>
<clipPath id="clip0_352_7627">
<rect width="39" height="39" fill="white"/>
</clipPath>
</defs>
</svg>
