<svg width="50" height="50" viewBox="0 0 50 50" fill="none" xmlns="http://www.w3.org/2000/svg">
<path d="M40.8753 30.858C40.4291 28.8949 38.466 27.6457 36.4137 28.0918C36.0568 28.1811 35.6998 28.6272 35.6106 28.8949C35.2537 29.9657 35.2537 30.9473 35.5214 32.1073C35.7891 33.2673 36.2352 34.1596 37.0383 34.9627C37.306 35.2304 37.8414 35.4088 38.1983 35.3196C40.1614 34.8734 41.4107 32.8211 40.8753 30.858Z" fill="white"/>
<path d="M32.3983 40.4058C36.1437 40.4058 39.1799 37.3696 39.1799 33.6242C39.1799 29.8788 36.1437 26.8426 32.3983 26.8426C28.6529 26.8426 25.6167 29.8788 25.6167 33.6242C25.6167 37.3696 28.6529 40.4058 32.3983 40.4058Z" fill="#FF3C91"/>
<path d="M35.9673 42.1905C38.1088 41.2982 39.0904 38.7997 38.198 36.6581C38.0196 36.3012 37.4842 35.9442 37.1273 35.855C35.878 35.5873 34.8072 35.855 33.558 36.3904C32.3088 36.9258 31.4164 37.5504 30.7026 38.6212C30.5241 38.9781 30.3457 39.6028 30.5241 39.9597C31.4164 42.1012 33.9149 43.0828 35.9673 42.1905Z" fill="white"/>
<path d="M14.6407 37.2828C16.1576 38.0858 18.0315 37.5505 18.8346 36.0335C19.0131 35.7658 18.9238 35.3197 18.7454 35.052C18.2992 34.2489 17.6746 33.7135 16.7823 33.2673C15.89 32.8212 15.0869 32.5535 14.1946 32.6427C13.9269 32.6427 13.4807 32.9104 13.3022 33.1781C12.5884 34.695 13.1238 36.4797 14.6407 37.2828Z" fill="white"/>
<path d="M17.586 36.0335C20.6907 36.0335 23.2076 33.5166 23.2076 30.4119C23.2076 27.3072 20.6907 24.7903 17.586 24.7903C14.4812 24.7903 11.9644 27.3072 11.9644 30.4119C11.9644 33.5166 14.4812 36.0335 17.586 36.0335Z" fill="#9BC7FB"/>
<path d="M10.1793 28.0919C9.55466 29.9658 10.6254 31.9289 12.4101 32.4643C12.6778 32.5535 13.2132 32.375 13.4809 32.1966C14.2839 31.5719 14.7301 30.7689 15.087 29.6981C15.444 28.6273 15.5332 27.735 15.2655 26.6642C15.1763 26.3073 14.8193 25.9503 14.5516 25.7719C12.767 25.2365 10.8039 26.218 10.1793 28.0919Z" fill="white"/>
<path d="M22.4037 7.30086C20.0837 8.19318 18.8344 10.8701 19.816 13.1902C19.9944 13.5471 20.5298 13.9932 20.976 14.0825C22.3145 14.3502 23.4745 14.1717 24.9022 13.6363C26.3299 13.1009 27.3114 12.4763 28.1145 11.3163C28.3822 10.9594 28.5607 10.2455 28.3822 9.88858C27.4007 7.56855 24.7237 6.40854 22.4037 7.30086Z" fill="white"/>
<path d="M27.2223 25.5934C31.8547 25.5934 35.61 21.8381 35.61 17.2057C35.61 12.5732 31.8547 8.81787 27.2223 8.81787C22.5898 8.81787 18.8345 12.5732 18.8345 17.2057C18.8345 21.8381 22.5898 25.5934 27.2223 25.5934Z" fill="#AE8FFF"/>
<path d="M37.0378 11.3162C36.3104 10.1525 35.16 9.31619 33.8287 8.98334C32.4973 8.6505 31.0887 8.84702 29.8993 9.53157C29.4531 9.79926 29.1854 10.5131 29.0962 11.0485C29.0069 12.5654 29.4531 13.9039 30.3454 15.3316C31.2377 16.7593 32.13 17.7409 33.5578 18.4547C34.0039 18.6332 34.807 18.7224 35.2532 18.4547C37.7516 16.9378 38.5547 13.8147 37.0378 11.3162Z" fill="white"/>
</svg>
