<svg width="50" height="50" viewBox="0 0 50 50" fill="none" xmlns="http://www.w3.org/2000/svg">
<path fill-rule="evenodd" clip-rule="evenodd" d="M5 7.98893L20.076 12.0191L43.2738 8.30297L23.8323 6L5 7.98893Z" fill="#19AEFF" stroke="black" stroke-width="0.87" stroke-linejoin="round"/>
<path fill-rule="evenodd" clip-rule="evenodd" d="M20.0737 12.0205L21.1905 44.0004L44.0837 32.9566L43.2715 8.30432L20.0737 12.0205Z" fill="#0084C8" stroke="black" stroke-width="0.87" stroke-linejoin="round"/>
<path fill-rule="evenodd" clip-rule="evenodd" d="M5 7.98889L20.076 12.0191L21.1927 43.999L5.71065 28.8203L5 7.98889Z" fill="#19AEFF" stroke="black" stroke-width="0.87" stroke-linejoin="round"/>
<path d="M6.52344 14.1133C6.52344 14.1133 8.50311 9.92609 12.564 14.218C14.4929 16.3116 15.9142 18.6669 17.7416 15.5265" stroke="black" stroke-width="1.31" stroke-miterlimit="5.58"/>
<path d="M6.52344 16.8877C6.52344 16.8877 8.50311 12.7005 12.564 16.9924C14.4929 19.086 15.9142 21.389 17.7416 18.3009" stroke="black" stroke-width="1.31" stroke-miterlimit="5.58"/>
<path d="M6.52344 19.609C6.52344 19.609 8.50311 15.4218 12.564 19.7137C14.4929 21.8073 15.9142 24.1103 17.7416 21.0222" stroke="black" stroke-width="1.31" stroke-miterlimit="5.58"/>
</svg>
