<svg width="35" height="35" viewBox="0 0 35 35" fill="none" xmlns="http://www.w3.org/2000/svg">
<g clip-path="url(#clip0_352_7612)">
<path d="M17.9456 31.2053C10.9102 31.2053 2.91623 22.8529 3.55554 15.9189C4.19485 9.30021 13.1489 3.15432 19.784 4.09985C25.6203 4.88729 30.8172 12.1368 30.4964 17.8889C30.1778 23.955 24.1011 31.2053 17.9456 31.2053Z" fill="white"/>
<path d="M22.9829 34.7496C22.5025 34.5923 21.783 34.4349 21.3836 34.2768C20.9039 34.0412 20.344 34.0412 18.5857 34.1195C16.9069 34.1978 16.027 34.1195 14.8286 33.9614C8.43253 32.8593 3.31583 28.289 1.47735 21.9858C1.15732 20.8039 1.07788 20.1738 1.07788 17.3372C1.07788 14.2636 0.997682 14.0279 0.598209 12.767C-1.71993 6.54205 2.99655 0.00244141 9.71189 0.00244141C11.0707 0.00244141 12.7495 0.396901 13.7089 0.868923C14.3489 1.18434 14.7484 1.26264 17.2262 1.26264C19.4649 1.26264 20.344 1.34168 21.463 1.6571C26.5003 2.91804 30.5767 6.14833 32.7352 10.6396C34.094 13.3971 34.5744 16.2344 34.2536 19.4639C34.094 21.1984 34.094 21.3557 34.4935 22.3795C35.7728 26.0833 34.5737 30.3374 31.4558 32.8593C30.4957 33.6475 28.5778 34.514 27.3787 34.8294C26.1787 35.0658 24.2608 35.0658 23.0609 34.7503L22.9829 34.7496ZM20.8237 28.6828C23.4626 28.1317 25.78 26.5553 26.6599 24.665C27.7789 22.3795 27.4588 19.7003 25.9404 18.0456C24.661 16.6274 22.7424 15.8399 18.1855 14.7371C15.1471 14.0279 14.4276 13.7125 13.7883 13.0034C13.2285 12.3725 13.1483 11.9005 13.6287 11.1914C14.1083 10.4032 15.3075 9.93041 16.9062 9.85211C19.2251 9.69477 20.2638 10.2458 21.6226 12.3733C22.6622 13.9496 23.7009 14.3433 25.0613 13.7125C26.8195 12.846 26.6599 10.0095 24.7405 8.35479C22.902 6.85821 20.9039 6.22737 17.5455 6.22737C14.0282 6.22737 11.6291 6.93651 10.0304 8.51213C8.75106 9.77307 8.51197 10.4822 8.51197 12.4516C8.51197 14.4999 8.75181 15.13 10.1106 16.3127C11.5496 17.6519 12.7488 18.1254 17.0651 19.1492C20.1034 19.8584 20.9031 20.2521 21.6219 21.0403C21.9427 21.4347 22.1023 21.7494 22.1023 22.4586C22.1023 23.2467 22.0221 23.4041 21.3828 24.0349C20.4235 24.9797 18.9845 25.3734 17.146 25.2959C14.9875 25.1378 14.0282 24.5077 12.9092 22.3012C12.1095 20.8046 11.4702 20.2528 10.4306 20.2528C8.11175 20.2528 7.31281 22.1439 8.51197 24.586C9.5515 26.7141 11.6298 28.1324 14.268 28.6835C15.8666 28.9989 19.3847 28.9989 20.9039 28.6835L20.8237 28.6828Z" fill="#00AFF0"/>
</g>
<defs>
<clipPath id="clip0_352_7612">
<rect width="35" height="35" fill="white"/>
</clipPath>
</defs>
</svg>
