<svg width="50" height="50" viewBox="0 0 50 50" fill="none" xmlns="http://www.w3.org/2000/svg">
<g clip-path="url(#clip0_352_7583)">
<path fill-rule="evenodd" clip-rule="evenodd" d="M21.0993 8C19.2751 8.00135 17.7987 9.47878 17.8001 11.2993C17.7987 13.1199 19.2764 14.5973 21.1006 14.5987H24.4012V11.3007C24.4025 9.48012 22.9248 8.00269 21.0993 8C21.1006 8 21.1006 8 21.0993 8ZM21.0993 16.8H12.3005C10.4763 16.8013 8.99866 18.2788 9 20.0993C8.99731 21.9199 10.475 23.3973 12.2992 23.4H21.0993C22.9235 23.3987 24.4012 21.9212 24.3998 20.1007C24.4012 18.2788 22.9235 16.8013 21.0993 16.8Z" fill="#36C5F0"/>
<path fill-rule="evenodd" clip-rule="evenodd" d="M41.9999 20.0993C42.0013 18.2788 40.5236 16.8013 38.6994 16.8C36.8752 16.8013 35.3975 18.2788 35.3988 20.0993V23.4H38.6994C40.5236 23.3987 42.0013 21.9212 41.9999 20.0993ZM33.1998 20.0993V11.2993C33.2012 9.48012 31.7248 8.00269 29.9006 8C28.0764 8.00135 26.5988 9.47878 26.6001 11.2993V20.0993C26.5974 21.9199 28.0751 23.3973 29.8993 23.4C31.7235 23.3987 33.2012 21.9212 33.1998 20.0993Z" fill="#2EB67D"/>
<path fill-rule="evenodd" clip-rule="evenodd" d="M29.8994 41C31.7236 40.9986 33.2013 39.5212 33.2 37.7007C33.2013 35.8801 31.7236 34.4027 29.8994 34.4013H26.5989V37.7007C26.5975 39.5199 28.0752 40.9973 29.8994 41ZM29.8994 32.1986H38.6995C40.5237 32.1973 42.0014 30.7199 42 28.8993C42.0027 27.0788 40.525 25.6013 38.7009 25.5986H29.9008C28.0766 25.6 26.5989 27.0774 26.6002 28.898C26.5989 30.7199 28.0752 32.1973 29.8994 32.1986Z" fill="#ECB22E"/>
<path fill-rule="evenodd" clip-rule="evenodd" d="M9 28.8993C8.99865 30.7199 10.4763 32.1973 12.3005 32.1986C14.1247 32.1973 15.6024 30.7199 15.6011 28.8993V25.6H12.3005C10.4763 25.6013 8.99865 27.0788 9 28.8993ZM17.8001 28.8993V37.6993C17.7974 39.5199 19.2751 40.9973 21.0993 41C22.9235 40.9986 24.4012 39.5212 24.3998 37.7006V28.902C24.4025 27.0814 22.9248 25.604 21.1006 25.6013C19.2751 25.6013 17.7987 27.0788 17.8001 28.8993Z" fill="#E01E5A"/>
</g>
<defs>
<clipPath id="clip0_352_7583">
<rect width="33" height="33" fill="white" transform="translate(9 8)"/>
</clipPath>
</defs>
</svg>
