<svg width="50" height="50" viewBox="0 0 50 50" fill="none" xmlns="http://www.w3.org/2000/svg">
<path d="M38.6459 10.0859C38.179 11.2053 37.5813 12.2655 36.8651 13.2443C35.3018 11.6744 33.442 10.431 31.3938 9.58629C29.3456 8.7416 27.1499 8.31251 24.9344 8.32395C22.7189 8.3354 20.5278 8.78716 18.4885 9.65297C16.4491 10.5188 14.6023 11.7814 13.0552 13.3673C11.5082 14.9532 10.2919 16.8309 9.47695 18.8911C8.66205 20.9513 8.26484 23.153 8.30841 25.3681C8.35198 27.5832 8.83546 29.7675 9.73075 31.7941C10.626 33.8207 11.9153 35.649 13.5235 37.1729L14.1412 37.7182C16.4984 39.7045 19.3591 40.9999 22.4069 41.4612C25.4546 41.9225 28.5706 41.5317 31.41 40.332C34.2495 39.1324 36.7017 37.1706 38.4954 34.6638C40.2892 32.157 41.3545 29.2028 41.5735 26.1281C42.0292 21.8729 40.7797 16.4875 38.6464 10.0865L38.6459 10.0859ZM15.9011 37.2698C15.7232 37.4896 15.4841 37.6517 15.2141 37.7355C14.9441 37.8194 14.6553 37.8213 14.3842 37.741C14.1131 37.6607 13.8719 37.5018 13.6912 37.2844C13.5104 37.0669 13.3982 36.8008 13.3688 36.5196C13.3393 36.2384 13.3939 35.9548 13.5257 35.7046C13.6575 35.4545 13.8605 35.249 14.1091 35.1143C14.3576 34.9795 14.6406 34.9215 14.9221 34.9477C15.2036 34.9738 15.4711 35.0828 15.6907 35.2609C15.9847 35.4996 16.1721 35.8452 16.2115 36.2218C16.251 36.5985 16.1393 36.9754 15.9011 37.2698ZM38.5771 32.2646C34.4521 37.7594 25.6448 35.9052 19.9979 36.1719C19.9979 36.1719 18.9969 36.2307 17.9891 36.3958C17.9891 36.3958 18.3693 36.2344 18.8552 36.0505C22.8209 34.6703 24.6953 34.4047 27.1042 33.1651C31.6396 30.8594 36.1261 25.8099 37.0584 20.5609C35.3328 25.6104 30.0933 29.9526 25.324 31.7162C22.0552 32.9208 16.15 34.0943 16.15 34.0943L15.912 33.9667C11.8943 32.0135 11.7703 23.312 19.0771 20.5057C22.2766 19.2734 25.3375 19.95 28.7927 19.1255C32.4823 18.249 36.7511 15.4849 38.4881 11.8776C40.4308 17.6484 42.7714 26.6807 38.5745 32.2682L38.5771 32.2646Z" fill="#68BD45"/>
</svg>
